{
copyright = "Copyright (c) 2022 by Thanos Poulakidas. All rights reserved.";
designer = "Thanos Poulakidas";
familyName = Geom;
customParameters = (
{
name = glyphOrder;
value = (
.notdef,
uni0000,
uni000D,
space,
quotedbl,
numbersign,
dollar,
percent,
ampersand,
quotesingle,
parenleft,
parenright,
asterisk,
plus,
comma,
hyphen,
period,
slash,
zero,
one,
two,
three,
four,
five,
six,
seven,
eight,
nine,
colon,
semicolon,
less,
equal,
greater,
question,
at,
A,
B,
C,
D,
E,
F,
G,
H,
I,
J,
K,
L,
M,
N,
O,
P,
Q,
R,
S,
T,
U,
V,
W,
X,
Y,
Z,
bracketleft,
backslash,
bracketright,
asciicircum,
underscore,
grave,
a,
b,
c,
d,
e,
f,
g,
h,
i,
j,
k,
l,
m,
n,
o,
p,
q,
r,
s,
t,
u,
v,
w,
x,
y,
z,
braceleft,
bar,
braceright,
asciitilde,
Euro,
quotesinglbase,
florin,
quotedblbase,
ellipsis,
dagger,
daggerdbl,
circumflex,
perthousand,
guilsinglleft,
quoteleft,
quoteright,
quotedblleft,
quotedblright,
bullet,
endash,
emdash,
tilde,
trademark,
guilsinglright,
exclamdown,
cent,
sterling,
currency,
yen,
brokenbar,
section,
dieresis,
copyright,
ordfeminine,
guillemotleft,
logicalnot,
registered,
degree,
plusminus,
acute,
paragraph,
cedilla,
ordmasculine,
guillemotright,
onequarter,
onehalf,
threequarters,
questiondown,
germandbls,
divide,
oslash,
fraction,
fi,
fl,
breve,
dotaccent,
ring,
hungarumlaut,
ogonek,
caron,
dotlessi,
greaterequal,
radical,
notequal,
product,
summation,
lessequal,
uni02C9,
lozenge,
minus,
uni2215,
approxequal,
integral,
uni2113,
partialdiff,
uni2206,
infinity,
uni2126,
uni2219,
estimated,
exclam,
Alpha,
Epsilon,
Eta,
Iota,
Kappa,
Mu,
Nu,
Omicron,
Chi,
Tau,
Rho,
Upsilon,
uni0394,
uni03A9,
Lambda,
Beta,
Zeta,
Pi,
Xi,
Sigma,
Psi,
omicron,
kappa,
nu,
tonos,
Alphatonos,
Epsilontonos,
Etatonos,
Iotatonos,
Omicrontonos,
Upsilontonos,
Gamma,
Theta,
Iotadieresis,
Upsilondieresis,
dieresistonos,
alpha,
rho,
iota,
eta,
gamma,
upsilon,
beta,
pi,
uni03BC,
tau,
Phi,
chi,
sigma,
theta,
lambda,
psi,
epsilon,
delta,
alphatonos,
etatonos,
iotatonos,
omicrontonos,
upsilontonos,

glyphs = (
{
glyphname = .notdef;
layers = (
{
hints = (
{
horizontal = 1;
place = "{0, 57}";
type = Stem;
},
{
horizontal = 1;
place = "{663, 57}";
type = Stem;
},
{
place = "{-7, 67}";
type = Stem;
},
{
place = "{453, 67}";
type = Stem;
}
);
layerId = "8768C18F-5D75-4F12-A5E9-2E25CBCA3CBE";
paths = (
{
closed = 1;
nodes = (
"-7 0 LINE",
"520 0 LINE",
"520 720 LINE",
"-7 720 LINE"
);
},
{
closed = 1;
nodes = (
"256 420 LINE",
"92 663 LINE",
"420 663 LINE"
);
},
{
closed = 1;
nodes = (
"60 598 LINE",
"218 360 LINE",
"60 125 LINE"
);
},
{
closed = 1;
nodes = (
"295 360 LINE",
"453 597 LINE",
"453 125 LINE"
);
},
{
closed = 1;
nodes = (
"92 57 LINE",
"256 302 LINE",
"420 57 LINE"
);
}
);
width = 515;
}
);
},
{
glyphname = quotedbl;
layers = (
{
hints = (
{
place = "{45, 359}";
type = Stem;
},
{
horizontal = 1;
place = "{409, 296}";
type = Stem;
},
{
horizontal = 1;
place = "{705, -20}";
target = down;
type = TopGhost;
}
);
layerId = "8768C18F-5D75-4F12-A5E9-2E25CBCA3CBE";
paths = (
{
closed = 1;
nodes = (
"115 409 LINE",
"191 669 LINE",
"199 705 LINE",
"70 705 LINE",
"45 409 LINE"
);
},
{
closed = 1;
nodes = (
"250 409 LINE",
"320 409 LINE",
"396 669 LINE",
"404 705 LINE",
"275 705 LINE"
);
}
);
width = 448;
}
);
unicode = 0022;
},
{
glyphname = numbersign;
layers = (
{
hints = (
{
horizontal = 1;
place = "{0, 21}";
target = up;
type = BottomGhost;
},
{
horizontal = 1;
place = "{174, 101}";
type = Stem;
},
{
horizontal = 1;
place = "{435, 100}";
type = Stem;
},
{
horizontal = 1;
place = "{704, -20}";
target = down;
type = TopGhost;
},
{
place = "{39, 591}";
type = Stem;
}
);
layerId = "8768C18F-5D75-4F12-A5E9-2E25CBCA3CBE";
paths = (
{
closed = 1;
nodes = (
"107 0 LINE",
"204 0 LINE",
"231 174 LINE",
"382 174 LINE",
"356 0 LINE",
"453 0 LINE",
"479 174 LINE",
"597 174 LINE",
"597 276 LINE",
"496 276 LINE",
"521 433 LINE",
"630 433 LINE",
"630 535 LINE",
"538 535 LINE",
"563 704 LINE",
"466 704 LINE",
"441 535 LINE",
"290 535 LINE",
"316 704 LINE",
"219 704 LINE",
"193 535 LINE",
"72 535 LINE",
"72 433 LINE",
"177 433 LINE",
"152 276 LINE",
"39 276 LINE",
"39 175 LINE",
"135 175 LINE"
);
},
{
closed = 1;
nodes = (
"426 435 LINE",
"400 275 LINE",
"246 275 LINE",
"272 435 LINE"
);
}
);
width = 668;
}
);
unicode = 0023;
},
{
glyphname = dollar;
layers = (
{
hints = (
{
place = "{90, 113}";
type = Stem;
},
{
place = "{300, 75}";
type = Stem;
},
{
place = "{476, 112}";
type = Stem;
},
{
horizontal = 1;
place = "{-2, 94}";
type = Stem;
},
{
horizontal = 1;
place = "{610, 161}";
type = Stem;
},
{
horizontal = 1;
place = "{707, -20}";
target = down;
type = TopGhost;
}
);
layerId = "8768C18F-5D75-4F12-A5E9-2E25CBCA3CBE";
paths = (
{
closed = 1;
nodes = (
"298 -96 LINE",
"376 -96 LINE",
"376 -3 LINE",
"501 10 OFFCURVE",
"588 87 OFFCURVE",
"588 199 CURVE SMOOTH",
"588 300 OFFCURVE",
"520 358 OFFCURVE",
"375 403 CURVE",
"375 610 LINE",
"422 605 OFFCURVE",
"462 581 OFFCURVE",
"489 545 CURVE",
"555 616 LINE",
"520 659 OFFCURVE",
"464 698 OFFCURVE",
"377 707 CURVE",
"377 771 LINE",
"299 771 LINE",
"299 707 LINE",
"176 696 OFFCURVE",
"90 621 OFFCURVE",
"90 513 CURVE SMOOTH",
"90 404 OFFCURVE",
"167 348 OFFCURVE",
"300 305 CURVE",
"300 92 LINE",
"232 96 OFFCURVE",
"173 134 OFFCURVE",
"132 179 CURVE",
"63 104 LINE",
"122 41 OFFCURVE",
"205 -2 OFFCURVE",
"298 -2 CURVE"
);
},
{
closed = 1;
nodes = (
"203 571 OFFCURVE",
"236 605 OFFCURVE",
"301 612 CURVE",
"301 424 LINE",
"237 449 OFFCURVE",
"203 476 OFFCURVE",
"203 524 CURVE SMOOTH"
);
},
{
closed = 1;
nodes = (
"476 138 OFFCURVE",
"444 102 OFFCURVE",
"375 93 CURVE",
"375 287 LINE",
"457 260 OFFCURVE",
"476 220 OFFCURVE",
"476 186 CURVE SMOOTH"
);
}
);
width = 655;
}
);
unicode = 0024;
},
{
glyphname = percent;
layers = (
{
hints = (
{
place = "{30, 85}";
type = Stem;
},
{
place = "{285, 86}";
type = Stem;
},
{
place = "{466, 85}";
type = Stem;
},
{
place = "{721, 85}";
type = Stem;
},
{
horizontal = 1;
place = "{-11, 77}";
type = Stem;
},
{
horizontal = 1;
place = "{-3, 21}";
target = up;
type = BottomGhost;
},
{
horizontal = 1;
place = "{278, 76}";
type = Stem;
},
{
horizontal = 1;
place = "{352, 76}";
type = Stem;
},
{
horizontal = 1;
place = "{642, 77}";
type = Stem;
},
{
horizontal = 1;
place = "{715, -20}";
target = down;
type = TopGhost;
}
);
layerId = "8768C18F-5D75-4F12-A5E9-2E25CBCA3CBE";
paths = (
{
closed = 1;
nodes = (
"371 637 OFFCURVE",
"304 719 OFFCURVE",
"201 719 CURVE SMOOTH",
"100 719 OFFCURVE",
"30 636 OFFCURVE",
"30 536 CURVE SMOOTH",
"30 433 OFFCURVE",
"98 352 OFFCURVE",
"200 352 CURVE SMOOTH",
"301 352 OFFCURVE",
"371 435 OFFCURVE",
"371 537 CURVE SMOOTH"
);
},
{
closed = 1;
nodes = (
"711 706 LINE",
"622 715 LINE",
"121 -3 LINE",
"210 -13 LINE"
);
},
{
closed = 1;
nodes = (
"285 473 OFFCURVE",
"254 428 OFFCURVE",
"201 428 CURVE SMOOTH",
"149 428 OFFCURVE",
"115 472 OFFCURVE",
"115 536 CURVE SMOOTH",
"115 597 OFFCURVE",
"148 642 OFFCURVE",
"200 642 CURVE SMOOTH",
"248 642 OFFCURVE",
"285 598 OFFCURVE",
"285 533 CURVE SMOOTH"
);
},
{
closed = 1;
nodes = (
"806 274 OFFCURVE",
"737 354 OFFCURVE",
"636 354 CURVE SMOOTH",
"536 354 OFFCURVE",
"466 274 OFFCURVE",
"466 172 CURVE SMOOTH",
"466 72 OFFCURVE",
"533 -11 OFFCURVE",
"635 -11 CURVE SMOOTH",
"736 -11 OFFCURVE",
"806 72 OFFCURVE",
"806 173 CURVE SMOOTH"
);
},
{
closed = 1;
nodes = (
"721 112 OFFCURVE",
"688 66 OFFCURVE",
"636 66 CURVE SMOOTH",
"588 66 OFFCURVE",
"551 108 OFFCURVE",
"551 172 CURVE SMOOTH",
"551 235 OFFCURVE",
"583 278 OFFCURVE",
"635 278 CURVE SMOOTH",
"686 278 OFFCURVE",
"721 235 OFFCURVE",
"721 172 CURVE SMOOTH"
);
}
);
width = 838;
}
);
unicode = 0025;
},
{
glyphname = ampersand;
layers = (
{
hints = (
{
place = "{32, 123}";
type = Stem;
},
{
place = "{131, 108}";
type = Stem;
},
{
place = "{399, 104}";
type = Stem;
},
{
horizontal = 1;
place = "{-11, 93}";
type = Stem;
},
{
horizontal = 1;
place = "{-5, 21}";
target = up;
type = BottomGhost;
},
{
horizontal = 1;
place = "{629, 90}";
type = Stem;
}
);
layerId = "8768C18F-5D75-4F12-A5E9-2E25CBCA3CBE";
paths = (
{
closed = 1;
nodes = (
"559 376 LINE",
"536 325 OFFCURVE",
"511 281 OFFCURVE",
"482 236 CURVE",
"353 377 LINE",
"442 416 OFFCURVE",
"503 470 OFFCURVE",
"503 558 CURVE SMOOTH",
"503 647 OFFCURVE",
"430 719 OFFCURVE",
"321 719 CURVE SMOOTH",
"209 719 OFFCURVE",
"131 648 OFFCURVE",
"131 550 CURVE SMOOTH",
"131 498 OFFCURVE",
"154 449 OFFCURVE",
"193 400 CURVE",
"89 359 OFFCURVE",
"32 291 OFFCURVE",
"32 192 CURVE SMOOTH",
"32 66 OFFCURVE",
"133 -11 OFFCURVE",
"263 -11 CURVE SMOOTH",
"350 -11 OFFCURVE",
"416 23 OFFCURVE",
"477 80 CURVE",
"559 -5 LINE",
"678 19 LINE",
"548 163 LINE",
"585 218 OFFCURVE",
"621 282 OFFCURVE",
"653 345 CURVE"
);
},
{
closed = 1;
nodes = (
"364 629 OFFCURVE",
"399 599 OFFCURVE",
"399 552 CURVE SMOOTH",
"399 504 OFFCURVE",
"356 464 OFFCURVE",
"295 439 CURVE",
"260 480 OFFCURVE",
"239 514 OFFCURVE",
"239 549 CURVE SMOOTH",
"239 597 OFFCURVE",
"273 629 OFFCURVE",
"320 629 CURVE SMOOTH"
);
},
{
closed = 1;
nodes = (
"412 154 LINE",
"375 111 OFFCURVE",
"330 82 OFFCURVE",
"275 82 CURVE SMOOTH",
"204 82 OFFCURVE",
"155 132 OFFCURVE",
"155 197 CURVE SMOOTH",
"155 256 OFFCURVE",
"190 298 OFFCURVE",
"255 327 CURVE"
);
}
);
width = 683;
}
);
unicode = 0026;
},
{
glyphname = quotesingle;
layers = (
{
hints = (
{
horizontal = 1;
place = "{705, -20}";
target = down;
type = TopGhost;
},
{
place = "{45, 155}";
type = Stem;
}
);
layerId = "8768C18F-5D75-4F12-A5E9-2E25CBCA3CBE";
paths = (
{
closed = 1;
nodes = (
"45 409 LINE",
"116 409 LINE",
"192 669 LINE",
"200 705 LINE",
"69 705 LINE"
);
}
);
width = 244;
}
);
unicode = 0027;
},
{
glyphname = parenleft;
layers = (
{
hints = (
{
horizontal = 1;
place = "{-153, 880}";
type = Stem;
},
{
place = "{65, 116}";
type = Stem;
}
);
layerId = "8768C18F-5D75-4F12-A5E9-2E25CBCA3CBE";
paths = (
{
closed = 1;
nodes = (
"181 434 OFFCURVE",
"241 545 OFFCURVE",
"368 656 CURVE",
"307 727 LINE",
"152 610 OFFCURVE",
"65 473 OFFCURVE",
"65 285 CURVE SMOOTH",
"65 95 OFFCURVE",
"155 -46 OFFCURVE",
"307 -153 CURVE",
"367 -84 LINE",
"240 27 OFFCURVE",
"181 137 OFFCURVE",
"181 285 CURVE SMOOTH"
);
}
);
width = 396;
}
);
unicode = 0028;
},
{
glyphname = parenright;
layers = (
{
hints = (
{
horizontal = 1;
place = "{-153, 880}";
type = Stem;
},
{
place = "{216, 117}";
type = Stem;
}
);
layerId = "8768C18F-5D75-4F12-A5E9-2E25CBCA3CBE";
paths = (
{
closed = 1;
nodes = (
"216 140 OFFCURVE",
"160 27 OFFCURVE",
"29 -84 CURVE",
"91 -153 LINE",
"243 -41 OFFCURVE",
"333 96 OFFCURVE",
"333 285 CURVE SMOOTH",
"333 471 OFFCURVE",
"246 608 OFFCURVE",
"90 727 CURVE",
"28 656 LINE",
"160 545 OFFCURVE",
"216 432 OFFCURVE",
"216 285 CURVE SMOOTH"
);
}
);
width = 398;
}
);
unicode = 0029;
},
{
glyphname = asterisk;
layers = (
{
hints = (
{
horizontal = 1;
place = "{407, 313}";
type = Stem;
},
{
place = "{161, 68}";
type = Stem;
}
);
layerId = "8768C18F-5D75-4F12-A5E9-2E25CBCA3CBE";
paths = (
{
closed = 1;
nodes = (
"140 590 LINE",
"31 552 LINE",
"52 488 LINE",
"161 525 LINE",
"161 407 LINE",
"229 407 LINE",
"229 524 LINE",
"335 488 LINE",
"356 552 LINE",
"251 589 LINE",
"316 683 LINE",
"261 720 LINE",
"195 630 LINE",
"127 720 LINE",
"72 681 LINE"
);
}
);
width = 388;
}
);
unicode = 002A;
},
{
glyphname = plus;
layers = (
{
hints = (
{
horizontal = 1;
place = "{295, 105}";
type = Stem;
},
{
place = "{236, 109}";
type = Stem;
}
);
layerId = "8768C18F-5D75-4F12-A5E9-2E25CBCA3CBE";
paths = (
{
closed = 1;
nodes = (
"345 595 LINE",
"236 595 LINE",
"236 400 LINE",
"42 400 LINE",
"42 295 LINE",
"236 295 LINE",
"236 99 LINE",
"345 99 LINE",
"345 295 LINE",
"540 295 LINE",
"540 400 LINE",
"345 400 LINE"
);
}
);
width = 582;
}
);
unicode = 002B;
},
{
glyphname = comma;
layers = (
{
hints = (
{
horizontal = 1;
place = "{-147, 293}";
type = Stem;
},
{
place = "{10, 173}";
type = Stem;
}
);
layerId = "8768C18F-5D75-4F12-A5E9-2E25CBCA3CBE";
paths = (
{
closed = 1;
nodes = (
"183 146 LINE",
"60 146 LINE",
"10 -147 LINE",
"99 -147 LINE"
);
}
);
width = 216;
}
);
unicode = 002C;
},
{
glyphname = hyphen;
layers = (
{
hints = (
{
horizontal = 1;
place = "{232, 107}";
type = Stem;
},
{
place = "{31, 290}";
type = Stem;
}
);
layerId = "8768C18F-5D75-4F12-A5E9-2E25CBCA3CBE";
paths = (
{
closed = 1;
nodes = (
"321 339 LINE",
"31 339 LINE",
"31 232 LINE",
"321 232 LINE"
);
}
);
width = 354;
}
);
unicode = 002D;
},
{
glyphname = period;
layers = (
{
hints = (
{
horizontal = 1;
place = "{-11, 153}";
type = Stem;
},
{
place = "{53, 154}";
type = Stem;
}
);
layerId = "8768C18F-5D75-4F12-A5E9-2E25CBCA3CBE";
paths = (
{
closed = 1;
nodes = (
"53 21 OFFCURVE",
"87 -11 OFFCURVE",
"130 -11 CURVE SMOOTH",
"173 -11 OFFCURVE",
"207 21 OFFCURVE",
"207 66 CURVE SMOOTH",
"207 111 OFFCURVE",
"173 142 OFFCURVE",
"130 142 CURVE SMOOTH",
"87 142 OFFCURVE",
"53 111 OFFCURVE",
"53 66 CURVE SMOOTH"
);
}
);
width = 242;
}
);
unicode = 002E;
},
{
glyphname = slash;
layers = (
{
hints = (
{
horizontal = 1;
place = "{-103, 891}";
type = Stem;
},
{
place = "{8, 531}";
type = Stem;
}
);
layerId = "8768C18F-5D75-4F12-A5E9-2E25CBCA3CBE";
paths = (
{
closed = 1;
nodes = (
"539 778 LINE",
"441 788 LINE",
"8 -94 LINE",
"104 -103 LINE"
);
}
);
width = 537;
}
);
unicode = 002F;
},
{
glyphname = zero;
layers = (
{
hints = (
{
horizontal = 1;
place = "{-14, 108}";
type = Stem;
},
{
horizontal = 1;
place = "{609, 108}";
type = Stem;
},
{
place = "{36, 123}";
type = Stem;
},
{
place = "{484, 123}";
type = Stem;
}
);
layerId = "8768C18F-5D75-4F12-A5E9-2E25CBCA3CBE";
paths = (
{
closed = 1;
nodes = (
"139 717 OFFCURVE",
"36 561 OFFCURVE",
"36 353 CURVE SMOOTH",
"36 137 OFFCURVE",
"139 -14 OFFCURVE",
"320 -14 CURVE SMOOTH",
"504 -14 OFFCURVE",
"607 144 OFFCURVE",
"607 352 CURVE SMOOTH",
"607 564 OFFCURVE",
"503 717 OFFCURVE",
"322 717 CURVE SMOOTH"
);
},
{
closed = 1;
nodes = (
"422 609 OFFCURVE",
"484 504 OFFCURVE",
"484 351 CURVE SMOOTH",
"484 202 OFFCURVE",
"425 94 OFFCURVE",
"322 94 CURVE SMOOTH",
"219 94 OFFCURVE",
"159 199 OFFCURVE",
"159 355 CURVE SMOOTH",
"159 503 OFFCURVE",
"219 609 OFFCURVE",
"320 609 CURVE SMOOTH"
);
}
);
width = 642;
}
);
unicode = 0030;
},
{
glyphname = one;
layers = (
{
hints = (
{
horizontal = 1;
place = "{0, 21}";
target = up;
type = BottomGhost;
},
{
horizontal = 1;
place = "{595, 112}";
type = Stem;
},
{
place = "{223, 120}";
type = Stem;
}
);
layerId = "8768C18F-5D75-4F12-A5E9-2E25CBCA3CBE";
paths = (
{
closed = 1;
nodes = (
"343 707 LINE",
"100 707 LINE",
"100 595 LINE",
"223 595 LINE",
"223 0 LINE",
"343 0 LINE"
);
}
);
width = 534;
}
);
unicode = 0031;
},
{
glyphname = two;
layers = (
{
hints = (
{
horizontal = 1;
place = "{0, 103}";
type = Stem;
},
{
horizontal = 1;
place = "{609, 107}";
type = Stem;
},
{
place = "{412, 125}";
type = Stem;
}
);
layerId = "8768C18F-5D75-4F12-A5E9-2E25CBCA3CBE";
paths = (
{
closed = 1;
nodes = (
"168 716 OFFCURVE",
"71 644 OFFCURVE",
"55 493 CURVE",
"176 493 LINE",
"184 565 OFFCURVE",
"232 609 OFFCURVE",
"304 609 CURVE SMOOTH",
"381 609 OFFCURVE",
"412 566 OFFCURVE",
"412 515 CURVE SMOOTH",
"412 466 OFFCURVE",
"381 405 OFFCURVE",
"308 316 CURVE SMOOTH",
"46 0 LINE",
"548 0 LINE",
"548 103 LINE",
"275 103 LINE",
"402 258 LINE SMOOTH",
"494 372 OFFCURVE",
"537 440 OFFCURVE",
"537 515 CURVE SMOOTH",
"537 631 OFFCURVE",
"440 716 OFFCURVE",
"305 716 CURVE SMOOTH"
);
}
);
width = 603;
}
);
unicode = 0032;
},
{
glyphname = three;
layers = (
{
hints = (
{
horizontal = 1;
place = "{-13, 106}";
type = Stem;
},
{
horizontal = 1;
place = "{350, 84}";
type = Stem;
},
{
horizontal = 1;
place = "{609, 103}";
type = Stem;
},
{
place = "{433, 120}";
type = Stem;
}
);
layerId = "8768C18F-5D75-4F12-A5E9-2E25CBCA3CBE";
paths = (
{
closed = 1;
nodes = (
"529 616 LINE",
"529 712 LINE",
"85 712 LINE",
"85 609 LINE",
"379 609 LINE",
"184 409 LINE",
"200 346 LINE",
"222 349 OFFCURVE",
"254 350 OFFCURVE",
"276 350 CURVE SMOOTH",
"367 350 OFFCURVE",
"433 314 OFFCURVE",
"433 222 CURVE SMOOTH",
"433 143 OFFCURVE",
"376 93 OFFCURVE",
"297 93 CURVE SMOOTH",
"221 93 OFFCURVE",
"169 134 OFFCURVE",
"133 210 CURVE",
"42 141 LINE",
"89 49 OFFCURVE",
"179 -13 OFFCURVE",
"300 -13 CURVE SMOOTH",
"449 -13 OFFCURVE",
"553 88 OFFCURVE",
"553 224 CURVE SMOOTH",
"553 352 OFFCURVE",
"462 426 OFFCURVE",
"343 434 CURVE"
);
}
);
width = 617;
}
);
unicode = 0033;
},
{
glyphname = four;
layers = (
{
hints = (
{
place = "{404, 117}";
type = Stem;
},
{
horizontal = 1;
place = "{0, 21}";
target = up;
type = BottomGhost;
},
{
horizontal = 1;
place = "{147, 97}";
type = Stem;
},
{
horizontal = 1;
place = "{584, 126}";
type = Stem;
},
{
horizontal = 1;
place = "{710, -20}";
target = down;
type = TopGhost;
}
);
layerId = "8768C18F-5D75-4F12-A5E9-2E25CBCA3CBE";
paths = (
{
closed = 1;
nodes = (
"371 710 LINE",
"20 244 LINE",
"41 147 LINE",
"404 147 LINE",
"404 0 LINE",
"521 0 LINE",
"521 147 LINE",
"616 147 LINE",
"616 244 LINE",
"521 244 LINE",
"521 710 LINE"
);
},
{
closed = 1;
nodes = (
"404 244 LINE",
"153 244 LINE",
"404 584 LINE"
);
}
);
width = 639;
}
);
unicode = 0034;
},
{
glyphname = five;
layers = (
{
hints = (
{
horizontal = 1;
place = "{-13, 105}";
type = Stem;
},
{
horizontal = 1;
place = "{351, 98}";
type = Stem;
},
{
horizontal = 1;
place = "{600, 103}";
type = Stem;
},
{
place = "{431, 120}";
type = Stem;
}
);
layerId = "8768C18F-5D75-4F12-A5E9-2E25CBCA3CBE";
paths = (
{
closed = 1;
nodes = (
"176 327 LINE",
"208 342 OFFCURVE",
"241 351 OFFCURVE",
"278 351 CURVE SMOOTH",
"366 351 OFFCURVE",
"431 300 OFFCURVE",
"431 224 CURVE SMOOTH",
"431 145 OFFCURVE",
"377 92 OFFCURVE",
"286 92 CURVE SMOOTH",
"221 92 OFFCURVE",
"166 120 OFFCURVE",
"114 168 CURVE",
"44 88 LINE",
"111 25 OFFCURVE",
"180 -13 OFFCURVE",
"287 -13 CURVE SMOOTH",
"444 -13 OFFCURVE",
"551 80 OFFCURVE",
"551 227 CURVE SMOOTH",
"551 368 OFFCURVE",
"441 449 OFFCURVE",
"310 449 CURVE SMOOTH",
"270 449 OFFCURVE",
"238 440 OFFCURVE",
"202 427 CURVE",
"218 600 LINE",
"521 600 LINE",
"525 703 LINE",
"122 703 LINE",
"94 369 LINE"
);
}
);
width = 614;
}
);
unicode = 0035;
},
{
glyphname = six;
layers = (
{
hints = (
{
horizontal = 1;
place = "{-14, 98}";
type = Stem;
},
{
horizontal = 1;
place = "{346, 92}";
type = Stem;
},
{
horizontal = 1;
place = "{706, -20}";
target = down;
type = TopGhost;
},
{
place = "{34, 123}";
type = Stem;
},
{
place = "{433, 121}";
type = Stem;
}
);
layerId = "8768C18F-5D75-4F12-A5E9-2E25CBCA3CBE";
paths = (
{
closed = 1;
nodes = (
"299 706 LINE",
"142 470 LINE SMOOTH",
"66 357 OFFCURVE",
"34 295 OFFCURVE",
"34 223 CURVE SMOOTH",
"34 78 OFFCURVE",
"146 -14 OFFCURVE",
"298 -14 CURVE SMOOTH",
"443 -14 OFFCURVE",
"554 82 OFFCURVE",
"554 223 CURVE SMOOTH",
"554 357 OFFCURVE",
"461 438 OFFCURVE",
"338 438 CURVE SMOOTH",
"288 438 OFFCURVE",
"259 430 OFFCURVE",
"222 404 CURVE",
"430 706 LINE"
);
},
{
closed = 1;
nodes = (
"157 288 OFFCURVE",
"211 346 OFFCURVE",
"296 346 CURVE SMOOTH",
"379 346 OFFCURVE",
"433 293 OFFCURVE",
"433 218 CURVE SMOOTH",
"433 141 OFFCURVE",
"378 84 OFFCURVE",
"296 84 CURVE SMOOTH",
"217 84 OFFCURVE",
"157 143 OFFCURVE",
"157 216 CURVE SMOOTH"
);
}
);
width = 585;
}
);
unicode = 0036;
},
{
glyphname = seven;
layers = (
{
hints = (
{
horizontal = 1;
place = "{0, 21}";
target = up;
type = BottomGhost;
},
{
horizontal = 1;
place = "{599, 104}";
type = Stem;
},
{
place = "{56, 499}";
type = Stem;
}
);
layerId = "8768C18F-5D75-4F12-A5E9-2E25CBCA3CBE";
paths = (
{
closed = 1;
nodes = (
"555 604 LINE",
"555 703 LINE",
"56 703 LINE",
"56 599 LINE",
"424 599 LINE",
"92 0 LINE",
"225 0 LINE"
);
}
);
width = 603;
}
);
unicode = 0037;
},
{
glyphname = eight;
layers = (
{
hints = (
{
place = "{36, 120}";
type = Stem;
},
{
place = "{62, 115}";
type = Stem;
},
{
place = "{418, 115}";
type = Stem;
},
{
place = "{439, 119}";
type = Stem;
},
{
horizontal = 1;
place = "{-12, 96}";
type = Stem;
},
{
horizontal = 1;
place = "{317, 90}";
type = Stem;
},
{
horizontal = 1;
place = "{620, 96}";
type = Stem;
}
);
layerId = "8768C18F-5D75-4F12-A5E9-2E25CBCA3CBE";
paths = (
{
closed = 1;
nodes = (
"533 636 OFFCURVE",
"428 716 OFFCURVE",
"297 716 CURVE SMOOTH",
"165 716 OFFCURVE",
"62 635 OFFCURVE",
"62 526 CURVE SMOOTH",
"62 453 OFFCURVE",
"103 399 OFFCURVE",
"168 368 CURVE",
"84 332 OFFCURVE",
"36 273 OFFCURVE",
"36 192 CURVE SMOOTH",
"36 75 OFFCURVE",
"147 -12 OFFCURVE",
"297 -12 CURVE SMOOTH",
"447 -12 OFFCURVE",
"558 69 OFFCURVE",
"558 193 CURVE SMOOTH",
"558 274 OFFCURVE",
"509 334 OFFCURVE",
"426 367 CURVE",
"490 400 OFFCURVE",
"533 449 OFFCURVE",
"533 524 CURVE SMOOTH"
);
},
{
closed = 1;
nodes = (
"177 575 OFFCURVE",
"228 620 OFFCURVE",
"297 620 CURVE SMOOTH",
"367 620 OFFCURVE",
"418 575 OFFCURVE",
"418 515 CURVE SMOOTH",
"418 453 OFFCURVE",
"366 407 OFFCURVE",
"297 407 CURVE SMOOTH",
"230 407 OFFCURVE",
"177 455 OFFCURVE",
"177 515 CURVE SMOOTH"
);
},
{
closed = 1;
nodes = (
"156 270 OFFCURVE",
"215 317 OFFCURVE",
"297 317 CURVE SMOOTH",
"380 317 OFFCURVE",
"439 270 OFFCURVE",
"439 202 CURVE SMOOTH",
"439 138 OFFCURVE",
"383 84 OFFCURVE",
"297 84 CURVE SMOOTH",
"210 84 OFFCURVE",
"156 138 OFFCURVE",
"156 202 CURVE SMOOTH"
);
}
);
width = 594;
}
);
unicode = 0038;
},
{
glyphname = nine;
layers = (
{
hints = (
{
horizontal = 1;
place = "{-1, 21}";
target = up;
type = BottomGhost;
},
{
horizontal = 1;
place = "{264, 95}";
type = Stem;
},
{
horizontal = 1;
place = "{621, 99}";
type = Stem;
},
{
place = "{38, 120}";
type = Stem;
},
{
place = "{434, 123}";
type = Stem;
}
);
layerId = "8768C18F-5D75-4F12-A5E9-2E25CBCA3CBE";
paths = (
{
closed = 1;
nodes = (
"292 -1 LINE",
"465 258 LINE SMOOTH",
"518 337 OFFCURVE",
"557 405 OFFCURVE",
"557 481 CURVE SMOOTH",
"557 625 OFFCURVE",
"448 720 OFFCURVE",
"291 720 CURVE SMOOTH",
"149 720 OFFCURVE",
"38 622 OFFCURVE",
"38 483 CURVE SMOOTH",
"38 350 OFFCURVE",
"132 264 OFFCURVE",
"255 264 CURVE SMOOTH",
"303 264 OFFCURVE",
"332 274 OFFCURVE",
"368 301 CURVE",
"162 -1 LINE"
);
},
{
closed = 1;
nodes = (
"434 418 OFFCURVE",
"378 359 OFFCURVE",
"296 359 CURVE SMOOTH",
"213 359 OFFCURVE",
"158 415 OFFCURVE",
"158 489 CURVE SMOOTH",
"158 563 OFFCURVE",
"213 621 OFFCURVE",
"294 621 CURVE SMOOTH",
"374 621 OFFCURVE",
"434 563 OFFCURVE",
"434 489 CURVE SMOOTH"
);
}
);
width = 592;
}
);
unicode = 0039;
},
{
glyphname = colon;
layers = (
{
hints = (
{
horizontal = 1;
place = "{-11, 154}";
type = Stem;
},
{
horizontal = 1;
place = "{358, 153}";
type = Stem;
},
{
place = "{53, 155}";
type = Stem;
}
);
layerId = "8768C18F-5D75-4F12-A5E9-2E25CBCA3CBE";
paths = (
{
closed = 1;
nodes = (
"53 388 OFFCURVE",
"86 358 OFFCURVE",
"131 358 CURVE SMOOTH",
"174 358 OFFCURVE",
"208 388 OFFCURVE",
"208 435 CURVE SMOOTH",
"208 482 OFFCURVE",
"174 511 OFFCURVE",
"131 511 CURVE SMOOTH",
"86 511 OFFCURVE",
"53 482 OFFCURVE",
"53 435 CURVE SMOOTH"
);
},
{
closed = 1;
nodes = (
"53 21 OFFCURVE",
"86 -11 OFFCURVE",
"131 -11 CURVE SMOOTH",
"174 -11 OFFCURVE",
"208 21 OFFCURVE",
"208 66 CURVE SMOOTH",
"208 113 OFFCURVE",
"174 143 OFFCURVE",
"131 143 CURVE SMOOTH",
"86 143 OFFCURVE",
"53 113 OFFCURVE",
"53 66 CURVE SMOOTH"
);
}
);
width = 244;
}
);
unicode = 003A;
},
{
glyphname = semicolon;
layers = (
{
hints = (
{
horizontal = 1;
place = "{358, 153}";
type = Stem;
},
{
place = "{37, 156}";
type = Stem;
}
);
layerId = "8768C18F-5D75-4F12-A5E9-2E25CBCA3CBE";
paths = (
{
closed = 1;
nodes = (
"37 388 OFFCURVE",
"71 358 OFFCURVE",
"115 358 CURVE SMOOTH",
"158 358 OFFCURVE",
"193 388 OFFCURVE",
"193 435 CURVE SMOOTH",
"193 482 OFFCURVE",
"158 511 OFFCURVE",
"115 511 CURVE SMOOTH",
"71 511 OFFCURVE",
"37 482 OFFCURVE",
"37 435 CURVE SMOOTH"
);
},
{
closed = 1;
nodes = (
"184 146 LINE",
"60 146 LINE",
"11 -147 LINE",
"101 -147 LINE"
);
}
);
width = 222;
}
);
unicode = 003B;
},
{
glyphname = less;
layers = (
{
hints = (
{
horizontal = 1;
place = "{74, 543}";
type = Stem;
},
{
place = "{65, 117}";
type = Stem;
}
);
layerId = "8768C18F-5D75-4F12-A5E9-2E25CBCA3CBE";
paths = (
{
closed = 1;
nodes = (
"549 617 LINE",
"65 399 LINE",
"65 292 LINE",
"549 74 LINE",
"549 186 LINE",
"182 346 LINE",
"549 504 LINE"
);
}
);
width = 614;
}
);
unicode = 003C;
},
{
glyphname = equal;
layers = (
{
hints = (
{
horizontal = 1;
place = "{175, 106}";
type = Stem;
},
{
horizontal = 1;
place = "{426, 106}";
type = Stem;
},
{
place = "{42, 480}";
type = Stem;
}
);
layerId = "8768C18F-5D75-4F12-A5E9-2E25CBCA3CBE";
paths = (
{
closed = 1;
nodes = (
"42 532 LINE",
"42 426 LINE",
"522 426 LINE",
"522 532 LINE"
);
},
{
closed = 1;
nodes = (
"42 281 LINE",
"42 175 LINE",
"522 175 LINE",
"522 281 LINE"
);
}
);
width = 564;
}
);
unicode = 003D;
},
{
glyphname = greater;
layers = (
{
hints = (
{
horizontal = 1;
place = "{75, 542}";
type = Stem;
},
{
place = "{65, 484}";
type = Stem;
}
);
layerId = "8768C18F-5D75-4F12-A5E9-2E25CBCA3CBE";
paths = (
{
closed = 1;
nodes = (
"65 503 LINE",
"431 345 LINE",
"65 187 LINE",
"65 75 LINE",
"549 292 LINE",
"549 399 LINE",
"65 617 LINE"
);
}
);
width = 613;
}
);
unicode = 003E;
},
{
glyphname = question;
layers = (
{
hints = (
{
place = "{136, 153}";
type = Stem;
},
{
place = "{150, 113}";
type = Stem;
},
{
place = "{306, 118}";
type = Stem;
},
{
horizontal = 1;
place = "{-10, 143}";
type = Stem;
},
{
horizontal = 1;
place = "{610, 104}";
type = Stem;
}
);
layerId = "8768C18F-5D75-4F12-A5E9-2E25CBCA3CBE";
paths = (
{
closed = 1;
nodes = (
"270 610 OFFCURVE",
"306 571 OFFCURVE",
"306 527 CURVE SMOOTH",
"306 486 OFFCURVE",
"275 454 OFFCURVE",
"242 425 CURVE SMOOTH",
"197 385 OFFCURVE",
"150 340 OFFCURVE",
"150 255 CURVE SMOOTH",
"150 199 LINE",
"263 199 LINE",
"263 231 LINE SMOOTH",
"263 292 OFFCURVE",
"281 318 OFFCURVE",
"327 358 CURVE",
"383 403 OFFCURVE",
"424 457 OFFCURVE",
"424 536 CURVE SMOOTH",
"424 645 OFFCURVE",
"341 714 OFFCURVE",
"228 714 CURVE SMOOTH",
"155 714 OFFCURVE",
"89 686 OFFCURVE",
"52 637 CURVE",
"52 520 LINE",
"97 578 OFFCURVE",
"154 610 OFFCURVE",
"209 610 CURVE SMOOTH"
);
},
{
closed = 1;
nodes = (
"136 16 OFFCURVE",
"171 -10 OFFCURVE",
"212 -10 CURVE SMOOTH",
"255 -10 OFFCURVE",
"289 16 OFFCURVE",
"289 61 CURVE SMOOTH",
"289 104 OFFCURVE",
"255 133 OFFCURVE",
"212 133 CURVE SMOOTH",
"171 133 OFFCURVE",
"136 104 OFFCURVE",
"136 61 CURVE SMOOTH"
);
}
);
width = 468;
}
);
unicode = 003F;
},
{
glyphname = at;
layers = (
{
hints = (
{
place = "{49, 52}";
type = Stem;
},
{
place = "{231, 105}";
type = Stem;
},
{
place = "{559, 91}";
type = Stem;
},
{
place = "{826, 50}";
type = Stem;
},
{
horizontal = 1;
place = "{-116, 46}";
type = Stem;
},
{
horizontal = 1;
place = "{92, 54}";
type = Stem;
},
{
horizontal = 1;
place = "{94, 87}";
type = Stem;
},
{
horizontal = 1;
place = "{433, 90}";
type = Stem;
},
{
horizontal = 1;
place = "{510, -20}";
target = down;
type = TopGhost;
},
{
horizontal = 1;
place = "{672, 45}";
type = Stem;
}
);
layerId = "8768C18F-5D75-4F12-A5E9-2E25CBCA3CBE";
paths = (
{
closed = 1;
nodes = (
"725 -1 LINE",
"649 -49 OFFCURVE",
"575 -70 OFFCURVE",
"482 -70 CURVE SMOOTH",
"252 -70 OFFCURVE",
"101 88 OFFCURVE",
"101 299 CURVE SMOOTH",
"101 509 OFFCURVE",
"256 672 OFFCURVE",
"470 672 CURVE SMOOTH",
"677 672 OFFCURVE",
"826 527 OFFCURVE",
"826 339 CURVE SMOOTH",
"826 220 OFFCURVE",
"774 146 OFFCURVE",
"711 146 CURVE SMOOTH",
"664 146 OFFCURVE",
"650 190 OFFCURVE",
"650 225 CURVE SMOOTH",
"650 234 LINE",
"690 498 LINE",
"592 510 LINE",
"581 446 LINE",
"556 489 OFFCURVE",
"516 523 OFFCURVE",
"448 523 CURVE SMOOTH",
"330 523 OFFCURVE",
"231 414 OFFCURVE",
"231 284 CURVE SMOOTH",
"231 169 OFFCURVE",
"307 94 OFFCURVE",
"408 94 CURVE SMOOTH",
"475 94 OFFCURVE",
"522 127 OFFCURVE",
"557 174 CURVE",
"578 122 OFFCURVE",
"615 92 OFFCURVE",
"683 92 CURVE SMOOTH",
"787 92 OFFCURVE",
"876 181 OFFCURVE",
"876 346 CURVE SMOOTH",
"876 553 OFFCURVE",
"698 717 OFFCURVE",
"471 717 CURVE SMOOTH",
"232 717 OFFCURVE",
"49 531 OFFCURVE",
"49 298 CURVE SMOOTH",
"49 66 OFFCURVE",
"228 -116 OFFCURVE",
"476 -116 CURVE SMOOTH",
"580 -116 OFFCURVE",
"668 -86 OFFCURVE",
"748 -34 CURVE"
);
},
{
closed = 1;
nodes = (
"522 433 OFFCURVE",
"559 390 OFFCURVE",
"559 329 CURVE SMOOTH",
"559 253 OFFCURVE",
"503 181 OFFCURVE",
"431 181 CURVE SMOOTH",
"374 181 OFFCURVE",
"336 225 OFFCURVE",
"336 290 CURVE SMOOTH",
"336 369 OFFCURVE",
"392 433 OFFCURVE",
"463 433 CURVE SMOOTH"
);
}
);
width = 918;
}
);
unicode = 0040;
},
{
glyphname = A;
layers = (
{
hints = (
{
horizontal = 1;
place = "{0, 21}";
target = up;
type = BottomGhost;
},
{
horizontal = 1;
place = "{173, 100}";
type = Stem;
},
{
horizontal = 1;
place = "{705, -20}";
target = down;
type = TopGhost;
},
{
place = "{22, 719}";
type = Stem;
}
);
layerId = "8768C18F-5D75-4F12-A5E9-2E25CBCA3CBE";
paths = (
{
closed = 1;
nodes = (
"537 173 LINE",
"610 0 LINE",
"741 0 LINE",
"436 705 LINE",
"327 705 LINE",
"22 0 LINE",
"151 0 LINE",
"224 173 LINE"
);
},
{
closed = 1;
nodes = (
"381 562 LINE",
"497 273 LINE",
"265 273 LINE"
);
}
);
width = 766;
}
);
unicode = 0041;
},
{
glyphname = B;
layers = (
{
hints = (
{
place = "{75, 119}";
type = Stem;
},
{
place = "{451, 120}";
type = Stem;
},
{
place = "{504, 120}";
type = Stem;
},
{
horizontal = 1;
place = "{0, 101}";
type = Stem;
},
{
horizontal = 1;
place = "{310, 94}";
type = Stem;
},
{
horizontal = 1;
place = "{602, 101}";
type = Stem;
}
);
layerId = "8768C18F-5D75-4F12-A5E9-2E25CBCA3CBE";
paths = (
{
closed = 1;
nodes = (
"75 0 LINE",
"347 0 LINE SMOOTH",
"540 0 OFFCURVE",
"624 85 OFFCURVE",
"624 194 CURVE SMOOTH",
"624 283 OFFCURVE",
"574 347 OFFCURVE",
"467 366 CURVE",
"534 391 OFFCURVE",
"571 449 OFFCURVE",
"571 526 CURVE SMOOTH",
"571 651 OFFCURVE",
"460 703 OFFCURVE",
"328 703 CURVE SMOOTH",
"75 703 LINE"
);
},
{
closed = 1;
nodes = (
"194 602 LINE",
"320 602 LINE SMOOTH",
"401 602 OFFCURVE",
"451 570 OFFCURVE",
"451 505 CURVE SMOOTH",
"451 446 OFFCURVE",
"408 404 OFFCURVE",
"319 404 CURVE SMOOTH",
"194 404 LINE"
);
},
{
closed = 1;
nodes = (
"194 310 LINE",
"327 310 LINE SMOOTH",
"454 310 OFFCURVE",
"504 272 OFFCURVE",
"504 206 CURVE SMOOTH",
"504 139 OFFCURVE",
"454 101 OFFCURVE",
"350 101 CURVE SMOOTH",
"194 101 LINE"
);
}
);
width = 666;
}
);
unicode = 0042;
},
{
glyphname = C;
layers = (
{
hints = (
{
horizontal = 1;
place = "{-14, 110}";
type = Stem;
},
{
horizontal = 1;
place = "{608, 109}";
type = Stem;
},
{
place = "{37, 125}";
type = Stem;
}
);
layerId = "8768C18F-5D75-4F12-A5E9-2E25CBCA3CBE";
paths = (
{
closed = 1;
nodes = (
"630 199 LINE",
"563 143 OFFCURVE",
"499 96 OFFCURVE",
"406 96 CURVE SMOOTH",
"259 96 OFFCURVE",
"162 211 OFFCURVE",
"162 352 CURVE SMOOTH",
"162 492 OFFCURVE",
"259 608 OFFCURVE",
"406 608 CURVE SMOOTH",
"505 608 OFFCURVE",
"570 571 OFFCURVE",
"619 516 CURVE",
"619 646 LINE",
"562 689 OFFCURVE",
"495 717 OFFCURVE",
"403 717 CURVE SMOOTH",
"193 717 OFFCURVE",
"37 557 OFFCURVE",
"37 351 CURVE SMOOTH",
"37 143 OFFCURVE",
"195 -14 OFFCURVE",
"398 -14 CURVE SMOOTH",
"494 -14 OFFCURVE",
"565 18 OFFCURVE",
"630 70 CURVE"
);
}
);
width = 661;
}
);
unicode = 0043;
},
{
glyphname = D;
layers = (
{
hints = (
{
horizontal = 1;
place = "{0, 108}";
type = Stem;
},
{
horizontal = 1;
place = "{595, 108}";
type = Stem;
},
{
place = "{75, 121}";
type = Stem;
},
{
place = "{568, 127}";
type = Stem;
}
);
layerId = "8768C18F-5D75-4F12-A5E9-2E25CBCA3CBE";
paths = (
{
closed = 1;
nodes = (
"75 0 LINE",
"310 0 LINE SMOOTH",
"546 0 OFFCURVE",
"695 149 OFFCURVE",
"695 353 CURVE SMOOTH",
"695 564 OFFCURVE",
"539 703 OFFCURVE",
"312 703 CURVE SMOOTH",
"75 703 LINE"
);
},
{
closed = 1;
nodes = (
"196 595 LINE",
"342 595 LINE SMOOTH",
"486 595 OFFCURVE",
"568 476 OFFCURVE",
"568 351 CURVE SMOOTH",
"568 206 OFFCURVE",
"475 108 OFFCURVE",
"310 108 CURVE SMOOTH",
"196 108 LINE"
);
}
);
width = 733;
}
);
unicode = 0044;
},
{
glyphname = E;
layers = (
{
hints = (
{
horizontal = 1;
place = "{0, 106}";
type = Stem;
},
{
horizontal = 1;
place = "{306, 102}";
type = Stem;
},
{
horizontal = 1;
place = "{598, 105}";
type = Stem;
},
{
place = "{75, 121}";
type = Stem;
}
);
layerId = "8768C18F-5D75-4F12-A5E9-2E25CBCA3CBE";
paths = (
{
closed = 1;
nodes = (
"196 306 LINE",
"538 306 LINE",
"538 408 LINE",
"196 408 LINE",
"196 598 LINE",
"569 598 LINE",
"569 703 LINE",
"75 703 LINE",
"75 0 LINE",
"578 0 LINE",
"578 106 LINE",
"196 106 LINE"
);
}
);
width = 617;
}
);
unicode = 0045;
},
{
glyphname = F;
layers = (
{
hints = (
{
horizontal = 1;
place = "{-1, 21}";
target = up;
type = BottomGhost;
},
{
horizontal = 1;
place = "{292, 104}";
type = Stem;
},
{
horizontal = 1;
place = "{596, 107}";
type = Stem;
},
{
place = "{75, 121}";
type = Stem;
}
);
layerId = "8768C18F-5D75-4F12-A5E9-2E25CBCA3CBE";
paths = (
{
closed = 1;
nodes = (
"196 292 LINE",
"534 292 LINE",
"534 396 LINE",
"196 396 LINE",
"196 596 LINE",
"566 596 LINE",
"566 703 LINE",
"75 703 LINE",
"75 -1 LINE",
"196 -1 LINE"
);
}
);
width = 617;
}
);
unicode = 0046;
},
{
glyphname = G;
layers = (
{
hints = (
{
horizontal = 1;
place = "{-15, 107}";
type = Stem;
},
{
horizontal = 1;
place = "{303, 99}";
type = Stem;
},
{
horizontal = 1;
place = "{609, 108}";
type = Stem;
},
{
place = "{37, 123}";
type = Stem;
},
{
place = "{450, 184}";
type = Stem;
},
{
place = "{637, 115}";
type = Stem;
}
);
layerId = "8768C18F-5D75-4F12-A5E9-2E25CBCA3CBE";
paths = (
{
closed = 1;
nodes = (
"637 303 LINE",
"637 171 OFFCURVE",
"532 92 OFFCURVE",
"410 92 CURVE SMOOTH",
"270 92 OFFCURVE",
"160 203 OFFCURVE",
"160 351 CURVE SMOOTH",
"160 492 OFFCURVE",
"280 609 OFFCURVE",
"425 609 CURVE SMOOTH",
"512 609 OFFCURVE",
"583 575 OFFCURVE",
"634 527 CURVE",
"634 658 LINE",
"570 699 OFFCURVE",
"493 717 OFFCURVE",
"418 717 CURVE SMOOTH",
"205 717 OFFCURVE",
"37 557 OFFCURVE",
"37 351 CURVE SMOOTH",
"37 145 OFFCURVE",
"195 -15 OFFCURVE",
"403 -15 CURVE SMOOTH",
"620 -15 OFFCURVE",
"752 130 OFFCURVE",
"752 372 CURVE SMOOTH",
"752 402 LINE",
"450 402 LINE",
"450 303 LINE"
);
}
);
width = 809;
}
);
unicode = 0047;
},
{
glyphname = H;
layers = (
{
hints = (
{
horizontal = 1;
place = "{0, 21}";
target = up;
type = BottomGhost;
},
{
horizontal = 1;
place = "{302, 109}";
type = Stem;
},
{
horizontal = 1;
place = "{704, -20}";
target = down;
type = TopGhost;
},
{
place = "{75, 121}";
type = Stem;
},
{
place = "{533, 121}";
type = Stem;
}
);
layerId = "8768C18F-5D75-4F12-A5E9-2E25CBCA3CBE";
paths = (
{
closed = 1;
nodes = (
"75 0 LINE",
"196 0 LINE",
"196 302 LINE",
"533 302 LINE",
"533 0 LINE",
"654 0 LINE",
"654 704 LINE",
"533 704 LINE",
"533 411 LINE",
"196 411 LINE",
"196 704 LINE",
"75 704 LINE"
);
}
);
width = 728;
}
);
unicode = 0048;
},
{
glyphname = I;
layers = (
{
hints = (
{
horizontal = 1;
place = "{0, 21}";
target = up;
type = BottomGhost;
},
{
horizontal = 1;
place = "{703, -20}";
target = down;
type = TopGhost;
},
{
place = "{75, 121}";
type = Stem;
}
);
layerId = "8768C18F-5D75-4F12-A5E9-2E25CBCA3CBE";
paths = (
{
closed = 1;
nodes = (
"196 703 LINE",
"75 703 LINE",
"75 0 LINE",
"196 0 LINE"
);
}
);
width = 270;
}
);
unicode = 0049;
},
{
glyphname = J;
layers = (
{
hints = (
{
horizontal = 1;
place = "{-11, 107}";
type = Stem;
},
{
horizontal = 1;
place = "{703, -20}";
target = down;
type = TopGhost;
},
{
place = "{218, 122}";
type = Stem;
}
);
layerId = "8768C18F-5D75-4F12-A5E9-2E25CBCA3CBE";
paths = (
{
closed = 1;
nodes = (
"2 28 LINE",
"22 15 OFFCURVE",
"44 4 OFFCURVE",
"69 -3 CURVE SMOOTH",
"81 -7 OFFCURVE",
"92 -9 OFFCURVE",
"104 -10 CURVE SMOOTH",
"111 -11 OFFCURVE",
"116 -11 OFFCURVE",
"123 -11 CURVE",
"125 -11 LINE",
"130 -11 LINE SMOOTH",
"258 -11 OFFCURVE",
"334 67 OFFCURVE",
"339 211 CURVE",
"339 224 OFFCURVE",
"340 240 OFFCURVE",
"340 257 CURVE SMOOTH",
"340 703 LINE",
"218 703 LINE",
"218 224 LINE SMOOTH",
"218 132 OFFCURVE",
"182 96 OFFCURVE",
"123 96 CURVE SMOOTH",
"102 96 OFFCURVE",
"82 100 OFFCURVE",
"63 108 CURVE SMOOTH",
"40 117 OFFCURVE",
"21 131 OFFCURVE",
"2 146 CURVE"
);
}
);
width = 408;
}
);
unicode = 004A;
},
{
glyphname = K;
layers = (
{
hints = (
{
horizontal = 1;
place = "{0, 21}";
target = up;
type = BottomGhost;
},
{
horizontal = 1;
place = "{703, -20}";
target = down;
type = TopGhost;
},
{
place = "{75, 121}";
type = Stem;
}
);
layerId = "8768C18F-5D75-4F12-A5E9-2E25CBCA3CBE";
paths = (
{
closed = 1;
nodes = (
"196 703 LINE",
"75 703 LINE",
"75 0 LINE",
"196 0 LINE",
"196 343 LINE",
"475 0 LINE",
"624 0 LINE",
"312 383 LINE",
"603 703 LINE",
"454 703 LINE",
"196 411 LINE"
);
}
);
width = 618;
}
);
unicode = 004B;
},
{
glyphname = L;
layers = (
{
hints = (
{
horizontal = 1;
place = "{0, 107}";
type = Stem;
},
{
horizontal = 1;
place = "{703, -20}";
target = down;
type = TopGhost;
},
{
place = "{75, 121}";
type = Stem;
}
);
layerId = "8768C18F-5D75-4F12-A5E9-2E25CBCA3CBE";
paths = (
{
closed = 1;
nodes = (
"196 703 LINE",
"75 703 LINE",
"75 0 LINE",
"539 0 LINE",
"539 107 LINE",
"196 107 LINE"
);
}
);
width = 563;
}
);
unicode = 004C;
},
{
glyphname = M;
layers = (
{
hints = (
{
horizontal = 1;
place = "{0, 21}";
target = up;
type = BottomGhost;
},
{
place = "{57, 120}";
type = Stem;
},
{
place = "{661, 120}";
type = Stem;
}
);
layerId = "8768C18F-5D75-4F12-A5E9-2E25CBCA3CBE";
paths = (
{
closed = 1;
nodes = (
"419 145 LINE",
"661 511 LINE",
"661 0 LINE",
"781 0 LINE",
"781 700 LINE",
"658 700 LINE",
"419 329 LINE",
"180 700 LINE",
"57 700 LINE",
"57 0 LINE",
"177 0 LINE",
"177 510 LINE"
);
}
);
width = 839;
}
);
unicode = 004D;
},
{
glyphname = N;
layers = (
{
hints = (
{
horizontal = 1;
place = "{0, 21}";
target = up;
type = BottomGhost;
},
{
horizontal = 1;
place = "{703, -20}";
target = down;
type = TopGhost;
},
{
place = "{75, 119}";
type = Stem;
},
{
place = "{567, 119}";
type = Stem;
}
);
layerId = "8768C18F-5D75-4F12-A5E9-2E25CBCA3CBE";
paths = (
{
closed = 1;
nodes = (
"192 700 LINE",
"75 700 LINE",
"75 0 LINE",
"194 0 LINE",
"194 513 LINE",
"573 0 LINE",
"686 0 LINE",
"686 703 LINE",
"567 703 LINE",
"567 194 LINE"
);
}
);
width = 761;
}
);
unicode = 004E;
},
{
glyphname = O;
layers = (
{
hints = (
{
horizontal = 1;
place = "{-14, 110}";
type = Stem;
},
{
horizontal = 1;
place = "{608, 109}";
type = Stem;
},
{
place = "{37, 125}";
type = Stem;
},
{
place = "{652, 124}";
type = Stem;
}
);
layerId = "8768C18F-5D75-4F12-A5E9-2E25CBCA3CBE";
paths = (
{
closed = 1;
nodes = (
"776 553 OFFCURVE",
"621 717 OFFCURVE",
"408 717 CURVE SMOOTH",
"195 717 OFFCURVE",
"37 555 OFFCURVE",
"37 351 CURVE SMOOTH",
"37 148 OFFCURVE",
"192 -14 OFFCURVE",
"407 -14 CURVE SMOOTH",
"619 -14 OFFCURVE",
"776 152 OFFCURVE",
"776 353 CURVE SMOOTH"
);
},
{
closed = 1;
nodes = (
"652 210 OFFCURVE",
"550 96 OFFCURVE",
"408 96 CURVE SMOOTH",
"262 96 OFFCURVE",
"162 211 OFFCURVE",
"162 353 CURVE SMOOTH",
"162 494 OFFCURVE",
"262 608 OFFCURVE",
"407 608 CURVE SMOOTH",
"551 608 OFFCURVE",
"652 491 OFFCURVE",
"652 350 CURVE SMOOTH"
);
}
);
width = 814;
}
);
unicode = 004F;
},
{
glyphname = P;
layers = (
{
hints = (
{
horizontal = 1;
place = "{-1, 21}";
target = up;
type = BottomGhost;
},
{
horizontal = 1;
place = "{253, 101}";
type = Stem;
},
{
horizontal = 1;
place = "{598, 105}";
type = Stem;
},
{
place = "{75, 122}";
type = Stem;
},
{
place = "{469, 122}";
type = Stem;
}
);
layerId = "8768C18F-5D75-4F12-A5E9-2E25CBCA3CBE";
paths = (
{
closed = 1;
nodes = (
"75 -1 LINE",
"197 -1 LINE",
"197 253 LINE",
"318 253 LINE SMOOTH",
"473 253 OFFCURVE",
"591 335 OFFCURVE",
"591 483 CURVE SMOOTH",
"591 623 OFFCURVE",
"486 703 OFFCURVE",
"326 703 CURVE SMOOTH",
"75 703 LINE"
);
},
{
closed = 1;
nodes = (
"197 598 LINE",
"317 598 LINE SMOOTH",
"413 598 OFFCURVE",
"469 557 OFFCURVE",
"469 477 CURVE SMOOTH",
"469 401 OFFCURVE",
"412 354 OFFCURVE",
"316 354 CURVE SMOOTH",
"197 354 LINE"
);
}
);
width = 629;
}
);
unicode = 0050;
},
{
glyphname = Q;
layers = (
{
hints = (
{
horizontal = 1;
place = "{-14, 110}";
type = Stem;
},
{
horizontal = 1;
place = "{608, 109}";
type = Stem;
},
{
place = "{37, 125}";
type = Stem;
},
{
place = "{652, 124}";
type = Stem;
}
);
layerId = "8768C18F-5D75-4F12-A5E9-2E25CBCA3CBE";
paths = (
{
closed = 1;
nodes = (
"793 -102 LINE",
"793 37 LINE",
"694 124 LINE",
"747 187 OFFCURVE",
"776 261 OFFCURVE",
"776 353 CURVE SMOOTH",
"776 553 OFFCURVE",
"621 717 OFFCURVE",
"408 717 CURVE SMOOTH",
"195 717 OFFCURVE",
"37 554 OFFCURVE",
"37 350 CURVE SMOOTH",
"37 149 OFFCURVE",
"192 -14 OFFCURVE",
"407 -14 CURVE SMOOTH",
"486 -14 OFFCURVE",
"559 11 OFFCURVE",
"615 48 CURVE"
);
},
{
closed = 1;
nodes = (
"652 210 OFFCURVE",
"550 96 OFFCURVE",
"408 96 CURVE SMOOTH",
"262 96 OFFCURVE",
"162 209 OFFCURVE",
"162 353 CURVE SMOOTH",
"162 493 OFFCURVE",
"262 608 OFFCURVE",
"407 608 CURVE SMOOTH",
"551 608 OFFCURVE",
"652 491 OFFCURVE",
"652 350 CURVE SMOOTH"
);
}
);
width = 829;
}
);
unicode = 0051;
},
{
glyphname = R;
layers = (
{
hints = (
{
horizontal = 1;
place = "{0, 21}";
target = up;
type = BottomGhost;
},
{
horizontal = 1;
place = "{270, 97}";
type = Stem;
},
{
horizontal = 1;
place = "{597, 106}";
type = Stem;
},
{
place = "{75, 122}";
type = Stem;
},
{
place = "{468, 123}";
type = Stem;
}
);
layerId = "8768C18F-5D75-4F12-A5E9-2E25CBCA3CBE";
paths = (
{
closed = 1;
nodes = (
"197 0 LINE",
"197 270 LINE",
"286 270 LINE",
"478 0 LINE",
"622 0 LINE",
"413 284 LINE",
"521 309 OFFCURVE",
"591 381 OFFCURVE",
"591 489 CURVE SMOOTH",
"591 618 OFFCURVE",
"493 703 OFFCURVE",
"331 703 CURVE SMOOTH",
"75 703 LINE",
"75 0 LINE"
);
},
{
closed = 1;
nodes = (
"197 367 LINE",
"197 597 LINE",
"321 597 LINE SMOOTH",
"414 597 OFFCURVE",
"468 562 OFFCURVE",
"468 483 CURVE SMOOTH",
"468 402 OFFCURVE",
"403 367 OFFCURVE",
"310 367 CURVE SMOOTH"
);
}
);
width = 644;
}
);
unicode = 0052;
},
{
glyphname = S;
layers = (
{
hints = (
{
horizontal = 1;
place = "{-12, 104}";
type = Stem;
},
{
horizontal = 1;
place = "{614, 102}";
type = Stem;
},
{
place = "{64, 123}";
type = Stem;
},
{
place = "{432, 122}";
type = Stem;
}
);
layerId = "8768C18F-5D75-4F12-A5E9-2E25CBCA3CBE";
paths = (
{
closed = 1;
nodes = (
"217 92 OFFCURVE",
"124 126 OFFCURVE",
"43 202 CURVE",
"43 82 LINE",
"115 14 OFFCURVE",
"204 -12 OFFCURVE",
"299 -12 CURVE SMOOTH",
"429 -12 OFFCURVE",
"549 46 OFFCURVE",
"554 179 CURVE",
"554 188 LINE SMOOTH",
"554 299 OFFCURVE",
"469 362 OFFCURVE",
"374 401 CURVE SMOOTH",
"279 440 OFFCURVE",
"187 472 OFFCURVE",
"187 537 CURVE SMOOTH",
"187 584 OFFCURVE",
"233 614 OFFCURVE",
"305 614 CURVE SMOOTH",
"371 614 OFFCURVE",
"450 586 OFFCURVE",
"509 519 CURVE",
"509 647 LINE",
"453 694 OFFCURVE",
"383 716 OFFCURVE",
"299 716 CURVE SMOOTH",
"177 716 OFFCURVE",
"64 652 OFFCURVE",
"64 532 CURVE SMOOTH",
"64 303 OFFCURVE",
"432 324 OFFCURVE",
"432 179 CURVE SMOOTH",
"432 111 OFFCURVE",
"358 92 OFFCURVE",
"302 92 CURVE SMOOTH"
);
}
);
width = 597;
}
);
unicode = 0053;
},
{
glyphname = T;
layers = (
{
hints = (
{
horizontal = 1;
place = "{0, 21}";
target = up;
type = BottomGhost;
},
{
horizontal = 1;
place = "{596, 107}";
type = Stem;
},
{
place = "{217, 120}";
type = Stem;
}
);
layerId = "8768C18F-5D75-4F12-A5E9-2E25CBCA3CBE";
paths = (
{
closed = 1;
nodes = (
"337 596 LINE",
"547 596 LINE",
"547 703 LINE",
"7 703 LINE",
"7 596 LINE",
"217 596 LINE",
"217 0 LINE",
"337 0 LINE"
);
}
);
width = 554;
}
);
unicode = 0054;
},
{
glyphname = U;
layers = (
{
hints = (
{
horizontal = 1;
place = "{-14, 110}";
type = Stem;
},
{
horizontal = 1;
place = "{704, -20}";
target = down;
type = TopGhost;
},
{
place = "{74, 122}";
type = Stem;
},
{
place = "{542, 122}";
type = Stem;
}
);
layerId = "8768C18F-5D75-4F12-A5E9-2E25CBCA3CBE";
paths = (
{
closed = 1;
nodes = (
"558 -14 OFFCURVE",
"664 95 OFFCURVE",
"664 295 CURVE SMOOTH",
"664 704 LINE",
"542 704 LINE",
"542 292 LINE SMOOTH",
"542 160 OFFCURVE",
"480 96 OFFCURVE",
"369 96 CURVE SMOOTH",
"256 96 OFFCURVE",
"196 169 OFFCURVE",
"196 296 CURVE SMOOTH",
"196 704 LINE",
"74 704 LINE",
"74 292 LINE SMOOTH",
"74 99 OFFCURVE",
"180 -14 OFFCURVE",
"369 -14 CURVE SMOOTH"
);
}
);
width = 738;
}
);
unicode = 0055;
},
{
glyphname = V;
layers = (
{
hints = (
{
horizontal = 1;
place = "{-2, 21}";
target = up;
type = BottomGhost;
},
{
horizontal = 1;
place = "{703, -20}";
target = down;
type = TopGhost;
},
{
place = "{7, 685}";
type = Stem;
}
);
layerId = "8768C18F-5D75-4F12-A5E9-2E25CBCA3CBE";
paths = (
{
closed = 1;
nodes = (
"7 703 LINE",
"286 -2 LINE",
"414 -2 LINE",
"692 703 LINE",
"559 703 LINE",
"352 144 LINE",
"142 703 LINE"
);
}
);
width = 693;
}
);
unicode = 0056;
},
{
glyphname = W;
layers = (
{
hints = (
{
horizontal = 1;
place = "{-2, 21}";
target = up;
type = BottomGhost;
},
{
horizontal = 1;
place = "{703, -20}";
target = down;
type = TopGhost;
},
{
horizontal = 1;
place = "{705, -20}";
target = down;
type = TopGhost;
},
{
place = "{16, 1019}";
type = Stem;
}
);
layerId = "8768C18F-5D75-4F12-A5E9-2E25CBCA3CBE";
paths = (
{
closed = 1;
nodes = (
"145 703 LINE",
"16 703 LINE",
"252 -2 LINE",
"363 -2 LINE",
"525 521 LINE",
"691 -2 LINE",
"801 -2 LINE",
"1035 703 LINE",
"909 703 LINE",
"746 182 LINE",
"582 705 LINE",
"473 705 LINE",
"312 182 LINE"
);
}
);
width = 1046;
}
);
unicode = 0057;
},
{
glyphname = X;
layers = (
{
hints = (
{
horizontal = 1;
place = "{0, 21}";
target = up;
type = BottomGhost;
},
{
horizontal = 1;
place = "{703, -20}";
target = down;
type = TopGhost;
},
{
place = "{22, 641}";
type = Stem;
}
);
layerId = "8768C18F-5D75-4F12-A5E9-2E25CBCA3CBE";
paths = (
{
closed = 1;
nodes = (
"33 703 LINE",
"272 359 LINE",
"22 0 LINE",
"161 0 LINE",
"342 268 LINE",
"524 0 LINE",
"663 0 LINE",
"414 361 LINE",
"651 703 LINE",
"514 703 LINE",
"345 452 LINE",
"174 703 LINE"
);
}
);
width = 684;
}
);
unicode = 0058;
},
{
glyphname = Y;
layers = (
{
hints = (
{
horizontal = 1;
place = "{0, 21}";
target = up;
type = BottomGhost;
},
{
horizontal = 1;
place = "{703, -20}";
target = down;
type = TopGhost;
},
{
place = "{281, 121}";
type = Stem;
}
);
layerId = "8768C18F-5D75-4F12-A5E9-2E25CBCA3CBE";
paths = (
{
closed = 1;
nodes = (
"402 276 LINE",
"671 703 LINE",
"535 703 LINE",
"344 387 LINE",
"152 703 LINE",
"12 703 LINE",
"281 274 LINE",
"281 0 LINE",
"402 0 LINE"
);
}
);
width = 674;
}
);
unicode = 0059;
},
{
glyphname = Z;
layers = (
{
hints = (
{
horizontal = 1;
place = "{0, 105}";
type = Stem;
},
{
horizontal = 1;
place = "{599, 104}";
type = Stem;
},
{
place = "{28, 608}";
type = Stem;
}
);
layerId = "8768C18F-5D75-4F12-A5E9-2E25CBCA3CBE";
paths = (
{
closed = 1;
nodes = (
"636 608 LINE",
"636 703 LINE",
"51 703 LINE",
"51 599 LINE",
"478 599 LINE",
"28 95 LINE",
"28 0 LINE",
"622 0 LINE",
"622 105 LINE",
"191 105 LINE"
);
}
);
width = 668;
}
);
unicode = 005A;
},
{
glyphname = bracketleft;
layers = (
{
hints = (
{
horizontal = 1;
place = "{-149, 87}";
type = Stem;
},
{
horizontal = 1;
place = "{630, 87}";
type = Stem;
},
{
place = "{79, 108}";
type = Stem;
}
);
layerId = "8768C18F-5D75-4F12-A5E9-2E25CBCA3CBE";
paths = (
{
closed = 1;
nodes = (
"355 717 LINE",
"79 717 LINE",
"79 -149 LINE",
"355 -149 LINE",
"355 -62 LINE",
"187 -62 LINE",
"187 630 LINE",
"355 630 LINE"
);
}
);
width = 386;
}
);
unicode = 005B;
},
{
glyphname = backslash;
layers = (
{
hints = (
{
horizontal = 1;
place = "{-121, 908}";
type = Stem;
},
{
place = "{7, 514}";
type = Stem;
}
);
layerId = "8768C18F-5D75-4F12-A5E9-2E25CBCA3CBE";
paths = (
{
closed = 1;
nodes = (
"425 -121 LINE",
"521 -108 LINE",
"103 787 LINE",
"7 774 LINE"
);
}
);
width = 529;
}
);
unicode = 005C;
},
{
glyphname = bracketright;
layers = (
{
hints = (
{
horizontal = 1;
place = "{-149, 87}";
type = Stem;
},
{
horizontal = 1;
place = "{630, 87}";
type = Stem;
},
{
place = "{199, 109}";
type = Stem;
}
);
layerId = "8768C18F-5D75-4F12-A5E9-2E25CBCA3CBE";
paths = (
{
closed = 1;
nodes = (
"31 -149 LINE",
"308 -149 LINE",
"308 717 LINE",
"31 717 LINE",
"31 630 LINE",
"199 630 LINE",
"199 -62 LINE",
"31 -62 LINE"
);
}
);
width = 387;
}
);
unicode = 005D;
},
{
glyphname = asciicircum;
layers = (
{
hints = (
{
place = "{54, 426}";
type = Stem;
},
{
horizontal = 1;
place = "{625, 79}";
type = Stem;
},
{
horizontal = 1;
place = "{704, -20}";
target = down;
type = TopGhost;
}
);
layerId = "8768C18F-5D75-4F12-A5E9-2E25CBCA3CBE";
paths = (
{
closed = 1;
nodes = (
"54 443 LINE",
"147 443 LINE",
"266 625 LINE",
"385 443 LINE",
"480 443 LINE",
"312 704 LINE",
"221 704 LINE"
);
}
);
width = 534;
}
);
unicode = 005E;
},
{
glyphname = underscore;
layers = (
{
hints = (
{
horizontal = 1;
place = "{-151, 82}";
type = Stem;
},
{
place = "{0, 575}";
type = Stem;
}
);
layerId = "8768C18F-5D75-4F12-A5E9-2E25CBCA3CBE";
paths = (
{
closed = 1;
nodes = (
"0 -151 LINE",
"575 -151 LINE",
"575 -69 LINE",
"0 -69 LINE"
);
}
);
width = 575;
}
);
unicode = 005F;
},
{
glyphname = grave;
layers = (
{
hints = (
{
horizontal = 1;
place = "{571, 161}";
type = Stem;
},
{
place = "{14, 220}";
type = Stem;
}
);
layerId = "8768C18F-5D75-4F12-A5E9-2E25CBCA3CBE";
paths = (
{
closed = 1;
nodes = (
"147 571 LINE",
"234 571 LINE",
"136 732 LINE",
"14 700 LINE"
);
}
);
width = 320;
}
);
unicode = 0060;
},
{
glyphname = a;
layers = (
{
hints = (
{
place = "{34, 116}";
type = Stem;
},
{
place = "{390, 117}";
type = Stem;
},
{
horizontal = 1;
place = "{-11, 85}";
type = Stem;
},
{
horizontal = 1;
place = "{-4, 21}";
target = up;
type = BottomGhost;
},
{
horizontal = 1;
place = "{256, 75}";
type = Stem;
},
{
horizontal = 1;
place = "{416, 95}";
type = Stem;
}
);
layerId = "8768C18F-5D75-4F12-A5E9-2E25CBCA3CBE";
paths = (
{
closed = 1;
nodes = (
"507 -4 LINE",
"507 309 LINE SMOOTH",
"507 442 OFFCURVE",
"409 511 OFFCURVE",
"269 511 CURVE SMOOTH",
"189 511 OFFCURVE",
"122 490 OFFCURVE",
"71 469 CURVE",
"71 372 LINE",
"130 404 OFFCURVE",
"190 416 OFFCURVE",
"250 416 CURVE SMOOTH",
"335 416 OFFCURVE",
"390 389 OFFCURVE",
"390 317 CURVE SMOOTH",
"390 301 LINE",
"351 322 OFFCURVE",
"301 331 OFFCURVE",
"245 331 CURVE SMOOTH",
"136 331 OFFCURVE",
"34 287 OFFCURVE",
"34 166 CURVE SMOOTH",
"34 52 OFFCURVE",
"130 -11 OFFCURVE",
"229 -11 CURVE SMOOTH",
"297 -11 OFFCURVE",
"346 11 OFFCURVE",
"389 51 CURVE"
);
},
{
closed = 1;
nodes = (
"390 128 LINE",
"359 93 OFFCURVE",
"318 74 OFFCURVE",
"265 74 CURVE SMOOTH",
"204 74 OFFCURVE",
"150 104 OFFCURVE",
"150 164 CURVE SMOOTH",
"150 227 OFFCURVE",
"211 256 OFFCURVE",
"273 256 CURVE SMOOTH",
"325 256 OFFCURVE",
"362 241 OFFCURVE",
"390 226 CURVE"
);
}
);
width = 566;
}
);
unicode = 0061;
},
{
glyphname = b;
layers = (
{
hints = (
{
place = "{66, 118}";
type = Stem;
},
{
place = "{483, 117}";
type = Stem;
},
{
horizontal = 1;
place = "{-11, 99}";
type = Stem;
},
{
horizontal = 1;
place = "{-3, 21}";
target = up;
type = BottomGhost;
},
{
horizontal = 1;
place = "{413, 101}";
type = Stem;
}
);
layerId = "8768C18F-5D75-4F12-A5E9-2E25CBCA3CBE";
paths = (
{
closed = 1;
nodes = (
"493 -11 OFFCURVE",
"600 93 OFFCURVE",
"600 251 CURVE SMOOTH",
"600 411 OFFCURVE",
"492 514 OFFCURVE",
"362 514 CURVE SMOOTH",
"282 514 OFFCURVE",
"224 474 OFFCURVE",
"184 419 CURVE",
"184 731 LINE",
"66 731 LINE",
"66 -3 LINE",
"190 69 LINE",
"226 25 OFFCURVE",
"281 -11 OFFCURVE",
"361 -11 CURVE SMOOTH"
);
},
{
closed = 1;
nodes = (
"483 155 OFFCURVE",
"418 88 OFFCURVE",
"332 88 CURVE SMOOTH",
"247 88 OFFCURVE",
"181 159 OFFCURVE",
"181 251 CURVE SMOOTH",
"181 345 OFFCURVE",
"247 413 OFFCURVE",
"332 413 CURVE SMOOTH",
"421 413 OFFCURVE",
"483 342 OFFCURVE",
"483 251 CURVE SMOOTH"
);
}
);
width = 637;
}
);
unicode = 0062;
},
{
glyphname = c;
layers = (
{
hints = (
{
horizontal = 1;
place = "{-10, 99}";
type = Stem;
},
{
horizontal = 1;
place = "{413, 99}";
type = Stem;
},
{
place = "{37, 117}";
type = Stem;
}
);
layerId = "8768C18F-5D75-4F12-A5E9-2E25CBCA3CBE";
paths = (
{
closed = 1;
nodes = (
"428 480 LINE",
"393 501 OFFCURVE",
"344 512 OFFCURVE",
"300 512 CURVE SMOOTH",
"143 512 OFFCURVE",
"37 393 OFFCURVE",
"37 250 CURVE SMOOTH",
"37 103 OFFCURVE",
"149 -10 OFFCURVE",
"295 -10 CURVE SMOOTH",
"348 -10 OFFCURVE",
"396 5 OFFCURVE",
"433 25 CURVE",
"433 144 LINE",
"398 109 OFFCURVE",
"355 89 OFFCURVE",
"307 89 CURVE SMOOTH",
"222 89 OFFCURVE",
"154 164 OFFCURVE",
"154 254 CURVE SMOOTH",
"154 344 OFFCURVE",
"217 413 OFFCURVE",
"304 413 CURVE SMOOTH",
"353 413 OFFCURVE",
"393 391 OFFCURVE",
"428 358 CURVE"
);
}
);
width = 459;
}
);
unicode = 0063;
},
{
glyphname = d;
layers = (
{
hints = (
{
place = "{36, 118}";
type = Stem;
},
{
place = "{452, 118}";
type = Stem;
},
{
horizontal = 1;
place = "{-11, 100}";
type = Stem;
},
{
horizontal = 1;
place = "{-3, 21}";
target = up;
type = BottomGhost;
},
{
horizontal = 1;
place = "{414, 100}";
type = Stem;
}
);
layerId = "8768C18F-5D75-4F12-A5E9-2E25CBCA3CBE";
paths = (
{
closed = 1;
nodes = (
"570 -3 LINE",
"570 731 LINE",
"452 731 LINE",
"452 424 LINE",
"412 476 OFFCURVE",
"354 514 OFFCURVE",
"273 514 CURVE SMOOTH",
"146 514 OFFCURVE",
"36 411 OFFCURVE",
"36 251 CURVE SMOOTH",
"36 91 OFFCURVE",
"146 -11 OFFCURVE",
"276 -11 CURVE SMOOTH",
"355 -11 OFFCURVE",
"404 24 OFFCURVE",
"445 75 CURVE"
);
},
{
closed = 1;
nodes = (
"154 350 OFFCURVE",
"220 414 OFFCURVE",
"301 414 CURVE SMOOTH",
"384 414 OFFCURVE",
"455 345 OFFCURVE",
"455 252 CURVE SMOOTH",
"455 158 OFFCURVE",
"384 89 OFFCURVE",
"301 89 CURVE SMOOTH",
"219 89 OFFCURVE",
"154 157 OFFCURVE",
"154 251 CURVE SMOOTH"
);
}
);
width = 637;
}
);
unicode = 0064;
},
{
glyphname = e;
layers = (
{
hints = (
{
horizontal = 1;
place = "{-13, 93}";
type = Stem;
},
{
horizontal = 1;
place = "{419, 94}";
type = Stem;
},
{
place = "{37, 114}";
type = Stem;
}
);
layerId = "8768C18F-5D75-4F12-A5E9-2E25CBCA3CBE";
paths = (
{
closed = 1;
nodes = (
"231 80 OFFCURVE",
"185 114 OFFCURVE",
"162 166 CURVE",
"530 257 LINE",
"519 394 OFFCURVE",
"436 513 OFFCURVE",
"285 513 CURVE SMOOTH",
"137 513 OFFCURVE",
"37 397 OFFCURVE",
"37 249 CURVE SMOOTH",
"37 96 OFFCURVE",
"147 -13 OFFCURVE",
"298 -13 CURVE SMOOTH",
"366 -13 OFFCURVE",
"432 8 OFFCURVE",
"483 43 CURVE",
"483 151 LINE",
"440 111 OFFCURVE",
"375 80 OFFCURVE",
"302 80 CURVE SMOOTH"
);
},
{
closed = 1;
nodes = (
"151 256 LINE",
"151 337 OFFCURVE",
"193 419 OFFCURVE",
"284 419 CURVE SMOOTH",
"349 419 OFFCURVE",
"397 377 OFFCURVE",
"413 317 CURVE",
"153 251 LINE"
);
}
);
width = 565;
}
);
unicode = 0065;
},
{
glyphname = f;
layers = (
{
hints = (
{
horizontal = 1;
place = "{0, 21}";
target = up;
type = BottomGhost;
},
{
horizontal = 1;
place = "{405, 95}";
type = Stem;
},
{
horizontal = 1;
place = "{645, 91}";
type = Stem;
},
{
place = "{108, 116}";
type = Stem;
}
);
layerId = "8768C18F-5D75-4F12-A5E9-2E25CBCA3CBE";
paths = (
{
closed = 1;
nodes = (
"356 725 LINE",
"335 732 OFFCURVE",
"309 736 OFFCURVE",
"276 736 CURVE SMOOTH",
"173 736 OFFCURVE",
"108 683 OFFCURVE",
"108 555 CURVE SMOOTH",
"108 501 LINE",
"15 405 LINE",
"108 405 LINE",
"108 0 LINE",
"224 0 LINE",
"224 405 LINE",
"345 405 LINE",
"345 500 LINE",
"213 500 LINE",
"213 551 LINE SMOOTH",
"213 612 OFFCURVE",
"243 645 OFFCURVE",
"296 645 CURVE SMOOTH",
"315 645 OFFCURVE",
"336 642 OFFCURVE",
"356 635 CURVE"
);
}
);
width = 327;
}
);
unicode = 0066;
},
{
glyphname = g;
layers = (
{
hints = (
{
place = "{37, 119}";
type = Stem;
},
{
place = "{454, 117}";
type = Stem;
},
{
horizontal = 1;
place = "{-183, 92}";
type = Stem;
},
{
horizontal = 1;
place = "{29, 96}";
type = Stem;
},
{
horizontal = 1;
place = "{418, 96}";
type = Stem;
},
{
horizontal = 1;
place = "{502, -20}";
target = down;
type = TopGhost;
}
);
layerId = "8768C18F-5D75-4F12-A5E9-2E25CBCA3CBE";
paths = (
{
closed = 1;
nodes = (
"198 -91 OFFCURVE",
"125 -63 OFFCURVE",
"70 -21 CURVE",
"70 -131 LINE",
"128 -162 OFFCURVE",
"194 -183 OFFCURVE",
"278 -183 CURVE SMOOTH",
"450 -183 OFFCURVE",
"571 -95 OFFCURVE",
"571 81 CURVE SMOOTH",
"571 502 LINE",
"446 434 LINE",
"405 481 OFFCURVE",
"353 514 OFFCURVE",
"274 514 CURVE SMOOTH",
"146 514 OFFCURVE",
"37 417 OFFCURVE",
"37 269 CURVE SMOOTH",
"37 127 OFFCURVE",
"142 29 OFFCURVE",
"274 29 CURVE SMOOTH",
"355 29 OFFCURVE",
"410 65 OFFCURVE",
"454 120 CURVE",
"454 73 LINE SMOOTH",
"454 -42 OFFCURVE",
"391 -91 OFFCURVE",
"278 -91 CURVE SMOOTH"
);
},
{
closed = 1;
nodes = (
"156 357 OFFCURVE",
"218 418 OFFCURVE",
"303 418 CURVE SMOOTH",
"388 418 OFFCURVE",
"454 356 OFFCURVE",
"454 271 CURVE SMOOTH",
"454 186 OFFCURVE",
"388 125 OFFCURVE",
"304 125 CURVE SMOOTH",
"218 125 OFFCURVE",
"156 187 OFFCURVE",
"156 272 CURVE SMOOTH"
);
}
);
width = 637;
}
);
unicode = 0067;
},
{
glyphname = h;
layers = (
{
hints = (
{
horizontal = 1;
place = "{0, 21}";
target = up;
type = BottomGhost;
},
{
horizontal = 1;
place = "{403, 110}";
type = Stem;
},
{
place = "{70, 113}";
type = Stem;
},
{
place = "{407, 118}";
type = Stem;
}
);
layerId = "8768C18F-5D75-4F12-A5E9-2E25CBCA3CBE";
paths = (
{
closed = 1;
nodes = (
"274 513 OFFCURVE",
"218 477 OFFCURVE",
"183 433 CURVE",
"183 731 LINE",
"70 731 LINE",
"70 0 LINE",
"188 0 LINE",
"188 284 LINE SMOOTH",
"188 363 OFFCURVE",
"246 403 OFFCURVE",
"307 403 CURVE SMOOTH",
"371 403 OFFCURVE",
"407 363 OFFCURVE",
"407 284 CURVE SMOOTH",
"407 0 LINE",
"525 0 LINE",
"525 320 LINE SMOOTH",
"525 450 OFFCURVE",
"454 513 OFFCURVE",
"349 513 CURVE SMOOTH"
);
}
);
width = 592;
}
);
unicode = 0068;
},
{
glyphname = i;
layers = (
{
hints = (
{
place = "{62, 153}";
type = Stem;
},
{
place = "{81, 117}";
type = Stem;
},
{
horizontal = 1;
place = "{0, 21}";
target = up;
type = BottomGhost;
},
{
horizontal = 1;
place = "{502, -20}";
target = down;
type = TopGhost;
},
{
horizontal = 1;
place = "{581, 144}";
type = Stem;
}
);
layerId = "8768C18F-5D75-4F12-A5E9-2E25CBCA3CBE";
paths = (
{
closed = 1;
nodes = (
"62 610 OFFCURVE",
"97 581 OFFCURVE",
"138 581 CURVE SMOOTH",
"181 581 OFFCURVE",
"215 610 OFFCURVE",
"215 653 CURVE SMOOTH",
"215 698 OFFCURVE",
"181 725 OFFCURVE",
"138 725 CURVE SMOOTH",
"97 725 OFFCURVE",
"62 698 OFFCURVE",
"62 653 CURVE SMOOTH"
);
},
{
closed = 1;
nodes = (
"198 502 LINE",
"81 502 LINE",
"81 0 LINE",
"198 0 LINE"
);
}
);
width = 277;
}
);
unicode = 0069;
},
{
glyphname = j;
layers = (
{
hints = (
{
place = "{18, 151}";
type = Stem;
},
{
place = "{38, 117}";
type = Stem;
},
{
horizontal = 1;
place = "{-184, 90}";
type = Stem;
},
{
horizontal = 1;
place = "{502, -20}";
target = down;
type = TopGhost;
},
{
horizontal = 1;
place = "{581, 144}";
type = Stem;
}
);
layerId = "8768C18F-5D75-4F12-A5E9-2E25CBCA3CBE";
paths = (
{
closed = 1;
nodes = (
"18 610 OFFCURVE",
"52 581 OFFCURVE",
"93 581 CURVE SMOOTH",
"134 581 OFFCURVE",
"169 610 OFFCURVE",
"169 653 CURVE SMOOTH",
"169 698 OFFCURVE",
"134 725 OFFCURVE",
"93 725 CURVE SMOOTH",
"52 725 OFFCURVE",
"18 698 OFFCURVE",
"18 653 CURVE SMOOTH"
);
},
{
closed = 1;
nodes = (
"-44 -177 LINE",
"-27 -181 OFFCURVE",
"-9 -184 OFFCURVE",
"15 -184 CURVE SMOOTH",
"124 -184 OFFCURVE",
"155 -118 OFFCURVE",
"155 -17 CURVE SMOOTH",
"155 502 LINE",
"38 502 LINE",
"38 -31 LINE SMOOTH",
"38 -67 OFFCURVE",
"27 -94 OFFCURVE",
"-10 -94 CURVE SMOOTH",
"-21 -94 OFFCURVE",
"-32 -91 OFFCURVE",
"-44 -87 CURVE"
);
}
);
width = 229;
}
);
unicode = 006A;
},
{
glyphname = k;
layers = (
{
hints = (
{
horizontal = 1;
place = "{0, 21}";
target = up;
type = BottomGhost;
},
{
horizontal = 1;
place = "{502, -20}";
target = down;
type = TopGhost;
},
{
place = "{70, 118}";
type = Stem;
}
);
layerId = "8768C18F-5D75-4F12-A5E9-2E25CBCA3CBE";
paths = (
{
closed = 1;
nodes = (
"188 731 LINE",
"70 731 LINE",
"70 0 LINE",
"188 0 LINE",
"188 238 LINE",
"372 0 LINE",
"509 0 LINE",
"293 277 LINE",
"501 502 LINE",
"360 502 LINE",
"188 307 LINE"
);
}
);
width = 496;
}
);
unicode = 006B;
},
{
glyphname = l;
layers = (
{
hints = (
{
horizontal = 1;
place = "{0, 21}";
target = up;
type = BottomGhost;
},
{
place = "{70, 117}";
type = Stem;
}
);
layerId = "8768C18F-5D75-4F12-A5E9-2E25CBCA3CBE";
paths = (
{
closed = 1;
nodes = (
"187 731 LINE",
"70 731 LINE",
"70 0 LINE",
"187 0 LINE"
);
}
);
width = 259;
}
);
unicode = 006C;
},
{
glyphname = m;
layers = (
{
hints = (
{
horizontal = 1;
place = "{0, 21}";
target = up;
type = BottomGhost;
},
{
horizontal = 1;
place = "{409, 104}";
type = Stem;
},
{
place = "{66, 118}";
type = Stem;
},
{
place = "{388, 118}";
type = Stem;
},
{
place = "{712, 118}";
type = Stem;
}
);
layerId = "8768C18F-5D75-4F12-A5E9-2E25CBCA3CBE";
paths = (
{
closed = 1;
nodes = (
"830 0 LINE",
"830 321 LINE SMOOTH",
"830 428 OFFCURVE",
"772 513 OFFCURVE",
"657 513 CURVE SMOOTH",
"584 513 OFFCURVE",
"522 481 OFFCURVE",
"486 424 CURVE",
"459 487 OFFCURVE",
"402 513 OFFCURVE",
"337 513 CURVE SMOOTH",
"276 513 OFFCURVE",
"219 489 OFFCURVE",
"182 438 CURVE",
"66 501 LINE",
"66 0 LINE",
"184 0 LINE",
"184 284 LINE SMOOTH",
"184 354 OFFCURVE",
"224 409 OFFCURVE",
"292 409 CURVE SMOOTH",
"360 409 OFFCURVE",
"388 356 OFFCURVE",
"388 284 CURVE SMOOTH",
"388 0 LINE",
"506 0 LINE",
"506 284 LINE SMOOTH",
"506 350 OFFCURVE",
"545 409 OFFCURVE",
"615 409 CURVE SMOOTH",
"675 409 OFFCURVE",
"712 371 OFFCURVE",
"712 284 CURVE SMOOTH",
"712 0 LINE"
);
}
);
width = 898;
}
);
unicode = 006D;
},
{
glyphname = n;
layers = (
{
hints = (
{
place = "{66, 118}";
type = Stem;
},
{
place = "{402, 118}";
type = Stem;
},
{
horizontal = 1;
place = "{0, 21}";
target = up;
type = BottomGhost;
},
{
horizontal = 1;
place = "{409, 104}";
type = Stem;
},
{
horizontal = 1;
place = "{502, -20}";
target = down;
type = TopGhost;
}
);
layerId = "8768C18F-5D75-4F12-A5E9-2E25CBCA3CBE";
paths = (
{
closed = 1;
nodes = (
"271 513 OFFCURVE",
"221 479 OFFCURVE",
"185 436 CURVE",
"66 502 LINE",
"66 0 LINE",
"184 0 LINE",
"184 284 LINE SMOOTH",
"184 377 OFFCURVE",
"247 409 OFFCURVE",
"298 409 CURVE SMOOTH",
"352 409 OFFCURVE",
"402 375 OFFCURVE",
"402 284 CURVE SMOOTH",
"402 0 LINE",
"520 0 LINE",
"520 320 LINE SMOOTH",
"520 445 OFFCURVE",
"449 513 OFFCURVE",
"343 513 CURVE SMOOTH"
);
}
);
width = 588;
}
);
unicode = 006E;
},
{
glyphname = o;
layers = (
{
hints = (
{
horizontal = 1;
place = "{-11, 100}";
type = Stem;
},
{
horizontal = 1;
place = "{414, 100}";
type = Stem;
},
{
place = "{37, 117}";
type = Stem;
},
{
place = "{464, 117}";
type = Stem;
}
);
layerId = "8768C18F-5D75-4F12-A5E9-2E25CBCA3CBE";
paths = (
{
closed = 1;
nodes = (
"581 398 OFFCURVE",
"465 514 OFFCURVE",
"309 514 CURVE SMOOTH",
"152 514 OFFCURVE",
"37 397 OFFCURVE",
"37 250 CURVE SMOOTH",
"37 103 OFFCURVE",
"152 -11 OFFCURVE",
"307 -11 CURVE SMOOTH",
"465 -11 OFFCURVE",
"581 107 OFFCURVE",
"581 252 CURVE SMOOTH"
);
},
{
closed = 1;
nodes = (
"464 163 OFFCURVE",
"400 89 OFFCURVE",
"309 89 CURVE SMOOTH",
"221 89 OFFCURVE",
"154 160 OFFCURVE",
"154 252 CURVE SMOOTH",
"154 341 OFFCURVE",
"215 414 OFFCURVE",
"307 414 CURVE SMOOTH",
"399 414 OFFCURVE",
"464 340 OFFCURVE",
"464 251 CURVE SMOOTH"
);
}
);
width = 618;
}
);
unicode = 006F;
},
{
glyphname = p;
layers = (
{
hints = (
{
place = "{66, 118}";
type = Stem;
},
{
place = "{483, 117}";
type = Stem;
},
{
horizontal = 1;
place = "{-179, 21}";
target = up;
type = BottomGhost;
},
{
horizontal = 1;
place = "{-11, 99}";
type = Stem;
},
{
horizontal = 1;
place = "{413, 101}";
type = Stem;
},
{
horizontal = 1;
place = "{502, -20}";
target = down;
type = TopGhost;
}
);
layerId = "8768C18F-5D75-4F12-A5E9-2E25CBCA3CBE";
paths = (
{
closed = 1;
nodes = (
"184 78 LINE",
"224 25 OFFCURVE",
"281 -11 OFFCURVE",
"362 -11 CURVE SMOOTH",
"488 -11 OFFCURVE",
"600 92 OFFCURVE",
"600 252 CURVE SMOOTH",
"600 411 OFFCURVE",
"491 514 OFFCURVE",
"362 514 CURVE SMOOTH",
"281 514 OFFCURVE",
"233 476 OFFCURVE",
"190 427 CURVE",
"66 502 LINE",
"66 -179 LINE",
"184 -179 LINE"
);
},
{
closed = 1;
nodes = (
"483 154 OFFCURVE",
"418 88 OFFCURVE",
"334 88 CURVE SMOOTH",
"251 88 OFFCURVE",
"180 159 OFFCURVE",
"180 251 CURVE SMOOTH",
"180 345 OFFCURVE",
"248 413 OFFCURVE",
"332 413 CURVE SMOOTH",
"418 413 OFFCURVE",
"483 346 OFFCURVE",
"483 252 CURVE SMOOTH"
);
}
);
width = 638;
}
);
unicode = 0070;
},
{
glyphname = q;
layers = (
{
hints = (
{
place = "{37, 118}";
type = Stem;
},
{
place = "{453, 118}";
type = Stem;
},
{
horizontal = 1;
place = "{-179, 21}";
target = up;
type = BottomGhost;
},
{
horizontal = 1;
place = "{-11, 99}";
type = Stem;
},
{
horizontal = 1;
place = "{414, 100}";
type = Stem;
},
{
horizontal = 1;
place = "{502, -20}";
target = down;
type = TopGhost;
}
);
layerId = "8768C18F-5D75-4F12-A5E9-2E25CBCA3CBE";
paths = (
{
closed = 1;
nodes = (
"571 -179 LINE",
"571 502 LINE",
"446 432 LINE",
"405 479 OFFCURVE",
"357 514 OFFCURVE",
"276 514 CURVE SMOOTH",
"147 514 OFFCURVE",
"37 411 OFFCURVE",
"37 251 CURVE SMOOTH",
"37 94 OFFCURVE",
"145 -11 OFFCURVE",
"277 -11 CURVE SMOOTH",
"356 -11 OFFCURVE",
"410 27 OFFCURVE",
"453 82 CURVE",
"453 -179 LINE"
);
},
{
closed = 1;
nodes = (
"155 349 OFFCURVE",
"220 414 OFFCURVE",
"305 414 CURVE SMOOTH",
"388 414 OFFCURVE",
"457 345 OFFCURVE",
"457 252 CURVE SMOOTH",
"457 159 OFFCURVE",
"388 88 OFFCURVE",
"304 88 CURVE SMOOTH",
"220 88 OFFCURVE",
"155 159 OFFCURVE",
"155 253 CURVE SMOOTH"
);
}
);
width = 638;
}
);
unicode = 0071;
},
{
glyphname = r;
layers = (
{
hints = (
{
place = "{66, 118}";
type = Stem;
},
{
horizontal = 1;
place = "{0, 21}";
target = up;
type = BottomGhost;
},
{
horizontal = 1;
place = "{396, 115}";
type = Stem;
},
{
horizontal = 1;
place = "{502, -20}";
target = down;
type = TopGhost;
},
{
horizontal = 1;
place = "{507, -20}";
target = down;
type = TopGhost;
}
);
layerId = "8768C18F-5D75-4F12-A5E9-2E25CBCA3CBE";
paths = (
{
closed = 1;
nodes = (
"369 507 LINE",
"358 510 OFFCURVE",
"349 511 OFFCURVE",
"338 511 CURVE SMOOTH",
"274 511 OFFCURVE",
"220 481 OFFCURVE",
"185 429 CURVE",
"66 502 LINE",
"66 0 LINE",
"184 0 LINE",
"184 237 LINE SMOOTH",
"184 349 OFFCURVE",
"259 396 OFFCURVE",
"334 396 CURVE SMOOTH",
"347 396 OFFCURVE",
"358 394 OFFCURVE",
"369 390 CURVE"
);
}
);
width = 386;
}
);
unicode = 0072;
},
{
glyphname = s;
layers = (
{
hints = (
{
horizontal = 1;
place = "{-11, 90}";
type = Stem;
},
{
horizontal = 1;
place = "{423, 90}";
type = Stem;
},
{
place = "{46, 110}";
type = Stem;
},
{
place = "{298, 110}";
type = Stem;
}
);
layerId = "8768C18F-5D75-4F12-A5E9-2E25CBCA3CBE";
paths = (
{
closed = 1;
nodes = (
"157 79 OFFCURVE",
"92 114 OFFCURVE",
"42 154 CURVE",
"42 43 LINE",
"93 15 OFFCURVE",
"148 -11 OFFCURVE",
"223 -11 CURVE SMOOTH",
"337 -11 OFFCURVE",
"408 56 OFFCURVE",
"408 143 CURVE SMOOTH",
"408 308 OFFCURVE",
"156 298 OFFCURVE",
"156 379 CURVE SMOOTH",
"156 403 OFFCURVE",
"178 423 OFFCURVE",
"219 423 CURVE SMOOTH",
"267 423 OFFCURVE",
"325 396 OFFCURVE",
"369 362 CURVE",
"369 473 LINE",
"324 500 OFFCURVE",
"274 513 OFFCURVE",
"219 513 CURVE SMOOTH",
"114 513 OFFCURVE",
"46 460 OFFCURVE",
"46 375 CURVE SMOOTH",
"46 212 OFFCURVE",
"298 235 OFFCURVE",
"298 138 CURVE SMOOTH",
"298 97 OFFCURVE",
"261 79 OFFCURVE",
"218 79 CURVE SMOOTH"
);
}
);
width = 445;
}
);
unicode = 0073;
},
{
glyphname = t;
layers = (
{
hints = (
{
horizontal = 1;
place = "{-11, 101}";
type = Stem;
},
{
horizontal = 1;
place = "{404, 98}";
type = Stem;
},
{
place = "{118, 117}";
type = Stem;
}
);
layerId = "8768C18F-5D75-4F12-A5E9-2E25CBCA3CBE";
paths = (
{
closed = 1;
nodes = (
"118 136 LINE SMOOTH",
"118 39 OFFCURVE",
"172 -11 OFFCURVE",
"255 -11 CURVE SMOOTH",
"286 -11 OFFCURVE",
"311 -5 OFFCURVE",
"332 6 CURVE",
"332 102 LINE",
"313 94 OFFCURVE",
"297 90 OFFCURVE",
"282 90 CURVE SMOOTH",
"249 90 OFFCURVE",
"235 112 OFFCURVE",
"235 143 CURVE SMOOTH",
"235 404 LINE",
"362 404 LINE",
"362 502 LINE",
"235 502 LINE",
"235 669 LINE",
"18 404 LINE",
"118 404 LINE"
);
}
);
width = 391;
}
);
unicode = 0074;
},
{
glyphname = u;
layers = (
{
hints = (
{
place = "{68, 118}";
type = Stem;
},
{
place = "{404, 118}";
type = Stem;
},
{
horizontal = 1;
place = "{-11, 105}";
type = Stem;
},
{
horizontal = 1;
place = "{1, 21}";
target = up;
type = BottomGhost;
},
{
horizontal = 1;
place = "{502, -20}";
target = down;
type = TopGhost;
}
);
layerId = "8768C18F-5D75-4F12-A5E9-2E25CBCA3CBE";
paths = (
{
closed = 1;
nodes = (
"318 -11 OFFCURVE",
"367 22 OFFCURVE",
"403 66 CURVE",
"522 1 LINE",
"522 502 LINE",
"404 502 LINE",
"404 218 LINE SMOOTH",
"404 124 OFFCURVE",
"344 94 OFFCURVE",
"290 94 CURVE SMOOTH",
"236 94 OFFCURVE",
"186 126 OFFCURVE",
"186 218 CURVE SMOOTH",
"186 502 LINE",
"68 502 LINE",
"68 182 LINE SMOOTH",
"68 57 OFFCURVE",
"136 -11 OFFCURVE",
"245 -11 CURVE SMOOTH"
);
}
);
width = 589;
}
);
unicode = 0075;
},
{
glyphname = v;
layers = (
{
hints = (
{
horizontal = 1;
place = "{-1, 21}";
target = up;
type = BottomGhost;
},
{
place = "{12, 525}";
type = Stem;
}
);
layerId = "8768C18F-5D75-4F12-A5E9-2E25CBCA3CBE";
paths = (
{
closed = 1;
nodes = (
"537 501 LINE",
"414 501 LINE",
"276 136 LINE",
"139 501 LINE",
"12 501 LINE",
"219 -1 LINE",
"330 -1 LINE"
);
}
);
width = 547;
}
);
unicode = 0076;
},
{
glyphname = w;
layers = (
{
hints = (
{
place = "{15, 767}";
type = Stem;
},
{
horizontal = 1;
place = "{-1, 157}";
type = Stem;
},
{
horizontal = 1;
place = "{-1, 21}";
target = up;
type = BottomGhost;
},
{
horizontal = 1;
place = "{502, -20}";
target = down;
type = TopGhost;
},
{
horizontal = 1;
place = "{503, -20}";
target = down;
type = TopGhost;
}
);
layerId = "8768C18F-5D75-4F12-A5E9-2E25CBCA3CBE";
paths = (
{
closed = 1;
nodes = (
"15 502 LINE",
"180 -1 LINE",
"287 -1 LINE",
"397 356 LINE",
"509 -1 LINE",
"617 -1 LINE",
"782 502 LINE",
"664 502 LINE",
"560 156 LINE",
"454 503 LINE",
"346 503 LINE",
"240 156 LINE",
"134 502 LINE"
);
}
);
width = 796;
}
);
unicode = 0077;
},
{
glyphname = x;
layers = (
{
hints = (
{
horizontal = 1;
place = "{0, 21}";
target = up;
type = BottomGhost;
},
{
place = "{6, 509}";
type = Stem;
}
);
layerId = "8768C18F-5D75-4F12-A5E9-2E25CBCA3CBE";
paths = (
{
closed = 1;
nodes = (
"6 0 LINE",
"134 0 LINE",
"259 174 LINE",
"385 0 LINE",
"515 0 LINE",
"327 259 LINE",
"505 501 LINE",
"378 501 LINE",
"262 341 LINE",
"146 501 LINE",
"15 501 LINE",
"196 257 LINE"
);
}
);
width = 524;
}
);
unicode = 0078;
},
{
glyphname = y;
layers = (
{
hints = (
{
horizontal = 1;
place = "{-179, 21}";
target = up;
type = BottomGhost;
},
{
place = "{-3, 527}";
type = Stem;
}
);
layerId = "8768C18F-5D75-4F12-A5E9-2E25CBCA3CBE";
paths = (
{
closed = 1;
nodes = (
"218 -2 LINE",
"152 -179 LINE",
"258 -179 LINE",
"524 501 LINE",
"402 501 LINE",
"269 130 LINE",
"123 501 LINE",
"-3 501 LINE"
);
}
);
width = 540;
}
);
unicode = 0079;
},
{
glyphname = z;
layers = (
{
hints = (
{
horizontal = 1;
place = "{0, 97}";
type = Stem;
},
{
horizontal = 1;
place = "{406, 96}";
type = Stem;
},
{
place = "{21, 479}";
type = Stem;
}
);
layerId = "8768C18F-5D75-4F12-A5E9-2E25CBCA3CBE";
paths = (
{
closed = 1;
nodes = (
"500 415 LINE",
"500 502 LINE",
"38 502 LINE",
"38 406 LINE",
"350 406 LINE",
"21 88 LINE",
"21 0 LINE",
"496 0 LINE",
"496 97 LINE",
"170 97 LINE"
);
}
);
width = 519;
}
);
unicode = 007A;
},
{
glyphname = braceleft;
layers = (
{
hints = (
{
horizontal = 1;
place = "{243, 90}";
type = Stem;
},
{
place = "{146, 112}";
type = Stem;
}
);
layerId = "8768C18F-5D75-4F12-A5E9-2E25CBCA3CBE";
paths = (
{
closed = 1;
nodes = (
"30 243 LINE",
"145 243 OFFCURVE",
"146 160 OFFCURVE",
"146 99 CURVE SMOOTH",
"146 76 LINE",
"146 64 LINE SMOOTH",
"146 -92 OFFCURVE",
"191 -137 OFFCURVE",
"368 -150 CURVE",
"376 -73 LINE",
"286 -54 OFFCURVE",
"258 -24 OFFCURVE",
"258 66 CURVE SMOOTH",
"258 96 LINE SMOOTH",
"258 155 OFFCURVE",
"260 246 OFFCURVE",
"158 288 CURVE",
"251 326 OFFCURVE",
"259 387 OFFCURVE",
"259 442 CURVE SMOOTH",
"259 453 OFFCURVE",
"257 481 OFFCURVE",
"257 537 CURVE SMOOTH",
"257 618 OFFCURVE",
"304 636 OFFCURVE",
"376 649 CURVE",
"368 727 LINE",
"177 714 OFFCURVE",
"146 638 OFFCURVE",
"146 465 CURVE SMOOTH",
"146 376 OFFCURVE",
"134 333 OFFCURVE",
"30 333 CURVE"
);
}
);
width = 406;
}
);
unicode = 007B;
},
{
glyphname = bar;
layers = (
{
hints = (
{
horizontal = 1;
place = "{-155, 932}";
type = Stem;
},
{
place = "{91, 97}";
type = Stem;
}
);
layerId = "8768C18F-5D75-4F12-A5E9-2E25CBCA3CBE";
paths = (
{
closed = 1;
nodes = (
"91 777 LINE",
"91 -155 LINE",
"188 -155 LINE",
"188 777 LINE"
);
}
);
width = 279;
}
);
unicode = 007C;
},
{
glyphname = braceright;
layers = (
{
hints = (
{
horizontal = 1;
place = "{243, 90}";
type = Stem;
},
{
place = "{147, 113}";
type = Stem;
}
);
layerId = "8768C18F-5D75-4F12-A5E9-2E25CBCA3CBE";
paths = (
{
closed = 1;
nodes = (
"375 333 LINE",
"268 333 OFFCURVE",
"258 390 OFFCURVE",
"258 442 CURVE SMOOTH",
"258 451 OFFCURVE",
"260 480 OFFCURVE",
"260 529 CURVE SMOOTH",
"260 683 OFFCURVE",
"182 716 OFFCURVE",
"38 727 CURVE",
"30 649 LINE",
"121 633 OFFCURVE",
"147 600 OFFCURVE",
"147 510 CURVE SMOOTH",
"147 408 OFFCURVE",
"145 334 OFFCURVE",
"247 288 CURVE",
"145 245 OFFCURVE",
"147 168 OFFCURVE",
"147 66 CURVE SMOOTH",
"147 57 LINE SMOOTH",
"147 -20 OFFCURVE",
"120 -54 OFFCURVE",
"30 -73 CURVE",
"38 -150 LINE",
"233 -139 OFFCURVE",
"259 -63 OFFCURVE",
"259 115 CURVE SMOOTH",
"259 202 OFFCURVE",
"275 243 OFFCURVE",
"375 243 CURVE"
);
}
);
width = 406;
}
);
unicode = 007D;
},
{
glyphname = asciitilde;
layers = (
{
hints = (
{
place = "{45, 416}";
type = Stem;
},
{
horizontal = 1;
place = "{232, 92}";
type = Stem;
},
{
horizontal = 1;
place = "{282, 92}";
type = Stem;
}
);
layerId = "8768C18F-5D75-4F12-A5E9-2E25CBCA3CBE";
paths = (
{
closed = 1;
nodes = (
"398 380 LINE",
"382 344 OFFCURVE",
"361 324 OFFCURVE",
"330 324 CURVE SMOOTH",
"282 324 OFFCURVE",
"235 374 OFFCURVE",
"168 374 CURVE SMOOTH",
"108 374 OFFCURVE",
"73 336 OFFCURVE",
"45 255 CURVE",
"107 226 LINE",
"124 262 OFFCURVE",
"143 282 OFFCURVE",
"175 282 CURVE SMOOTH",
"225 282 OFFCURVE",
"283 232 OFFCURVE",
"342 232 CURVE SMOOTH",
"397 232 OFFCURVE",
"436 273 OFFCURVE",
"461 350 CURVE"
);
}
);
width = 502;
}
);
unicode = 007E;
},
{
glyphname = Euro;
layers = (
{
hints = (
{
horizontal = 1;
place = "{-16, 105}";
type = Stem;
},
{
horizontal = 1;
place = "{293, 78}";
type = Stem;
},
{
horizontal = 1;
place = "{615, 105}";
type = Stem;
},
{
place = "{8, 117}";
type = Stem;
}
);
layerId = "8768C18F-5D75-4F12-A5E9-2E25CBCA3CBE";
paths = (
{
closed = 1;
nodes = (
"125 371 LINE",
"128 489 OFFCURVE",
"192 615 OFFCURVE",
"317 615 CURVE SMOOTH",
"374 615 OFFCURVE",
"413 590 OFFCURVE",
"449 549 CURVE",
"481 576 OFFCURVE",
"500 592 OFFCURVE",
"532 618 CURVE",
"481 681 OFFCURVE",
"419 720 OFFCURVE",
"318 720 CURVE SMOOTH",
"102 720 OFFCURVE",
"8 535 OFFCURVE",
"8 347 CURVE SMOOTH",
"8 152 OFFCURVE",
"111 -16 OFFCURVE",
"307 -16 CURVE SMOOTH",
"407 -16 OFFCURVE",
"481 23 OFFCURVE",
"533 88 CURVE",
"451 157 LINE",
"416 114 OFFCURVE",
"370 89 OFFCURVE",
"314 89 CURVE SMOOTH",
"194 89 OFFCURVE",
"141 193 OFFCURVE",
"130 293 CURVE",
"350 293 LINE",
"350 371 LINE"
);
}
);
width = 556;
}
);
unicode = 20AC;
},
{
glyphname = quotesinglbase;
layers = (
{
hints = (
{
horizontal = 1;
place = "{-149, 285}";
type = Stem;
},
{
place = "{20, 171}";
type = Stem;
}
);
layerId = "8768C18F-5D75-4F12-A5E9-2E25CBCA3CBE";
paths = (
{
closed = 1;
nodes = (
"191 136 LINE",
"70 136 LINE",
"20 -149 LINE",
"106 -149 LINE"
);
}
);
width = 227;
}
);
unicode = 201A;
},
{
glyphname = florin;
layers = (
{
hints = (
{
place = "{20, 408}";
type = Stem;
},
{
horizontal = 1;
place = "{357, 93}";
type = Stem;
},
{
horizontal = 1;
place = "{627, 96}";
type = Stem;
},
{
horizontal = 1;
place = "{712, -20}";
target = down;
type = TopGhost;
}
);
layerId = "8768C18F-5D75-4F12-A5E9-2E25CBCA3CBE";
paths = (
{
closed = 1;
nodes = (
"20 -123 LINE",
"135 -123 LINE",
"237 357 LINE",
"342 357 LINE",
"360 450 LINE",
"254 450 LINE",
"267 512 LINE SMOOTH",
"285 601 OFFCURVE",
"316 627 OFFCURVE",
"368 627 CURVE SMOOTH",
"383 627 OFFCURVE",
"398 624 OFFCURVE",
"411 619 CURVE",
"428 712 LINE",
"405 719 OFFCURVE",
"378 723 OFFCURVE",
"350 723 CURVE SMOOTH",
"262 723 OFFCURVE",
"185 679 OFFCURVE",
"156 544 CURVE SMOOTH",
"136 450 LINE",
"61 450 LINE",
"43 357 LINE",
"118 357 LINE"
);
}
);
width = 472;
}
);
unicode = 0192;
},
{
glyphname = quotedblbase;
layers = (
{
hints = (
{
horizontal = 1;
place = "{-149, 285}";
type = Stem;
},
{
place = "{19, 371}";
type = Stem;
}
);
layerId = "8768C18F-5D75-4F12-A5E9-2E25CBCA3CBE";
paths = (
{
closed = 1;
nodes = (
"190 136 LINE",
"69 136 LINE",
"19 -149 LINE",
"105 -149 LINE"
);
},
{
closed = 1;
nodes = (
"390 136 LINE",
"271 136 LINE",
"220 -149 LINE",
"306 -149 LINE"
);
}
);
width = 429;
}
);
unicode = 201E;
},
{
glyphname = ellipsis;
layers = (
{
hints = (
{
horizontal = 1;
place = "{-8, 146}";
type = Stem;
},
{
place = "{97, 152}";
type = Stem;
},
{
place = "{355, 153}";
type = Stem;
},
{
place = "{614, 150}";
type = Stem;
}
);
layerId = "8768C18F-5D75-4F12-A5E9-2E25CBCA3CBE";
paths = (
{
closed = 1;
nodes = (
"97 19 OFFCURVE",
"131 -8 OFFCURVE",
"172 -8 CURVE SMOOTH",
"215 -8 OFFCURVE",
"249 19 OFFCURVE",
"249 66 CURVE SMOOTH",
"249 111 OFFCURVE",
"215 138 OFFCURVE",
"172 138 CURVE SMOOTH",
"131 138 OFFCURVE",
"97 111 OFFCURVE",
"97 66 CURVE SMOOTH"
);
},
{
closed = 1;
nodes = (
"355 19 OFFCURVE",
"388 -8 OFFCURVE",
"431 -8 CURVE SMOOTH",
"474 -8 OFFCURVE",
"508 19 OFFCURVE",
"508 66 CURVE SMOOTH",
"508 111 OFFCURVE",
"474 138 OFFCURVE",
"431 138 CURVE SMOOTH",
"388 138 OFFCURVE",
"355 111 OFFCURVE",
"355 66 CURVE SMOOTH"
);
},
{
closed = 1;
nodes = (
"614 19 OFFCURVE",
"646 -8 OFFCURVE",
"689 -8 CURVE SMOOTH",
"732 -8 OFFCURVE",
"764 19 OFFCURVE",
"764 66 CURVE SMOOTH",
"764 111 OFFCURVE",
"732 138 OFFCURVE",
"689 138 CURVE SMOOTH",
"646 138 OFFCURVE",
"614 111 OFFCURVE",
"614 66 CURVE SMOOTH"
);
}
);
width = 861;
}
);
unicode = 2026;
},
{
glyphname = dagger;
layers = (
{
hints = (
{
horizontal = 1;
place = "{481, 68}";
type = Stem;
},
{
horizontal = 1;
place = "{708, -20}";
target = down;
type = TopGhost;
},
{
place = "{174, 72}";
type = Stem;
}
);
layerId = "8768C18F-5D75-4F12-A5E9-2E25CBCA3CBE";
paths = (
{
closed = 1;
nodes = (
"252 708 LINE",
"168 708 LINE",
"177 546 LINE",
"41 553 LINE",
"41 477 LINE",
"178 485 LINE",
"170 63 LINE",
"250 63 LINE",
"242 485 LINE",
"381 477 LINE",
"381 553 LINE",
"243 546 LINE"
);
}
);
width = 421;
}
);
unicode = 2020;
},
{
glyphname = daggerdbl;
layers = (
{
hints = (
{
place = "{171, 75}";
type = Stem;
},
{
place = "{176, 66}";
type = Stem;
},
{
horizontal = 1;
place = "{86, 70}";
type = Stem;
},
{
horizontal = 1;
place = "{483, 69}";
type = Stem;
},
{
horizontal = 1;
place = "{708, -20}";
target = down;
type = TopGhost;
}
);
layerId = "8768C18F-5D75-4F12-A5E9-2E25CBCA3CBE";
paths = (
{
closed = 1;
nodes = (
"168 -61 LINE",
"251 -61 LINE",
"242 90 LINE",
"377 83 LINE",
"377 161 LINE",
"242 153 LINE",
"245 247 OFFCURVE",
"245 393 OFFCURVE",
"242 487 CURVE",
"377 479 LINE",
"377 556 LINE",
"242 549 LINE",
"251 708 LINE",
"168 708 LINE",
"174 549 LINE",
"40 556 LINE",
"40 479 LINE",
"176 487 LINE",
"173 393 OFFCURVE",
"173 247 OFFCURVE",
"176 153 CURVE",
"40 161 LINE",
"40 83 LINE",
"174 90 LINE"
);
}
);
width = 417;
}
);
unicode = 2021;
},
{
glyphname = circumflex;
layers = (
{
hints = (
{
horizontal = 1;
place = "{543, 156}";
type = Stem;
},
{
place = "{13, 317}";
type = Stem;
}
);
layerId = "8768C18F-5D75-4F12-A5E9-2E25CBCA3CBE";
paths = (
{
closed = 1;
nodes = (
"213 699 LINE",
"131 699 LINE",
"13 543 LINE",
"101 543 LINE",
"171 618 LINE",
"243 543 LINE",
"330 543 LINE"
);
}
);
width = 343;
}
);
unicode = 02C6;
},
{
glyphname = perthousand;
layers = (
{
hints = (
{
place = "{30, 84}";
type = Stem;
},
{
place = "{280, 85}";
type = Stem;
},
{
place = "{438, 85}";
type = Stem;
},
{
place = "{688, 85}";
type = Stem;
},
{
place = "{818, 85}";
type = Stem;
},
{
place = "{1069, 84}";
type = Stem;
},
{
horizontal = 1;
place = "{-11, 76}";
type = Stem;
},
{
horizontal = 1;
place = "{0, 21}";
target = up;
type = BottomGhost;
},
{
horizontal = 1;
place = "{272, 76}";
type = Stem;
},
{
horizontal = 1;
place = "{350, 76}";
type = Stem;
},
{
horizontal = 1;
place = "{634, 76}";
type = Stem;
}
);
layerId = "8768C18F-5D75-4F12-A5E9-2E25CBCA3CBE";
paths = (
{
closed = 1;
nodes = (
"365 631 OFFCURVE",
"298 710 OFFCURVE",
"199 710 CURVE SMOOTH",
"98 710 OFFCURVE",
"30 628 OFFCURVE",
"30 530 CURVE SMOOTH",
"30 432 OFFCURVE",
"95 350 OFFCURVE",
"198 350 CURVE SMOOTH",
"296 350 OFFCURVE",
"365 431 OFFCURVE",
"365 531 CURVE SMOOTH"
);
},
{
closed = 1;
nodes = (
"608 701 LINE",
"104 0 LINE",
"206 0 LINE",
"278 102 OFFCURVE",
"367 227 OFFCURVE",
"456 350 CURVE SMOOTH",
"545 473 OFFCURVE",
"637 597 OFFCURVE",
"709 701 CURVE"
);
},
{
closed = 1;
nodes = (
"280 470 OFFCURVE",
"247 426 OFFCURVE",
"199 426 CURVE SMOOTH",
"150 426 OFFCURVE",
"114 470 OFFCURVE",
"114 531 CURVE SMOOTH",
"114 592 OFFCURVE",
"146 634 OFFCURVE",
"195 634 CURVE SMOOTH",
"247 634 OFFCURVE",
"280 590 OFFCURVE",
"280 530 CURVE SMOOTH"
);
},
{
closed = 1;
nodes = (
"773 269 OFFCURVE",
"704 348 OFFCURVE",
"607 348 CURVE SMOOTH",
"507 348 OFFCURVE",
"438 270 OFFCURVE",
"438 168 CURVE SMOOTH",
"438 70 OFFCURVE",
"507 -11 OFFCURVE",
"606 -11 CURVE SMOOTH",
"704 -11 OFFCURVE",
"773 71 OFFCURVE",
"773 171 CURVE SMOOTH"
);
},
{
closed = 1;
nodes = (
"1153 269 OFFCURVE",
"1086 348 OFFCURVE",
"987 348 CURVE SMOOTH",
"889 348 OFFCURVE",
"818 270 OFFCURVE",
"818 168 CURVE SMOOTH",
"818 70 OFFCURVE",
"888 -11 OFFCURVE",
"986 -11 CURVE SMOOTH",
"1086 -11 OFFCURVE",
"1153 71 OFFCURVE",
"1153 171 CURVE SMOOTH"
);
},
{
closed = 1;
nodes = (
"688 106 OFFCURVE",
"658 65 OFFCURVE",
"607 65 CURVE SMOOTH",
"558 65 OFFCURVE",
"523 109 OFFCURVE",
"523 170 CURVE SMOOTH",
"523 230 OFFCURVE",
"557 272 OFFCURVE",
"606 272 CURVE SMOOTH",
"654 272 OFFCURVE",
"688 231 OFFCURVE",
"688 166 CURVE SMOOTH"
);
},
{
closed = 1;
nodes = (
"1069 106 OFFCURVE",
"1039 65 OFFCURVE",
"987 65 CURVE SMOOTH",
"939 65 OFFCURVE",
"903 109 OFFCURVE",
"903 170 CURVE SMOOTH",
"903 230 OFFCURVE",
"937 272 OFFCURVE",
"986 272 CURVE SMOOTH",
"1034 272 OFFCURVE",
"1069 231 OFFCURVE",
"1069 166 CURVE SMOOTH"
);
}
);
width = 1184;
}
);
unicode = 2030;
},
{
glyphname = guilsinglleft;
layers = (
{
hints = (
{
horizontal = 1;
place = "{38, 433}";
type = Stem;
},
{
place = "{29, 252}";
type = Stem;
}
);
layerId = "8768C18F-5D75-4F12-A5E9-2E25CBCA3CBE";
paths = (
{
closed = 1;
nodes = (
"151 255 LINE",
"281 435 LINE",
"188 471 LINE",
"29 253 LINE",
"188 38 LINE",
"280 78 LINE"
);
}
);
width = 305;
}
);
unicode = 2039;
},
{
glyphname = quoteleft;
layers = (
{
hints = (
{
horizontal = 1;
place = "{706, -20}";
target = down;
type = TopGhost;
},
{
place = "{33, 171}";
type = Stem;
}
);
layerId = "8768C18F-5D75-4F12-A5E9-2E25CBCA3CBE";
paths = (
{
closed = 1;
nodes = (
"33 422 LINE",
"153 422 LINE",
"204 706 LINE",
"117 706 LINE"
);
}
);
width = 227;
}
);
unicode = 2018;
},
{
glyphname = quoteright;
layers = (
{
hints = (
{
horizontal = 1;
place = "{703, -20}";
target = down;
type = TopGhost;
},
{
place = "{32, 171}";
type = Stem;
}
);
layerId = "8768C18F-5D75-4F12-A5E9-2E25CBCA3CBE";
paths = (
{
closed = 1;
nodes = (
"203 703 LINE",
"82 703 LINE",
"32 419 LINE",
"118 419 LINE"
);
}
);
width = 227;
}
);
unicode = 2019;
},
{
glyphname = quotedblleft;
layers = (
{
hints = (
{
place = "{32, 371}";
type = Stem;
},
{
horizontal = 1;
place = "{422, 284}";
type = Stem;
},
{
horizontal = 1;
place = "{706, -20}";
target = down;
type = TopGhost;
}
);
layerId = "8768C18F-5D75-4F12-A5E9-2E25CBCA3CBE";
paths = (
{
closed = 1;
nodes = (
"32 422 LINE",
"152 422 LINE",
"203 706 LINE",
"116 706 LINE"
);
},
{
closed = 1;
nodes = (
"233 422 LINE",
"353 422 LINE",
"403 706 LINE",
"317 706 LINE"
);
}
);
width = 425;
}
);
unicode = 201C;
},
{
glyphname = quotedblright;
layers = (
{
hints = (
{
place = "{31, 371}";
type = Stem;
},
{
horizontal = 1;
place = "{419, 284}";
type = Stem;
},
{
horizontal = 1;
place = "{703, -20}";
target = down;
type = TopGhost;
}
);
layerId = "8768C18F-5D75-4F12-A5E9-2E25CBCA3CBE";
paths = (
{
closed = 1;
nodes = (
"202 703 LINE",
"82 703 LINE",
"31 419 LINE",
"117 419 LINE"
);
},
{
closed = 1;
nodes = (
"402 703 LINE",
"283 703 LINE",
"232 419 LINE",
"319 419 LINE"
);
}
);
width = 426;
}
);
unicode = 201D;
},
{
glyphname = bullet;
layers = (
{
hints = (
{
horizontal = 1;
place = "{508, -20}";
target = down;
type = TopGhost;
},
{
place = "{38, 310}";
type = Stem;
}
);
layerId = "8768C18F-5D75-4F12-A5E9-2E25CBCA3CBE";
paths = (
{
closed = 1;
nodes = (
"38 268 OFFCURVE",
"109 199 OFFCURVE",
"193 199 CURVE SMOOTH",
"277 199 OFFCURVE",
"348 267 OFFCURVE",
"348 354 CURVE SMOOTH",
"348 439 OFFCURVE",
"277 508 OFFCURVE",
"193 508 CURVE SMOOTH",
"108 508 OFFCURVE",
"38 437 OFFCURVE",
"38 352 CURVE SMOOTH"
);
}
);
width = 386;
}
);
unicode = 2022;
},
{
glyphname = endash;
layers = (
{
hints = (
{
horizontal = 1;
place = "{241, 105}";
type = Stem;
},
{
place = "{31, 441}";
type = Stem;
}
);
layerId = "8768C18F-5D75-4F12-A5E9-2E25CBCA3CBE";
paths = (
{
closed = 1;
nodes = (
"472 346 LINE",
"31 346 LINE",
"31 241 LINE",
"472 241 LINE"
);
}
);
width = 504;
}
);
unicode = 2013;
},
{
glyphname = emdash;
layers = (
{
hints = (
{
horizontal = 1;
place = "{241, 105}";
type = Stem;
},
{
place = "{31, 728}";
type = Stem;
}
);
layerId = "8768C18F-5D75-4F12-A5E9-2E25CBCA3CBE";
paths = (
{
closed = 1;
nodes = (
"759 346 LINE",
"31 346 LINE",
"31 241 LINE",
"759 241 LINE"
);
}
);
width = 790;
}
);
unicode = 2014;
},
{
glyphname = tilde;
layers = (
{
hints = (
{
place = "{16, 346}";
type = Stem;
},
{
horizontal = 1;
place = "{552, 85}";
type = Stem;
},
{
horizontal = 1;
place = "{588, 85}";
type = Stem;
}
);
layerId = "8768C18F-5D75-4F12-A5E9-2E25CBCA3CBE";
paths = (
{
closed = 1;
nodes = (
"86 542 LINE",
"97 575 OFFCURVE",
"116 588 OFFCURVE",
"137 588 CURVE SMOOTH",
"173 588 OFFCURVE",
"213 552 OFFCURVE",
"257 552 CURVE SMOOTH",
"310 552 OFFCURVE",
"342 597 OFFCURVE",
"362 669 CURVE",
"293 682 LINE",
"282 651 OFFCURVE",
"271 637 OFFCURVE",
"251 637 CURVE SMOOTH",
"218 637 OFFCURVE",
"178 673 OFFCURVE",
"129 673 CURVE SMOOTH",
"74 673 OFFCURVE",
"36 625 OFFCURVE",
"16 554 CURVE"
);
}
);
width = 377;
}
);
unicode = 02DC;
},
{
glyphname = trademark;
layers = (
{
hints = (
{
horizontal = 1;
place = "{627, 79}";
type = Stem;
},
{
place = "{159, 86}";
type = Stem;
},
{
place = "{434, 86}";
type = Stem;
},
{
place = "{798, 87}";
type = Stem;
}
);
layerId = "8768C18F-5D75-4F12-A5E9-2E25CBCA3CBE";
paths = (
{
closed = 1;
nodes = (
"374 706 LINE",
"29 706 LINE",
"29 627 LINE",
"159 627 LINE",
"159 292 LINE",
"245 292 LINE",
"245 627 LINE",
"374 627 LINE"
);
},
{
closed = 1;
nodes = (
"885 706 LINE",
"774 706 LINE",
"660 438 LINE",
"547 706 LINE",
"434 706 LINE",
"434 292 LINE",
"520 292 LINE",
"520 561 LINE",
"631 292 LINE",
"686 292 LINE",
"798 559 LINE",
"798 292 LINE",
"885 292 LINE"
);
}
);
width = 897;
}
);
unicode = 2122;
},
{
glyphname = guilsinglright;
layers = (
{
hints = (
{
horizontal = 1;
place = "{38, 433}";
type = Stem;
},
{
place = "{24, 252}";
type = Stem;
}
);
layerId = "8768C18F-5D75-4F12-A5E9-2E25CBCA3CBE";
paths = (
{
closed = 1;
nodes = (
"26 78 LINE",
"118 38 LINE",
"276 253 LINE",
"117 471 LINE",
"24 435 LINE",
"154 255 LINE"
);
}
);
width = 304;
}
);
unicode = 203A;
},
{
glyphname = exclamdown;
layers = (
{
hints = (
{
place = "{54, 151}";
type = Stem;
},
{
place = "{63, 133}";
type = Stem;
},
{
horizontal = 1;
place = "{512, 142}";
type = Stem;
}
);
layerId = "8768C18F-5D75-4F12-A5E9-2E25CBCA3CBE";
paths = (
{
closed = 1;
nodes = (
"205 628 OFFCURVE",
"170 654 OFFCURVE",
"130 654 CURVE SMOOTH",
"87 654 OFFCURVE",
"54 628 OFFCURVE",
"54 583 CURVE SMOOTH",
"54 540 OFFCURVE",
"87 512 OFFCURVE",
"130 512 CURVE SMOOTH",
"170 512 OFFCURVE",
"205 540 OFFCURVE",
"205 583 CURVE SMOOTH"
);
},
{
closed = 1;
nodes = (
"198 -59 LINE",
"195 53 LINE",
"165 433 LINE",
"95 433 LINE",
"65 53 LINE",
"61 -59 LINE"
);
}
);
width = 258;
}
);
unicode = 00A1;
},
{
glyphname = cent;
layers = (
{
hints = (
{
horizontal = 1;
place = "{-11, 21}";
target = up;
type = BottomGhost;
},
{
horizontal = 1;
place = "{73, 95}";
type = Stem;
},
{
horizontal = 1;
place = "{492, 180}";
type = Stem;
},
{
place = "{74, 109}";
type = Stem;
},
{
place = "{331, 80}";
type = Stem;
}
);
layerId = "8768C18F-5D75-4F12-A5E9-2E25CBCA3CBE";
paths = (
{
closed = 1;
nodes = (
"490 546 LINE",
"463 566 OFFCURVE",
"434 579 OFFCURVE",
"406 586 CURVE",
"417 672 LINE",
"336 672 LINE",
"326 595 LINE",
"177 590 OFFCURVE",
"74 480 OFFCURVE",
"74 332 CURVE SMOOTH",
"74 215 OFFCURVE",
"149 117 OFFCURVE",
"258 85 CURVE",
"244 -11 LINE",
"326 -11 LINE",
"338 73 LINE",
"402 74 OFFCURVE",
"451 94 OFFCURVE",
"491 127 CURVE",
"491 238 LINE",
"455 199 OFFCURVE",
"403 168 OFFCURVE",
"346 168 CURVE",
"388 492 LINE",
"429 487 OFFCURVE",
"467 463 OFFCURVE",
"490 436 CURVE"
);
},
{
closed = 1;
nodes = (
"275 180 LINE",
"218 209 OFFCURVE",
"183 259 OFFCURVE",
"183 335 CURVE SMOOTH",
"183 431 OFFCURVE",
"233 489 OFFCURVE",
"316 497 CURVE"
);
}
);
width = 569;
}
);
unicode = 00A2;
},
{
glyphname = sterling;
layers = (
{
hints = (
{
horizontal = 1;
place = "{0, 100}";
type = Stem;
},
{
horizontal = 1;
place = "{291, 91}";
type = Stem;
},
{
horizontal = 1;
place = "{606, 109}";
type = Stem;
},
{
place = "{125, 122}";
type = Stem;
}
);
layerId = "8768C18F-5D75-4F12-A5E9-2E25CBCA3CBE";
paths = (
{
closed = 1;
nodes = (
"486 382 LINE",
"247 382 LINE",
"247 467 LINE SMOOTH",
"247 544 OFFCURVE",
"283 606 OFFCURVE",
"365 606 CURVE SMOOTH",
"422 606 OFFCURVE",
"457 583 OFFCURVE",
"492 542 CURVE",
"572 617 LINE",
"524 676 OFFCURVE",
"457 715 OFFCURVE",
"362 715 CURVE SMOOTH",
"211 715 OFFCURVE",
"125 614 OFFCURVE",
"125 467 CURVE SMOOTH",
"125 382 LINE",
"56 382 LINE",
"56 291 LINE",
"125 291 LINE",
"125 0 LINE",
"565 0 LINE",
"565 100 LINE",
"247 100 LINE",
"247 291 LINE",
"486 291 LINE"
);
}
);
width = 619;
}
);
unicode = 00A3;
},
{
glyphname = currency;
layers = (
{
hints = (
{
horizontal = 1;
place = "{72, 89}";
type = Stem;
},
{
horizontal = 1;
place = "{496, 88}";
type = Stem;
},
{
place = "{73, 95}";
type = Stem;
},
{
place = "{491, 97}";
type = Stem;
}
);
layerId = "8768C18F-5D75-4F12-A5E9-2E25CBCA3CBE";
paths = (
{
closed = 1;
nodes = (
"572 629 LINE",
"479 537 LINE",
"438 568 OFFCURVE",
"386 584 OFFCURVE",
"330 584 CURVE SMOOTH",
"274 584 OFFCURVE",
"223 568 OFFCURVE",
"178 536 CURVE",
"84 629 LINE",
"25 569 LINE",
"118 477 LINE",
"85 430 OFFCURVE",
"73 387 OFFCURVE",
"73 328 CURVE SMOOTH",
"73 268 OFFCURVE",
"89 220 OFFCURVE",
"121 179 CURVE",
"25 83 LINE",
"84 23 LINE",
"181 118 LINE",
"228 87 OFFCURVE",
"275 72 OFFCURVE",
"330 72 CURVE SMOOTH",
"385 72 OFFCURVE",
"433 88 OFFCURVE",
"478 117 CURVE",
"573 23 LINE",
"633 83 LINE",
"539 176 LINE",
"571 220 OFFCURVE",
"588 269 OFFCURVE",
"588 328 CURVE SMOOTH",
"588 388 OFFCURVE",
"572 431 OFFCURVE",
"541 479 CURVE",
"633 569 LINE"
);
},
{
closed = 1;
nodes = (
"426 496 OFFCURVE",
"491 423 OFFCURVE",
"491 328 CURVE SMOOTH",
"491 235 OFFCURVE",
"426 161 OFFCURVE",
"330 161 CURVE SMOOTH",
"232 161 OFFCURVE",
"168 236 OFFCURVE",
"168 328 CURVE SMOOTH",
"168 421 OFFCURVE",
"232 496 OFFCURVE",
"330 496 CURVE SMOOTH"
);
}
);
width = 656;
}
);
unicode = 00A4;
},
{
glyphname = yen;
layers = (
{
hints = (
{
place = "{260, 127}";
type = Stem;
},
{
place = "{264, 118}";
type = Stem;
},
{
horizontal = 1;
place = "{0, 213}";
type = Stem;
},
{
horizontal = 1;
place = "{128, 85}";
type = Stem;
},
{
horizontal = 1;
place = "{290, 84}";
type = Stem;
},
{
horizontal = 1;
place = "{703, -20}";
target = down;
type = TopGhost;
}
);
layerId = "8768C18F-5D75-4F12-A5E9-2E25CBCA3CBE";
paths = (
{
closed = 1;
nodes = (
"79 213 LINE",
"79 128 LINE",
"264 128 LINE",
"264 0 LINE",
"382 0 LINE",
"382 128 LINE",
"566 128 LINE",
"566 213 LINE",
"383 213 LINE",
"391 290 LINE",
"566 290 LINE",
"566 374 LINE",
"424 374 LINE",
"636 703 LINE",
"501 703 LINE",
"325 405 LINE",
"149 703 LINE",
"10 703 LINE",
"222 374 LINE",
"79 374 LINE",
"79 290 LINE",
"255 290 LINE",
"265 213 LINE"
);
}
);
width = 645;
}
);
unicode = 00A5;
},
{
glyphname = brokenbar;
layers = (
{
hints = (
{
horizontal = 1;
place = "{-174, 850}";
type = Stem;
},
{
place = "{91, 106}";
type = Stem;
}
);
layerId = "8768C18F-5D75-4F12-A5E9-2E25CBCA3CBE";
paths = (
{
closed = 1;
nodes = (
"91 676 LINE",
"91 326 LINE",
"197 326 LINE",
"197 676 LINE"
);
},
{
closed = 1;
nodes = (
"91 173 LINE",
"91 -174 LINE",
"197 -174 LINE",
"197 173 LINE"
);
}
);
width = 289;
}
);
unicode = 00A6;
},
{
glyphname = section;
layers = (
{
hints = (
{
place = "{55, 100}";
type = Stem;
},
{
place = "{104, 112}";
type = Stem;
},
{
place = "{389, 113}";
type = Stem;
},
{
place = "{450, 100}";
type = Stem;
},
{
horizontal = 1;
place = "{-62, 89}";
type = Stem;
},
{
horizontal = 1;
place = "{-11, 21}";
target = up;
type = BottomGhost;
},
{
horizontal = 1;
place = "{631, 88}";
type = Stem;
}
);
layerId = "8768C18F-5D75-4F12-A5E9-2E25CBCA3CBE";
paths = (
{
closed = 1;
nodes = (
"463 672 LINE",
"422 701 OFFCURVE",
"367 719 OFFCURVE",
"303 719 CURVE SMOOTH",
"183 719 OFFCURVE",
"104 658 OFFCURVE",
"104 573 CURVE SMOOTH",
"104 524 OFFCURVE",
"132 485 OFFCURVE",
"168 460 CURVE",
"96 441 OFFCURVE",
"55 399 OFFCURVE",
"55 338 CURVE SMOOTH",
"55 265 OFFCURVE",
"119 218 OFFCURVE",
"253 180 CURVE SMOOTH",
"342 155 OFFCURVE",
"389 125 OFFCURVE",
"389 88 CURVE SMOOTH",
"389 48 OFFCURVE",
"358 27 OFFCURVE",
"303 27 CURVE SMOOTH",
"242 27 OFFCURVE",
"183 50 OFFCURVE",
"136 95 CURVE",
"136 -11 LINE",
"179 -42 OFFCURVE",
"235 -62 OFFCURVE",
"302 -62 CURVE SMOOTH",
"424 -62 OFFCURVE",
"502 3 OFFCURVE",
"502 91 CURVE SMOOTH",
"502 135 OFFCURVE",
"479 171 OFFCURVE",
"439 202 CURVE",
"508 222 OFFCURVE",
"550 260 OFFCURVE",
"550 324 CURVE SMOOTH",
"550 395 OFFCURVE",
"495 437 OFFCURVE",
"349 482 CURVE SMOOTH",
"248 514 OFFCURVE",
"216 544 OFFCURVE",
"216 573 CURVE SMOOTH",
"216 612 OFFCURVE",
"252 631 OFFCURVE",
"305 631 CURVE SMOOTH",
"365 631 OFFCURVE",
"412 607 OFFCURVE",
"463 567 CURVE"
);
},
{
closed = 1;
nodes = (
"450 269 OFFCURVE",
"418 244 OFFCURVE",
"367 244 CURVE",
"264 258 OFFCURVE",
"155 295 OFFCURVE",
"155 354 CURVE SMOOTH",
"155 391 OFFCURVE",
"190 413 OFFCURVE",
"239 417 CURVE",
"297 409 OFFCURVE",
"450 369 OFFCURVE",
"450 302 CURVE SMOOTH"
);
}
);
width = 603;
}
);
unicode = 00A7;
},
{
glyphname = dieresis;
layers = (
{
hints = (
{
horizontal = 1;
place = "{528, 136}";
type = Stem;
},
{
place = "{-9, 138}";
type = Stem;
},
{
place = "{194, 136}";
type = Stem;
}
);
layerId = "8768C18F-5D75-4F12-A5E9-2E25CBCA3CBE";
paths = (
{
closed = 1;
nodes = (
"-9 555 OFFCURVE",
"20 528 OFFCURVE",
"59 528 CURVE SMOOTH",
"98 528 OFFCURVE",
"129 555 OFFCURVE",
"129 596 CURVE SMOOTH",
"129 636 OFFCURVE",
"98 664 OFFCURVE",
"59 664 CURVE SMOOTH",
"20 664 OFFCURVE",
"-9 636 OFFCURVE",
"-9 596 CURVE SMOOTH"
);
},
{
closed = 1;
nodes = (
"194 555 OFFCURVE",
"224 528 OFFCURVE",
"261 528 CURVE SMOOTH",
"301 528 OFFCURVE",
"330 555 OFFCURVE",
"330 596 CURVE SMOOTH",
"330 636 OFFCURVE",
"301 664 OFFCURVE",
"261 664 CURVE SMOOTH",
"224 664 OFFCURVE",
"194 636 OFFCURVE",
"194 596 CURVE SMOOTH"
);
}
);
width = 322;
}
);
unicode = 00A8;
},
{
glyphname = copyright;
layers = (
{
hints = (
{
horizontal = 1;
place = "{-47, 60}";
type = Stem;
},
{
horizontal = 1;
place = "{122, 86}";
type = Stem;
},
{
horizontal = 1;
place = "{477, 86}";
type = Stem;
},
{
horizontal = 1;
place = "{663, 59}";
type = Stem;
},
{
place = "{40, 57}";
type = Stem;
},
{
place = "{211, 98}";
type = Stem;
},
{
place = "{744, 58}";
type = Stem;
}
);
layerId = "8768C18F-5D75-4F12-A5E9-2E25CBCA3CBE";
paths = (
{
closed = 1;
nodes = (
"632 -47 OFFCURVE",
"802 127 OFFCURVE",
"802 338 CURVE SMOOTH",
"802 549 OFFCURVE",
"631 722 OFFCURVE",
"421 722 CURVE SMOOTH",
"210 722 OFFCURVE",
"40 548 OFFCURVE",
"40 340 CURVE SMOOTH",
"40 127 OFFCURVE",
"206 -47 OFFCURVE",
"421 -47 CURVE SMOOTH"
);
},
{
closed = 1;
nodes = (
"239 13 OFFCURVE",
"97 160 OFFCURVE",
"97 339 CURVE SMOOTH",
"97 516 OFFCURVE",
"240 663 OFFCURVE",
"421 663 CURVE SMOOTH",
"601 663 OFFCURVE",
"744 517 OFFCURVE",
"744 338 CURVE SMOOTH",
"744 158 OFFCURVE",
"601 13 OFFCURVE",
"421 13 CURVE SMOOTH"
);
},
{
closed = 1;
nodes = (
"546 255 LINE",
"507 220 OFFCURVE",
"469 208 OFFCURVE",
"434 208 CURVE SMOOTH",
"359 208 OFFCURVE",
"309 268 OFFCURVE",
"309 344 CURVE SMOOTH",
"309 420 OFFCURVE",
"362 477 OFFCURVE",
"433 477 CURVE SMOOTH",
"476 477 OFFCURVE",
"517 457 OFFCURVE",
"546 429 CURVE",
"546 526 LINE",
"519 545 OFFCURVE",
"478 563 OFFCURVE",
"427 563 CURVE SMOOTH",
"300 563 OFFCURVE",
"211 467 OFFCURVE",
"211 344 CURVE SMOOTH",
"211 221 OFFCURVE",
"301 122 OFFCURVE",
"424 122 CURVE SMOOTH",
"475 122 OFFCURVE",
"514 139 OFFCURVE",
"546 164 CURVE"
);
}
);
width = 839;
}
);
unicode = 00A9;
},
{
glyphname = ordfeminine;
layers = (
{
hints = (
{
horizontal = 1;
place = "{284, 57}";
type = Stem;
},
{
horizontal = 1;
place = "{407, 50}";
type = Stem;
},
{
horizontal = 1;
place = "{551, 42}";
type = Stem;
},
{
horizontal = 1;
place = "{650, 58}";
type = Stem;
},
{
place = "{38, 68}";
type = Stem;
},
{
place = "{236, 68}";
type = Stem;
}
);
layerId = "8768C18F-5D75-4F12-A5E9-2E25CBCA3CBE";
paths = (
{
closed = 1;
nodes = (
"181 407 OFFCURVE",
"214 424 OFFCURVE",
"235 452 CURVE",
"235 413 LINE",
"304 413 LINE",
"304 586 LINE SMOOTH",
"304 667 OFFCURVE",
"254 708 OFFCURVE",
"173 708 CURVE SMOOTH",
"130 708 OFFCURVE",
"94 698 OFFCURVE",
"63 683 CURVE",
"80 629 LINE",
"107 642 OFFCURVE",
"133 650 OFFCURVE",
"164 650 CURVE SMOOTH",
"209 650 OFFCURVE",
"236 628 OFFCURVE",
"236 587 CURVE SMOOTH",
"236 580 LINE",
"212 588 OFFCURVE",
"190 593 OFFCURVE",
"159 593 CURVE SMOOTH",
"87 593 OFFCURVE",
"38 562 OFFCURVE",
"38 498 CURVE SMOOTH",
"38 439 OFFCURVE",
"90 407 OFFCURVE",
"142 407 CURVE SMOOTH"
);
},
{
closed = 1;
nodes = (
"130 457 OFFCURVE",
"106 473 OFFCURVE",
"106 502 CURVE SMOOTH",
"106 533 OFFCURVE",
"131 551 OFFCURVE",
"172 551 CURVE SMOOTH",
"199 551 OFFCURVE",
"219 546 OFFCURVE",
"236 538 CURVE",
"236 520 LINE SMOOTH",
"236 481 OFFCURVE",
"201 457 OFFCURVE",
"161 457 CURVE SMOOTH"
);
},
{
closed = 1;
nodes = (
"35 284 LINE",
"309 284 LINE",
"309 341 LINE",
"35 341 LINE"
);
}
);
width = 350;
}
);
unicode = 00AA;
},
{
glyphname = guillemotleft;
layers = (
{
hints = (
{
horizontal = 1;
place = "{38, 433}";
type = Stem;
},
{
place = "{29, 483}";
type = Stem;
}
);
layerId = "8768C18F-5D75-4F12-A5E9-2E25CBCA3CBE";
paths = (
{
closed = 1;
nodes = (
"151 255 LINE",
"281 435 LINE",
"188 471 LINE",
"29 253 LINE",
"188 38 LINE",
"280 78 LINE"
);
},
{
closed = 1;
nodes = (
"382 255 LINE",
"512 435 LINE",
"419 471 LINE",
"260 253 LINE",
"419 38 LINE",
"511 78 LINE"
);
}
);
width = 536;
}
);
unicode = 00AB;
},
{
glyphname = logicalnot;
layers = (
{
hints = (
{
horizontal = 1;
place = "{319, 93}";
type = Stem;
},
{
place = "{464, 95}";
type = Stem;
}
);
layerId = "8768C18F-5D75-4F12-A5E9-2E25CBCA3CBE";
paths = (
{
closed = 1;
nodes = (
"559 412 LINE",
"42 412 LINE",
"42 319 LINE",
"464 319 LINE",
"464 127 LINE",
"559 127 LINE"
);
}
);
width = 601;
}
);
unicode = 00AC;
},
{
glyphname = registered;
layers = (
{
hints = (
{
horizontal = 1;
place = "{4, 54}";
type = Stem;
},
{
horizontal = 1;
place = "{320, 71}";
type = Stem;
},
{
horizontal = 1;
place = "{502, 72}";
type = Stem;
},
{
horizontal = 1;
place = "{668, 54}";
type = Stem;
},
{
place = "{48, 57}";
type = Stem;
},
{
place = "{271, 83}";
type = Stem;
},
{
place = "{484, 78}";
type = Stem;
},
{
place = "{714, 56}";
type = Stem;
}
);
layerId = "8768C18F-5D75-4F12-A5E9-2E25CBCA3CBE";
paths = (
{
closed = 1;
nodes = (
"48 167 OFFCURVE",
"210 4 OFFCURVE",
"410 4 CURVE SMOOTH",
"607 4 OFFCURVE",
"770 168 OFFCURVE",
"770 364 CURVE SMOOTH",
"770 560 OFFCURVE",
"610 722 OFFCURVE",
"413 722 CURVE SMOOTH",
"210 722 OFFCURVE",
"48 562 OFFCURVE",
"48 364 CURVE SMOOTH"
);
},
{
closed = 1;
nodes = (
"105 533 OFFCURVE",
"240 668 OFFCURVE",
"412 668 CURVE SMOOTH",
"578 668 OFFCURVE",
"714 531 OFFCURVE",
"714 365 CURVE SMOOTH",
"714 199 OFFCURVE",
"581 58 OFFCURVE",
"410 58 CURVE SMOOTH",
"238 58 OFFCURVE",
"105 196 OFFCURVE",
"105 363 CURVE SMOOTH"
);
},
{
closed = 1;
nodes = (
"271 161 LINE",
"354 161 LINE",
"354 320 LINE",
"378 320 LINE",
"499 161 LINE",
"596 161 LINE",
"464 331 LINE",
"518 347 OFFCURVE",
"562 389 OFFCURVE",
"562 452 CURVE SMOOTH",
"562 526 OFFCURVE",
"507 574 OFFCURVE",
"424 574 CURVE SMOOTH",
"271 574 LINE"
);
},
{
closed = 1;
nodes = (
"354 391 LINE",
"354 502 LINE",
"414 502 LINE SMOOTH",
"459 502 OFFCURVE",
"484 475 OFFCURVE",
"484 446 CURVE SMOOTH",
"484 413 OFFCURVE",
"453 391 OFFCURVE",
"413 391 CURVE SMOOTH"
);
}
);
width = 819;
}
);
unicode = 00AE;
},
{
glyphname = degree;
layers = (
{
hints = (
{
horizontal = 1;
place = "{398, 67}";
type = Stem;
},
{
horizontal = 1;
place = "{644, 67}";
type = Stem;
},
{
place = "{28, 71}";
type = Stem;
},
{
place = "{276, 71}";
type = Stem;
}
);
layerId = "8768C18F-5D75-4F12-A5E9-2E25CBCA3CBE";
paths = (
{
closed = 1;
nodes = (
"347 640 OFFCURVE",
"274 711 OFFCURVE",
"187 711 CURVE SMOOTH",
"103 711 OFFCURVE",
"28 639 OFFCURVE",
"28 554 CURVE SMOOTH",
"28 469 OFFCURVE",
"102 398 OFFCURVE",
"187 398 CURVE SMOOTH",
"275 398 OFFCURVE",
"347 469 OFFCURVE",
"347 555 CURVE SMOOTH"
);
},
{
closed = 1;
nodes = (
"276 503 OFFCURVE",
"238 465 OFFCURVE",
"187 465 CURVE SMOOTH",
"136 465 OFFCURVE",
"99 506 OFFCURVE",
"99 555 CURVE SMOOTH",
"99 603 OFFCURVE",
"138 644 OFFCURVE",
"187 644 CURVE SMOOTH",
"236 644 OFFCURVE",
"276 604 OFFCURVE",
"276 555 CURVE SMOOTH"
);
}
);
width = 373;
}
);
unicode = 00B0;
},
{
glyphname = plusminus;
layers = (
{
hints = (
{
horizontal = 1;
place = "{23, 89}";
type = Stem;
},
{
horizontal = 1;
place = "{334, 89}";
type = Stem;
},
{
place = "{242, 90}";
type = Stem;
}
);
layerId = "8768C18F-5D75-4F12-A5E9-2E25CBCA3CBE";
paths = (
{
closed = 1;
nodes = (
"42 334 LINE",
"242 334 LINE",
"242 178 LINE",
"332 178 LINE",
"332 334 LINE",
"531 334 LINE",
"531 423 LINE",
"332 423 LINE",
"332 581 LINE",
"242 581 LINE",
"242 423 LINE",
"42 423 LINE"
);
},
{
closed = 1;
nodes = (
"42 23 LINE",
"531 23 LINE",
"531 112 LINE",
"42 112 LINE"
);
}
);
width = 573;
}
);
unicode = 00B1;
},
{
glyphname = acute;
layers = (
{
hints = (
{
horizontal = 1;
place = "{571, 161}";
type = Stem;
},
{
place = "{93, 218}";
type = Stem;
}
);
layerId = "8768C18F-5D75-4F12-A5E9-2E25CBCA3CBE";
paths = (
{
closed = 1;
nodes = (
"311 700 LINE",
"188 732 LINE",
"93 571 LINE",
"177 571 LINE"
);
}
);
width = 317;
}
);
unicode = 00B4;
},
{
glyphname = paragraph;
layers = (
{
hints = (
{
horizontal = 1;
place = "{618, 88}";
type = Stem;
},
{
place = "{212, 90}";
type = Stem;
},
{
place = "{386, 90}";
type = Stem;
}
);
layerId = "8768C18F-5D75-4F12-A5E9-2E25CBCA3CBE";
paths = (
{
closed = 1;
nodes = (
"302 -107 LINE",
"302 618 LINE",
"386 618 LINE",
"386 -107 LINE",
"476 -107 LINE",
"476 618 LINE",
"516 618 LINE",
"545 706 LINE",
"242 706 LINE SMOOTH",
"111 706 OFFCURVE",
"34 639 OFFCURVE",
"34 522 CURVE SMOOTH",
"34 403 OFFCURVE",
"117 361 OFFCURVE",
"212 343 CURVE",
"212 -107 LINE"
);
}
);
width = 629;
}
);
unicode = 00B6;
},
{
glyphname = cedilla;
layers = (
{
hints = (
{
horizontal = 1;
place = "{-218, 56}";
type = Stem;
},
{
horizontal = 1;
place = "{-94, 36}";
type = Stem;
},
{
place = "{187, 80}";
type = Stem;
}
);
layerId = "8768C18F-5D75-4F12-A5E9-2E25CBCA3CBE";
paths = (
{
closed = 1;
nodes = (
"220 11 LINE",
"153 11 LINE",
"90 -84 LINE",
"111 -102 LINE",
"124 -95 OFFCURVE",
"135 -94 OFFCURVE",
"147 -94 CURVE SMOOTH",
"171 -94 OFFCURVE",
"187 -103 OFFCURVE",
"187 -123 CURVE SMOOTH",
"187 -153 OFFCURVE",
"149 -162 OFFCURVE",
"126 -162 CURVE SMOOTH",
"110 -162 OFFCURVE",
"91 -159 OFFCURVE",
"70 -150 CURVE",
"54 -196 LINE",
"82 -211 OFFCURVE",
"112 -218 OFFCURVE",
"145 -218 CURVE SMOOTH",
"197 -218 OFFCURVE",
"267 -196 OFFCURVE",
"267 -129 CURVE SMOOTH",
"267 -77 OFFCURVE",
"219 -58 OFFCURVE",
"183 -58 CURVE SMOOTH",
"178 -58 LINE"
);
}
);
width = 333;
}
);
unicode = 00B8;
},
{
glyphname = ordmasculine;
layers = (
{
hints = (
{
horizontal = 1;
place = "{284, 57}";
type = Stem;
},
{
horizontal = 1;
place = "{405, 63}";
type = Stem;
},
{
horizontal = 1;
place = "{645, 63}";
type = Stem;
},
{
place = "{22, 70}";
type = Stem;
},
{
place = "{257, 70}";
type = Stem;
}
);
layerId = "8768C18F-5D75-4F12-A5E9-2E25CBCA3CBE";
paths = (
{
closed = 1;
nodes = (
"261 405 OFFCURVE",
"327 474 OFFCURVE",
"327 559 CURVE SMOOTH",
"327 639 OFFCURVE",
"263 708 OFFCURVE",
"175 708 CURVE SMOOTH",
"87 708 OFFCURVE",
"22 640 OFFCURVE",
"22 556 CURVE SMOOTH",
"22 473 OFFCURVE",
"85 405 OFFCURVE",
"173 405 CURVE SMOOTH"
);
},
{
closed = 1;
nodes = (
"127 468 OFFCURVE",
"92 507 OFFCURVE",
"92 559 CURVE SMOOTH",
"92 604 OFFCURVE",
"124 645 OFFCURVE",
"173 645 CURVE SMOOTH",
"222 645 OFFCURVE",
"257 607 OFFCURVE",
"257 556 CURVE SMOOTH",
"257 507 OFFCURVE",
"224 468 OFFCURVE",
"175 468 CURVE SMOOTH"
);
},
{
closed = 1;
nodes = (
"30 284 LINE",
"318 284 LINE",
"318 341 LINE",
"30 341 LINE"
);
}
);
width = 349;
}
);
unicode = 00BA;
},
{
glyphname = guillemotright;
layers = (
{
hints = (
{
horizontal = 1;
place = "{38, 433}";
type = Stem;
},
{
place = "{24, 483}";
type = Stem;
}
);
layerId = "8768C18F-5D75-4F12-A5E9-2E25CBCA3CBE";
paths = (
{
closed = 1;
nodes = (
"25 78 LINE",
"117 38 LINE",
"276 253 LINE",
"117 471 LINE",
"24 435 LINE",
"154 255 LINE"
);
},
{
closed = 1;
nodes = (
"256 78 LINE",
"348 38 LINE",
"507 253 LINE",
"348 471 LINE",
"255 435 LINE",
"385 255 LINE"
);
}
);
width = 537;
}
);
unicode = 00BB;
},
{
glyphname = onequarter;
layers = (
{
hints = (
{
place = "{101, 88}";
type = Stem;
},
{
place = "{626, 85}";
type = Stem;
},
{
horizontal = 1;
place = "{0, 139}";
type = Stem;
},
{
horizontal = 1;
place = "{-12, 21}";
target = up;
type = BottomGhost;
},
{
horizontal = 1;
place = "{73, 66}";
type = Stem;
},
{
horizontal = 1;
place = "{706, -20}";
target = down;
type = TopGhost;
},
{
horizontal = 1;
place = "{713, -20}";
target = down;
type = TopGhost;
}
);
layerId = "8768C18F-5D75-4F12-A5E9-2E25CBCA3CBE";
paths = (
{
closed = 1;
nodes = (
"121 -12 LINE",
"180 -37 LINE",
"613 713 LINE",
"550 739 LINE"
);
},
{
closed = 1;
nodes = (
"101 280 LINE",
"189 280 LINE",
"189 706 LINE",
"123 705 LINE",
"99 687 OFFCURVE",
"68 669 OFFCURVE",
"41 649 CURVE",
"41 569 LINE",
"61 578 OFFCURVE",
"81 592 OFFCURVE",
"101 608 CURVE"
);
},
{
closed = 1;
nodes = (
"428 73 LINE",
"626 73 LINE",
"625 0 LINE",
"711 0 LINE",
"710 73 LINE",
"727 73 LINE",
"744 73 LINE",
"756 140 LINE",
"711 139 LINE",
"711 428 LINE",
"634 428 LINE",
"428 120 LINE"
);
},
{
closed = 1;
nodes = (
"526 139 LINE",
"525 139 LINE",
"562 195 OFFCURVE",
"610 266 OFFCURVE",
"626 293 CURVE",
"627 294 LINE",
"627 288 LINE",
"624 270 OFFCURVE",
"626 189 OFFCURVE",
"626 139 CURVE",
"574 139 LINE"
);
}
);
width = 794;
}
);
unicode = 00BC;
},
{
glyphname = onehalf;
layers = (
{
hints = (
{
horizontal = 1;
place = "{1, 70}";
type = Stem;
},
{
horizontal = 1;
place = "{-12, 21}";
target = up;
type = BottomGhost;
},
{
horizontal = 1;
place = "{364, 71}";
type = Stem;
},
{
horizontal = 1;
place = "{706, -20}";
target = down;
type = TopGhost;
},
{
horizontal = 1;
place = "{713, -20}";
target = down;
type = TopGhost;
},
{
place = "{87, 88}";
type = Stem;
},
{
place = "{658, 88}";
type = Stem;
}
);
layerId = "8768C18F-5D75-4F12-A5E9-2E25CBCA3CBE";
paths = (
{
closed = 1;
nodes = (
"89 -12 LINE",
"148 -37 LINE",
"581 713 LINE",
"519 739 LINE"
);
},
{
closed = 1;
nodes = (
"87 280 LINE",
"175 280 LINE",
"175 706 LINE",
"105 705 LINE",
"85 688 OFFCURVE",
"56 668 OFFCURVE",
"27 649 CURVE",
"27 569 LINE",
"48 582 OFFCURVE",
"68 592 OFFCURVE",
"87 608 CURVE"
);
},
{
closed = 1;
nodes = (
"428 1 LINE",
"728 1 LINE",
"748 72 LINE",
"585 70 LINE",
"640 127 LINE",
"715 208 OFFCURVE",
"746 249 OFFCURVE",
"746 306 CURVE SMOOTH",
"746 382 OFFCURVE",
"681 435 OFFCURVE",
"601 435 CURVE SMOOTH",
"534 435 OFFCURVE",
"492 404 OFFCURVE",
"464 347 CURVE",
"534 315 LINE",
"550 346 OFFCURVE",
"571 364 OFFCURVE",
"598 364 CURVE SMOOTH",
"633 364 OFFCURVE",
"658 338 OFFCURVE",
"658 305 CURVE SMOOTH",
"658 269 OFFCURVE",
"622 226 OFFCURVE",
"575 168 CURVE"
);
}
);
width = 795;
}
);
unicode = 00BD;
},
{
glyphname = threequarters;
layers = (
{
hints = (
{
place = "{219, 84}";
type = Stem;
},
{
place = "{240, 84}";
type = Stem;
},
{
place = "{630, 83}";
type = Stem;
},
{
horizontal = 1;
place = "{-12, 21}";
target = up;
type = BottomGhost;
},
{
horizontal = 1;
place = "{0, 21}";
target = up;
type = BottomGhost;
},
{
horizontal = 1;
place = "{73, 67}";
type = Stem;
},
{
horizontal = 1;
place = "{273, 67}";
type = Stem;
},
{
horizontal = 1;
place = "{483, 62}";
type = Stem;
},
{
horizontal = 1;
place = "{650, 67}";
type = Stem;
},
{
horizontal = 1;
place = "{714, -20}";
target = down;
type = TopGhost;
}
);
layerId = "8768C18F-5D75-4F12-A5E9-2E25CBCA3CBE";
paths = (
{
closed = 1;
nodes = (
"167 -12 LINE",
"229 -37 LINE",
"662 714 LINE",
"600 739 LINE"
);
},
{
closed = 1;
nodes = (
"29 333 LINE",
"55 292 OFFCURVE",
"106 273 OFFCURVE",
"160 273 CURVE SMOOTH",
"245 273 OFFCURVE",
"324 320 OFFCURVE",
"324 411 CURVE SMOOTH",
"324 464 OFFCURVE",
"295 498 OFFCURVE",
"247 518 CURVE",
"280 539 OFFCURVE",
"303 568 OFFCURVE",
"303 608 CURVE SMOOTH",
"303 687 OFFCURVE",
"230 717 OFFCURVE",
"163 717 CURVE SMOOTH",
"114 717 OFFCURVE",
"75 700 OFFCURVE",
"53 662 CURVE",
"93 621 LINE",
"110 637 OFFCURVE",
"135 650 OFFCURVE",
"163 650 CURVE SMOOTH",
"192 650 OFFCURVE",
"219 633 OFFCURVE",
"219 602 CURVE SMOOTH",
"219 555 OFFCURVE",
"166 545 OFFCURVE",
"129 545 CURVE",
"129 483 LINE",
"182 483 OFFCURVE",
"240 475 OFFCURVE",
"240 414 CURVE SMOOTH",
"240 369 OFFCURVE",
"203 340 OFFCURVE",
"159 340 CURVE SMOOTH",
"126 340 OFFCURVE",
"95 356 OFFCURVE",
"72 375 CURVE"
);
},
{
closed = 1;
nodes = (
"434 73 LINE",
"631 73 LINE",
"630 0 LINE",
"713 0 LINE",
"712 73 LINE",
"728 73 LINE",
"747 73 LINE",
"759 141 LINE",
"713 140 LINE",
"713 429 LINE",
"639 429 LINE",
"434 122 LINE"
);
},
{
closed = 1;
nodes = (
"530 140 LINE",
"563 192 OFFCURVE",
"598 242 OFFCURVE",
"631 295 CURVE",
"632 279 LINE",
"631 266 OFFCURVE",
"630 250 OFFCURVE",
"630 231 CURVE SMOOTH",
"630 222 OFFCURVE",
"631 192 OFFCURVE",
"631 140 CURVE",
"595 140 OFFCURVE",
"572 140 OFFCURVE",
"536 139 CURVE"
);
}
);
width = 785;
}
);
unicode = 00BE;
},
{
glyphname = questiondown;
layers = (
{
hints = (
{
place = "{51, 119}";
type = Stem;
},
{
place = "{187, 152}";
type = Stem;
},
{
place = "{213, 113}";
type = Stem;
},
{
horizontal = 1;
place = "{-155, 105}";
type = Stem;
},
{
horizontal = 1;
place = "{427, 143}";
type = Stem;
}
);
layerId = "8768C18F-5D75-4F12-A5E9-2E25CBCA3CBE";
paths = (
{
closed = 1;
nodes = (
"339 543 OFFCURVE",
"305 570 OFFCURVE",
"264 570 CURVE SMOOTH",
"221 570 OFFCURVE",
"187 543 OFFCURVE",
"187 498 CURVE SMOOTH",
"187 457 OFFCURVE",
"221 427 OFFCURVE",
"264 427 CURVE SMOOTH",
"305 427 OFFCURVE",
"339 457 OFFCURVE",
"339 498 CURVE SMOOTH"
);
},
{
closed = 1;
nodes = (
"206 -50 OFFCURVE",
"170 -13 OFFCURVE",
"170 32 CURVE SMOOTH",
"170 73 OFFCURVE",
"201 105 OFFCURVE",
"234 134 CURVE SMOOTH",
"278 173 OFFCURVE",
"326 222 OFFCURVE",
"326 304 CURVE SMOOTH",
"326 360 LINE",
"213 360 LINE",
"213 328 LINE SMOOTH",
"213 270 OFFCURVE",
"195 240 OFFCURVE",
"149 202 CURVE SMOOTH",
"93 154 OFFCURVE",
"51 106 OFFCURVE",
"51 23 CURVE SMOOTH",
"51 -86 OFFCURVE",
"136 -155 OFFCURVE",
"248 -155 CURVE SMOOTH",
"321 -155 OFFCURVE",
"387 -126 OFFCURVE",
"424 -78 CURVE",
"424 40 LINE",
"378 -19 OFFCURVE",
"323 -50 OFFCURVE",
"266 -50 CURVE SMOOTH"
);
}
);
width = 468;
}
);
unicode = 00BF;
},
{
glyphname = germandbls;
layers = (
{
hints = (
{
place = "{70, 116}";
type = Stem;
},
{
place = "{411, 116}";
type = Stem;
},
{
place = "{452, 118}";
type = Stem;
},
{
horizontal = 1;
place = "{-3, 89}";
type = Stem;
},
{
horizontal = 1;
place = "{0, 21}";
target = up;
type = BottomGhost;
},
{
horizontal = 1;
place = "{647, 101}";
type = Stem;
}
);
layerId = "8768C18F-5D75-4F12-A5E9-2E25CBCA3CBE";
paths = (
{
closed = 1;
nodes = (
"186 507 LINE SMOOTH",
"186 582 OFFCURVE",
"225 647 OFFCURVE",
"306 647 CURVE SMOOTH",
"367 647 OFFCURVE",
"411 609 OFFCURVE",
"411 544 CURVE SMOOTH",
"411 474 OFFCURVE",
"356 440 OFFCURVE",
"288 414 CURVE",
"288 339 LINE",
"388 326 OFFCURVE",
"452 295 OFFCURVE",
"452 211 CURVE SMOOTH",
"452 126 OFFCURVE",
"382 86 OFFCURVE",
"281 86 CURVE",
"281 -3 LINE",
"298 -3 LINE SMOOTH",
"425 -3 OFFCURVE",
"570 54 OFFCURVE",
"570 204 CURVE SMOOTH",
"570 305 OFFCURVE",
"495 371 OFFCURVE",
"410 387 CURVE",
"477 418 OFFCURVE",
"527 474 OFFCURVE",
"527 558 CURVE SMOOTH",
"527 669 OFFCURVE",
"440 748 OFFCURVE",
"309 748 CURVE SMOOTH",
"147 748 OFFCURVE",
"70 642 OFFCURVE",
"70 506 CURVE SMOOTH",
"70 0 LINE",
"186 0 LINE"
);
}
);
width = 611;
}
);
unicode = 00DF;
},
{
glyphname = divide;
layers = (
{
hints = (
{
horizontal = 1;
place = "{84, 125}";
type = Stem;
},
{
horizontal = 1;
place = "{265, 77}";
type = Stem;
},
{
horizontal = 1;
place = "{400, 124}";
type = Stem;
},
{
place = "{236, 127}";
type = Stem;
}
);
layerId = "8768C18F-5D75-4F12-A5E9-2E25CBCA3CBE";
paths = (
{
closed = 1;
nodes = (
"363 494 OFFCURVE",
"336 524 OFFCURVE",
"299 524 CURVE SMOOTH",
"260 524 OFFCURVE",
"236 494 OFFCURVE",
"236 461 CURVE SMOOTH",
"236 428 OFFCURVE",
"260 400 OFFCURVE",
"299 400 CURVE SMOOTH",
"336 400 OFFCURVE",
"363 428 OFFCURVE",
"363 461 CURVE SMOOTH"
);
},
{
closed = 1;
nodes = (
"556 342 LINE",
"42 342 LINE",
"42 265 LINE",
"556 265 LINE"
);
},
{
closed = 1;
nodes = (
"363 183 OFFCURVE",
"336 209 OFFCURVE",
"299 209 CURVE SMOOTH",
"260 209 OFFCURVE",
"236 183 OFFCURVE",
"236 148 CURVE SMOOTH",
"236 113 OFFCURVE",
"260 84 OFFCURVE",
"299 84 CURVE SMOOTH",
"336 84 OFFCURVE",
"363 113 OFFCURVE",
"363 148 CURVE SMOOTH"
);
}
);
width = 598;
}
);
unicode = 00F7;
},
{
glyphname = oslash;
layers = (
{
hints = (
{
place = "{50, 112}";
type = Stem;
},
{
place = "{472, 112}";
type = Stem;
},
{
horizontal = 1;
place = "{-12, 94}";
type = Stem;
},
{
horizontal = 1;
place = "{1, 21}";
target = up;
type = BottomGhost;
},
{
horizontal = 1;
place = "{412, 94}";
type = Stem;
}
);
layerId = "8768C18F-5D75-4F12-A5E9-2E25CBCA3CBE";
paths = (
{
closed = 1;
nodes = (
"37 1 LINE",
"86 -47 LINE",
"162 34 LINE",
"206 3 OFFCURVE",
"253 -12 OFFCURVE",
"316 -12 CURVE SMOOTH",
"472 -12 OFFCURVE",
"584 102 OFFCURVE",
"584 247 CURVE SMOOTH",
"584 316 OFFCURVE",
"561 370 OFFCURVE",
"524 417 CURVE",
"584 483 LINE",
"533 529 LINE",
"471 462 LINE",
"428 493 OFFCURVE",
"375 506 OFFCURVE",
"316 506 CURVE SMOOTH",
"160 506 OFFCURVE",
"50 393 OFFCURVE",
"50 247 CURVE SMOOTH",
"50 182 OFFCURVE",
"71 127 OFFCURVE",
"111 78 CURVE"
);
},
{
closed = 1;
nodes = (
"185 157 LINE",
"168 184 OFFCURVE",
"162 211 OFFCURVE",
"162 247 CURVE SMOOTH",
"162 338 OFFCURVE",
"223 412 OFFCURVE",
"316 412 CURVE SMOOTH",
"352 412 OFFCURVE",
"379 402 OFFCURVE",
"402 385 CURVE"
);
},
{
closed = 1;
nodes = (
"448 337 LINE",
"463 310 OFFCURVE",
"472 282 OFFCURVE",
"472 247 CURVE SMOOTH",
"472 156 OFFCURVE",
"410 82 OFFCURVE",
"315 82 CURVE SMOOTH",
"282 82 OFFCURVE",
"254 91 OFFCURVE",
"230 108 CURVE"
);
}
);
width = 627;
}
);
unicode = 00F8;
},
{
glyphname = fraction;
layers = (
{
hints = (
{
horizontal = 1;
place = "{-28, 856}";
type = Stem;
},
{
place = "{-115, 549}";
type = Stem;
}
);
layerId = "8768C18F-5D75-4F12-A5E9-2E25CBCA3CBE";
paths = (
{
closed = 1;
nodes = (
"434 818 LINE",
"335 828 LINE",
"-115 -19 LINE",
"-18 -28 LINE"
);
}
);
width = 318;
}
);
unicode = 2044;
},
{
glyphname = fi;
layers = (
{
hints = (
{
place = "{108, 116}";
type = Stem;
},
{
place = "{395, 153}";
type = Stem;
},
{
place = "{414, 117}";
type = Stem;
},
{
horizontal = 1;
place = "{0, 21}";
target = up;
type = BottomGhost;
},
{
horizontal = 1;
place = "{405, 95}";
type = Stem;
},
{
horizontal = 1;
place = "{405, 97}";
type = Stem;
},
{
horizontal = 1;
place = "{581, 144}";
type = Stem;
},
{
horizontal = 1;
place = "{645, 91}";
type = Stem;
}
);
layerId = "8768C18F-5D75-4F12-A5E9-2E25CBCA3CBE";
paths = (
{
closed = 1;
nodes = (
"356 725 LINE",
"335 732 OFFCURVE",
"309 736 OFFCURVE",
"276 736 CURVE SMOOTH",
"173 736 OFFCURVE",
"108 683 OFFCURVE",
"108 555 CURVE SMOOTH",
"108 501 LINE",
"15 405 LINE",
"108 405 LINE",
"108 0 LINE",
"224 0 LINE",
"224 405 LINE",
"345 405 LINE",
"345 500 LINE",
"213 500 LINE",
"213 551 LINE SMOOTH",
"213 612 OFFCURVE",
"243 645 OFFCURVE",
"296 645 CURVE SMOOTH",
"315 645 OFFCURVE",
"336 642 OFFCURVE",
"356 635 CURVE"
);
},
{
closed = 1;
nodes = (
"395 610 OFFCURVE",
"430 581 OFFCURVE",
"471 581 CURVE SMOOTH",
"514 581 OFFCURVE",
"548 610 OFFCURVE",
"548 653 CURVE SMOOTH",
"548 698 OFFCURVE",
"514 725 OFFCURVE",
"471 725 CURVE SMOOTH",
"430 725 OFFCURVE",
"395 698 OFFCURVE",
"395 653 CURVE SMOOTH"
);
},
{
closed = 1;
nodes = (
"531 502 LINE",
"414 502 LINE",
"414 0 LINE",
"531 0 LINE"
);
}
);
width = 618;
}
);
unicode = FB01;
},
{
glyphname = fl;
layers = (
{
hints = (
{
horizontal = 1;
place = "{0, 21}";
target = up;
type = BottomGhost;
},
{
horizontal = 1;
place = "{405, 95}";
type = Stem;
},
{
horizontal = 1;
place = "{645, 91}";
type = Stem;
},
{
place = "{108, 116}";
type = Stem;
},
{
place = "{401, 117}";
type = Stem;
}
);
layerId = "8768C18F-5D75-4F12-A5E9-2E25CBCA3CBE";
paths = (
{
closed = 1;
nodes = (
"356 725 LINE",
"335 732 OFFCURVE",
"309 736 OFFCURVE",
"276 736 CURVE SMOOTH",
"173 736 OFFCURVE",
"108 683 OFFCURVE",
"108 555 CURVE SMOOTH",
"108 501 LINE",
"15 405 LINE",
"108 405 LINE",
"108 0 LINE",
"224 0 LINE",
"224 405 LINE",
"345 405 LINE",
"345 500 LINE",
"213 500 LINE",
"213 551 LINE SMOOTH",
"213 612 OFFCURVE",
"243 645 OFFCURVE",
"296 645 CURVE SMOOTH",
"315 645 OFFCURVE",
"336 642 OFFCURVE",
"356 635 CURVE"
);
},
{
closed = 1;
nodes = (
"518 731 LINE",
"401 731 LINE",
"401 0 LINE",
"518 0 LINE"
);
}
);
width = 588;
}
);
unicode = FB02;
},
{
glyphname = breve;
layers = (
{
hints = (
{
horizontal = 1;
place = "{565, 83}";
type = Stem;
},
{
place = "{20, 312}";
type = Stem;
}
);
layerId = "8768C18F-5D75-4F12-A5E9-2E25CBCA3CBE";
paths = (
{
closed = 1;
nodes = (
"261 719 LINE",
"249 674 OFFCURVE",
"220 648 OFFCURVE",
"177 648 CURVE SMOOTH",
"134 648 OFFCURVE",
"102 674 OFFCURVE",
"90 719 CURVE",
"20 719 LINE",
"28 628 OFFCURVE",
"90 565 OFFCURVE",
"175 565 CURVE SMOOTH",
"260 565 OFFCURVE",
"324 628 OFFCURVE",
"332 719 CURVE"
);
}
);
width = 352;
}
);
unicode = 02D8;
},
{
glyphname = dotaccent;
layers = (
{
hints = (
{
horizontal = 1;
place = "{575, 119}";
type = Stem;
},
{
place = "{74, 120}";
type = Stem;
}
);
layerId = "8768C18F-5D75-4F12-A5E9-2E25CBCA3CBE";
paths = (
{
closed = 1;
nodes = (
"194 670 OFFCURVE",
"164 694 OFFCURVE",
"133 694 CURVE SMOOTH",
"102 694 OFFCURVE",
"74 670 OFFCURVE",
"74 635 CURVE SMOOTH",
"74 599 OFFCURVE",
"102 575 OFFCURVE",
"133 575 CURVE SMOOTH",
"164 575 OFFCURVE",
"194 599 OFFCURVE",
"194 635 CURVE SMOOTH"
);
}
);
width = 309;
}
);
unicode = 02D9;
},
{
glyphname = ring;
layers = (
{
hints = (
{
horizontal = 1;
place = "{556, 61}";
type = Stem;
},
{
horizontal = 1;
place = "{708, 61}";
type = Stem;
},
{
place = "{57, 62}";
type = Stem;
},
{
place = "{212, 62}";
type = Stem;
}
);
layerId = "8768C18F-5D75-4F12-A5E9-2E25CBCA3CBE";
paths = (
{
closed = 1;
nodes = (
"274 721 OFFCURVE",
"225 769 OFFCURVE",
"164 769 CURVE SMOOTH",
"107 769 OFFCURVE",
"57 721 OFFCURVE",
"57 662 CURVE SMOOTH",
"57 602 OFFCURVE",
"107 556 OFFCURVE",
"164 556 CURVE SMOOTH",
"226 556 OFFCURVE",
"274 599 OFFCURVE",
"274 661 CURVE SMOOTH"
);
},
{
closed = 1;
nodes = (
"212 637 OFFCURVE",
"194 617 OFFCURVE",
"166 617 CURVE SMOOTH",
"139 617 OFFCURVE",
"119 635 OFFCURVE",
"119 663 CURVE SMOOTH",
"119 687 OFFCURVE",
"139 708 OFFCURVE",
"166 708 CURVE SMOOTH",
"193 708 OFFCURVE",
"212 686 OFFCURVE",
"212 662 CURVE SMOOTH"
);
}
);
width = 343;
}
);
unicode = 02DA;
},
{
glyphname = hungarumlaut;
layers = (
{
hints = (
{
horizontal = 1;
place = "{704, -20}";
target = down;
type = TopGhost;
},
{
horizontal = 1;
place = "{705, -20}";
target = down;
type = TopGhost;
},
{
place = "{23, 402}";
type = Stem;
}
);
layerId = "8768C18F-5D75-4F12-A5E9-2E25CBCA3CBE";
paths = (
{
closed = 1;
nodes = (
"246 705 LINE",
"135 725 LINE",
"23 561 LINE",
"110 561 LINE"
);
},
{
closed = 1;
nodes = (
"425 704 LINE",
"314 725 LINE",
"203 561 LINE",
"288 561 LINE"
);
}
);
width = 368;
}
);
unicode = 02DD;
},
{
glyphname = ogonek;
layers = (
{
hints = (
{
horizontal = 1;
place = "{-181, 69}";
type = Stem;
},
{
place = "{56, 86}";
type = Stem;
}
);
layerId = "8768C18F-5D75-4F12-A5E9-2E25CBCA3CBE";
paths = (
{
closed = 1;
nodes = (
"239 -102 LINE",
"216 -110 OFFCURVE",
"203 -112 OFFCURVE",
"191 -112 CURVE SMOOTH",
"163 -112 OFFCURVE",
"142 -95 OFFCURVE",
"142 -68 CURVE SMOOTH",
"142 -41 OFFCURVE",
"158 -18 OFFCURVE",
"192 30 CURVE",
"110 30 LINE",
"85 -1 OFFCURVE",
"56 -39 OFFCURVE",
"56 -82 CURVE SMOOTH",
"56 -145 OFFCURVE",
"106 -181 OFFCURVE",
"173 -181 CURVE SMOOTH",
"198 -181 OFFCURVE",
"225 -175 OFFCURVE",
"253 -162 CURVE"
);
}
);
width = 309;
}
);
unicode = 02DB;
},
{
glyphname = caron;
layers = (
{
hints = (
{
horizontal = 1;
place = "{561, 157}";
type = Stem;
},
{
place = "{12, 329}";
type = Stem;
}
);
layerId = "8768C18F-5D75-4F12-A5E9-2E25CBCA3CBE";
paths = (
{
closed = 1;
nodes = (
"248 718 LINE",
"177 640 LINE",
"106 718 LINE",
"12 718 LINE",
"135 561 LINE",
"218 561 LINE",
"341 718 LINE"
);
}
);
width = 353;
}
);
unicode = 02C7;
},
{
glyphname = dotlessi;
layers = (
{
hints = (
{
horizontal = 1;
place = "{0, 21}";
target = up;
type = BottomGhost;
},
{
horizontal = 1;
place = "{502, -20}";
target = down;
type = TopGhost;
},
{
place = "{70, 117}";
type = Stem;
}
);
layerId = "8768C18F-5D75-4F12-A5E9-2E25CBCA3CBE";
paths = (
{
closed = 1;
nodes = (
"187 502 LINE",
"70 502 LINE",
"70 0 LINE",
"187 0 LINE"
);
}
);
width = 258;
}
);
unicode = 0131;
},
{
glyphname = greaterequal;
layers = (
{
hints = (
{
horizontal = 1;
place = "{4, 85}";
type = Stem;
},
{
place = "{65, 509}";
type = Stem;
}
);
layerId = "8768C18F-5D75-4F12-A5E9-2E25CBCA3CBE";
paths = (
{
closed = 1;
nodes = (
"574 315 LINE",
"574 396 LINE",
"65 587 LINE",
"65 496 LINE",
"441 355 LINE",
"65 217 LINE",
"65 125 LINE"
);
},
{
closed = 1;
nodes = (
"574 4 LINE",
"574 89 LINE",
"65 89 LINE",
"65 4 LINE"
);
}
);
width = 639;
}
);
unicode = 2265;
},
{
glyphname = radical;
layers = (
{
hints = (
{
horizontal = 1;
place = "{-211, 994}";
type = Stem;
},
{
place = "{28, 527}";
type = Stem;
}
);
layerId = "8768C18F-5D75-4F12-A5E9-2E25CBCA3CBE";
paths = (
{
closed = 1;
nodes = (
"555 783 LINE",
"462 783 LINE",
"288 -70 LINE",
"152 220 LINE",
"28 164 LINE",
"63 89 LINE",
"108 110 LINE",
"261 -211 LINE",
"348 -211 LINE"
);
}
);
width = 534;
}
);
unicode = 221A;
},
{
glyphname = notequal;
layers = (
{
hints = (
{
horizontal = 1;
place = "{112, 84}";
type = Stem;
},
{
horizontal = 1;
place = "{302, 85}";
type = Stem;
},
{
place = "{42, 512}";
type = Stem;
}
);
layerId = "8768C18F-5D75-4F12-A5E9-2E25CBCA3CBE";
paths = (
{
closed = 1;
nodes = (
"550 112 LINE",
"550 196 LINE",
"319 196 LINE",
"372 302 LINE",
"554 302 LINE",
"554 387 LINE",
"418 387 LINE",
"472 488 LINE",
"397 530 LINE",
"321 387 LINE",
"46 387 LINE",
"46 302 LINE",
"275 302 LINE",
"221 196 LINE",
"42 196 LINE",
"42 112 LINE",
"176 112 LINE",
"122 12 LINE",
"198 -29 LINE",
"271 112 LINE"
);
}
);
width = 596;
}
);
unicode = 2260;
},
{
glyphname = product;
layers = (
{
hints = (
{
horizontal = 1;
place = "{696, 87}";
type = Stem;
},
{
place = "{10, 93}";
type = Stem;
},
{
place = "{491, 93}";
type = Stem;
}
);
layerId = "8768C18F-5D75-4F12-A5E9-2E25CBCA3CBE";
paths = (
{
closed = 1;
nodes = (
"584 -211 LINE",
"584 783 LINE",
"10 783 LINE",
"10 -211 LINE",
"103 -211 LINE",
"103 696 LINE",
"491 696 LINE",
"491 -211 LINE"
);
}
);
width = 595;
}
);
unicode = 220F;
},
{
glyphname = summation;
layers = (
{
hints = (
{
horizontal = 1;
place = "{-211, 87}";
type = Stem;
},
{
horizontal = 1;
place = "{696, 87}";
type = Stem;
},
{
place = "{12, 560}";
type = Stem;
}
);
layerId = "8768C18F-5D75-4F12-A5E9-2E25CBCA3CBE";
paths = (
{
closed = 1;
nodes = (
"572 -211 LINE",
"572 -124 LINE",
"132 -124 LINE",
"435 291 LINE",
"148 696 LINE",
"561 696 LINE",
"561 783 LINE",
"25 783 LINE",
"25 712 LINE",
"324 292 LINE",
"12 -139 LINE",
"12 -211 LINE"
);
}
);
width = 571;
}
);
unicode = 2211;
},
{
glyphname = lessequal;
layers = (
{
hints = (
{
horizontal = 1;
place = "{4, 85}";
type = Stem;
},
{
place = "{65, 509}";
type = Stem;
}
);
layerId = "8768C18F-5D75-4F12-A5E9-2E25CBCA3CBE";
paths = (
{
closed = 1;
nodes = (
"574 125 LINE",
"574 217 LINE",
"202 355 LINE",
"574 496 LINE",
"574 587 LINE",
"65 396 LINE",
"65 315 LINE"
);
},
{
closed = 1;
nodes = (
"574 4 LINE",
"574 89 LINE",
"65 89 LINE",
"65 4 LINE"
);
}
);
width = 639;
}
);
unicode = 2264;
},
{
glyphname = uni02C9;
layers = (
{
hints = (
{
horizontal = 1;
place = "{766, 81}";
type = Stem;
},
{
place = "{12, 288}";
type = Stem;
}
);
layerId = "8768C18F-5D75-4F12-A5E9-2E25CBCA3CBE";
paths = (
{
closed = 1;
nodes = (
"300 847 LINE",
"12 847 LINE",
"12 766 LINE",
"300 766 LINE"
);
}
);
width = 316;
}
);
unicode = 02C9;
},
{
glyphname = lozenge;
layers = (
{
hints = (
{
horizontal = 1;
place = "{-35, 780}";
type = Stem;
},
{
place = "{45, 418}";
type = Stem;
}
);
layerId = "8768C18F-5D75-4F12-A5E9-2E25CBCA3CBE";
paths = (
{
closed = 1;
nodes = (
"463 355 LINE",
"293 745 LINE",
"213 745 LINE",
"45 355 LINE",
"213 -35 LINE",
"293 -35 LINE"
);
},
{
closed = 1;
nodes = (
"369 355 LINE",
"253 83 LINE",
"139 355 LINE",
"253 628 LINE"
);
}
);
width = 508;
}
);
unicode = 25CA;
},
{
glyphname = minus;
layers = (
{
hints = (
{
horizontal = 1;
place = "{262, 85}";
type = Stem;
},
{
place = "{42, 516}";
type = Stem;
}
);
layerId = "8768C18F-5D75-4F12-A5E9-2E25CBCA3CBE";
paths = (
{
closed = 1;
nodes = (
"558 347 LINE",
"42 347 LINE",
"42 262 LINE",
"558 262 LINE"
);
}
);
width = 600;
}
);
unicode = 2212;
},
{
glyphname = uni2215;
layers = (
{
hints = (
{
horizontal = 1;
place = "{-30, 849}";
type = Stem;
},
{
place = "{-163, 528}";
type = Stem;
}
);
layerId = "8768C18F-5D75-4F12-A5E9-2E25CBCA3CBE";
paths = (
{
closed = 1;
nodes = (
"365 778 LINE",
"282 819 LINE",
"-163 10 LINE",
"-80 -30 LINE"
);
}
);
width = 212;
}
);
unicode = 2215;
},
{
glyphname = approxequal;
layers = (
{
hints = (
{
place = "{485, 72}";
type = Stem;
},
{
horizontal = 1;
place = "{79, 85}";
type = Stem;
},
{
horizontal = 1;
place = "{150, 85}";
type = Stem;
},
{
horizontal = 1;
place = "{263, 85}";
type = Stem;
},
{
horizontal = 1;
place = "{334, 85}";
type = Stem;
}
);
layerId = "8768C18F-5D75-4F12-A5E9-2E25CBCA3CBE";
paths = (
{
closed = 1;
nodes = (
"485 425 LINE",
"478 381 OFFCURVE",
"460 348 OFFCURVE",
"417 348 CURVE SMOOTH",
"343 348 OFFCURVE",
"251 419 OFFCURVE",
"164 419 CURVE SMOOTH",
"73 419 OFFCURVE",
"33 338 OFFCURVE",
"22 256 CURVE",
"94 256 LINE",
"101 299 OFFCURVE",
"122 334 OFFCURVE",
"169 334 CURVE SMOOTH",
"234 334 OFFCURVE",
"329 263 OFFCURVE",
"415 263 CURVE SMOOTH",
"511 263 OFFCURVE",
"549 347 OFFCURVE",
"557 425 CURVE"
);
},
{
closed = 1;
nodes = (
"485 242 LINE",
"478 197 OFFCURVE",
"460 164 OFFCURVE",
"417 164 CURVE SMOOTH",
"343 164 OFFCURVE",
"251 235 OFFCURVE",
"164 235 CURVE SMOOTH",
"73 235 OFFCURVE",
"33 154 OFFCURVE",
"22 73 CURVE",
"94 73 LINE",
"101 114 OFFCURVE",
"122 150 OFFCURVE",
"169 150 CURVE SMOOTH",
"234 150 OFFCURVE",
"329 79 OFFCURVE",
"415 79 CURVE SMOOTH",
"511 79 OFFCURVE",
"549 162 OFFCURVE",
"557 242 CURVE"
);
}
);
width = 578;
}
);
unicode = 2248;
},
{
glyphname = integral;
layers = (
{
hints = (
{
horizontal = 1;
place = "{-210, 103}";
type = Stem;
},
{
horizontal = 1;
place = "{674, 109}";
type = Stem;
},
{
place = "{120, 94}";
type = Stem;
}
);
layerId = "8768C18F-5D75-4F12-A5E9-2E25CBCA3CBE";
paths = (
{
closed = 1;
nodes = (
"85 -123 OFFCURVE",
"77 -107 OFFCURVE",
"54 -107 CURVE SMOOTH",
"29 -107 OFFCURVE",
"11 -126 OFFCURVE",
"11 -151 CURVE SMOOTH",
"11 -193 OFFCURVE",
"62 -210 OFFCURVE",
"96 -210 CURVE SMOOTH",
"214 -210 OFFCURVE",
"214 -43 OFFCURVE",
"214 40 CURVE SMOOTH",
"214 609 LINE SMOOTH",
"214 629 OFFCURVE",
"213 696 OFFCURVE",
"234 704 CURVE",
"253 696 OFFCURVE",
"257 674 OFFCURVE",
"287 674 CURVE SMOOTH",
"314 674 OFFCURVE",
"334 693 OFFCURVE",
"334 721 CURVE SMOOTH",
"334 765 OFFCURVE",
"284 783 OFFCURVE",
"244 783 CURVE SMOOTH",
"135 783 OFFCURVE",
"120 654 OFFCURVE",
"120 571 CURVE SMOOTH",
"120 -19 LINE SMOOTH",
"120 -47 OFFCURVE",
"122 -120 OFFCURVE",
"101 -136 CURVE"
);
}
);
width = 343;
}
);
unicode = 222B;
},
{
glyphname = uni2113;
layers = (
{
hints = (
{
horizontal = 1;
place = "{-13, 77}";
type = Stem;
},
{
horizontal = 1;
place = "{643, 72}";
type = Stem;
},
{
place = "{139, 93}";
type = Stem;
},
{
place = "{310, 81}";
type = Stem;
}
);
layerId = "8768C18F-5D75-4F12-A5E9-2E25CBCA3CBE";
paths = (
{
closed = 1;
nodes = (
"377 107 LINE",
"340 76 OFFCURVE",
"311 64 OFFCURVE",
"288 64 CURVE SMOOTH",
"267 64 OFFCURVE",
"242 73 OFFCURVE",
"235 110 CURVE",
"232 117 OFFCURVE",
"232 124 OFFCURVE",
"232 133 CURVE SMOOTH",
"232 268 LINE",
"323 367 OFFCURVE",
"386 468 OFFCURVE",
"391 563 CURVE",
"392 571 OFFCURVE",
"392 579 OFFCURVE",
"391 587 CURVE",
"388 667 OFFCURVE",
"341 715 OFFCURVE",
"274 715 CURVE SMOOTH",
"195 715 OFFCURVE",
"139 652 OFFCURVE",
"139 535 CURVE SMOOTH",
"139 290 LINE",
"54 206 LINE",
"95 151 LINE",
"139 196 LINE",
"139 140 LINE SMOOTH",
"139 131 OFFCURVE",
"140 121 OFFCURVE",
"140 113 CURVE",
"144 29 OFFCURVE",
"197 -13 OFFCURVE",
"272 -13 CURVE SMOOTH",
"320 -13 OFFCURVE",
"361 4 OFFCURVE",
"413 47 CURVE",
"416 47 LINE"
);
},
{
closed = 1;
nodes = (
"310 511 OFFCURVE",
"286 438 OFFCURVE",
"232 368 CURVE",
"232 546 LINE SMOOTH",
"232 614 OFFCURVE",
"251 643 OFFCURVE",
"274 643 CURVE SMOOTH",
"294 643 OFFCURVE",
"310 611 OFFCURVE",
"310 567 CURVE SMOOTH"
);
}
);
width = 482;
}
);
unicode = 2113;
},
{
glyphname = partialdiff;
layers = (
{
hints = (
{
horizontal = 1;
place = "{-11, 79}";
type = Stem;
},
{
horizontal = 1;
place = "{353, 82}";
type = Stem;
},
{
horizontal = 1;
place = "{636, 82}";
type = Stem;
},
{
place = "{25, 90}";
type = Stem;
},
{
place = "{370, 90}";
type = Stem;
}
);
layerId = "8768C18F-5D75-4F12-A5E9-2E25CBCA3CBE";
paths = (
{
closed = 1;
nodes = (
"460 517 OFFCURVE",
"406 718 OFFCURVE",
"212 718 CURVE SMOOTH",
"152 718 OFFCURVE",
"102 697 OFFCURVE",
"53 649 CURVE",
"105 589 LINE",
"137 621 OFFCURVE",
"173 636 OFFCURVE",
"213 636 CURVE SMOOTH",
"346 636 OFFCURVE",
"370 477 OFFCURVE",
"370 386 CURVE SMOOTH",
"370 374 LINE",
"329 413 OFFCURVE",
"284 435 OFFCURVE",
"225 435 CURVE SMOOTH",
"99 435 OFFCURVE",
"25 335 OFFCURVE",
"25 216 CURVE SMOOTH",
"25 99 OFFCURVE",
"100 -11 OFFCURVE",
"230 -11 CURVE SMOOTH",
"428 -11 OFFCURVE",
"460 214 OFFCURVE",
"460 361 CURVE SMOOTH"
);
},
{
closed = 1;
nodes = (
"360 195 OFFCURVE",
"328 68 OFFCURVE",
"231 68 CURVE SMOOTH",
"155 68 OFFCURVE",
"115 146 OFFCURVE",
"115 215 CURVE SMOOTH",
"115 286 OFFCURVE",
"156 353 OFFCURVE",
"231 353 CURVE SMOOTH",
"284 353 OFFCURVE",
"332 317 OFFCURVE",
"365 276 CURVE"
);
}
);
width = 496;
}
);
unicode = 2202;
},
{
glyphname = uni2206;
layers = (
{
hints = (
{
horizontal = 1;
place = "{0, 103}";
type = Stem;
},
{
horizontal = 1;
place = "{710, -20}";
target = down;
type = TopGhost;
},
{
place = "{23, 692}";
type = Stem;
}
);
layerId = "8768C18F-5D75-4F12-A5E9-2E25CBCA3CBE";
paths = (
{
closed = 1;
nodes = (
"715 0 LINE",
"426 710 LINE",
"308 710 LINE",
"23 0 LINE"
);
},
{
closed = 1;
nodes = (
"548 103 LINE",
"186 103 LINE",
"227 216 LINE",
"272 336 OFFCURVE",
"324 474 OFFCURVE",
"366 576 CURVE"
);
}
);
width = 738;
}
);
unicode = 2206;
},
{
glyphname = infinity;
layers = (
{
hints = (
{
horizontal = 1;
place = "{99, 85}";
type = Stem;
},
{
horizontal = 1;
place = "{325, 85}";
type = Stem;
},
{
place = "{33, 85}";
type = Stem;
},
{
place = "{609, 85}";
type = Stem;
}
);
layerId = "8768C18F-5D75-4F12-A5E9-2E25CBCA3CBE";
paths = (
{
closed = 1;
nodes = (
"694 339 OFFCURVE",
"637 410 OFFCURVE",
"550 410 CURVE SMOOTH",
"473 410 OFFCURVE",
"408 357 OFFCURVE",
"363 306 CURVE",
"320 349 OFFCURVE",
"256 409 OFFCURVE",
"179 409 CURVE SMOOTH",
"91 409 OFFCURVE",
"33 337 OFFCURVE",
"33 252 CURVE SMOOTH",
"33 167 OFFCURVE",
"92 99 OFFCURVE",
"181 99 CURVE SMOOTH",
"256 99 OFFCURVE",
"310 150 OFFCURVE",
"362 196 CURVE",
"409 151 OFFCURVE",
"474 99 OFFCURVE",
"546 99 CURVE SMOOTH",
"637 99 OFFCURVE",
"694 170 OFFCURVE",
"694 253 CURVE SMOOTH"
);
},
{
closed = 1;
nodes = (
"609 212 OFFCURVE",
"586 184 OFFCURVE",
"547 184 CURVE SMOOTH",
"498 184 OFFCURVE",
"456 218 OFFCURVE",
"421 251 CURVE",
"453 280 OFFCURVE",
"497 325 OFFCURVE",
"545 325 CURVE SMOOTH",
"588 325 OFFCURVE",
"609 293 OFFCURVE",
"609 253 CURVE SMOOTH"
);
},
{
closed = 1;
nodes = (
"274 220 OFFCURVE",
"229 184 OFFCURVE",
"182 184 CURVE SMOOTH",
"139 184 OFFCURVE",
"118 212 OFFCURVE",
"118 253 CURVE SMOOTH",
"118 293 OFFCURVE",
"139 324 OFFCURVE",
"179 324 CURVE SMOOTH",
"227 324 OFFCURVE",
"274 281 OFFCURVE",
"306 252 CURVE"
);
}
);
width = 727;
}
);
unicode = 221E;
},
{
glyphname = uni2126;
layers = (
{
hints = (
{
horizontal = 1;
place = "{0, 101}";
type = Stem;
},
{
horizontal = 1;
place = "{611, 107}";
type = Stem;
},
{
place = "{34, 119}";
type = Stem;
},
{
place = "{194, 128}";
type = Stem;
},
{
place = "{427, 128}";
type = Stem;
},
{
place = "{596, 119}";
type = Stem;
}
);
layerId = "8768C18F-5D75-4F12-A5E9-2E25CBCA3CBE";
paths = (
{
closed = 1;
nodes = (
"716 0 LINE",
"716 101 LINE",
"557 101 LINE",
"554 141 LINE",
"646 178 OFFCURVE",
"715 294 OFFCURVE",
"715 406 CURVE SMOOTH",
"715 593 OFFCURVE",
"568 718 OFFCURVE",
"375 718 CURVE SMOOTH",
"182 718 OFFCURVE",
"34 593 OFFCURVE",
"34 406 CURVE SMOOTH",
"34 292 OFFCURVE",
"94 182 OFFCURVE",
"195 141 CURVE",
"193 101 LINE",
"33 101 LINE",
"33 0 LINE",
"322 0 LINE",
"322 179 LINE",
"209 198 OFFCURVE",
"153 295 OFFCURVE",
"153 396 CURVE SMOOTH",
"153 514 OFFCURVE",
"246 611 OFFCURVE",
"375 611 CURVE SMOOTH",
"504 611 OFFCURVE",
"596 520 OFFCURVE",
"596 396 CURVE SMOOTH",
"596 293 OFFCURVE",
"540 200 OFFCURVE",
"427 179 CURVE",
"427 0 LINE"
);
}
);
width = 748;
}
);
unicode = 2126;
},
{
glyphname = uni2219;
layers = (
{
hints = (
{
horizontal = 1;
place = "{250, 131}";
type = Stem;
},
{
place = "{44, 130}";
type = Stem;
}
);
layerId = "8768C18F-5D75-4F12-A5E9-2E25CBCA3CBE";
paths = (
{
closed = 1;
nodes = (
"174 351 OFFCURVE",
"150 381 OFFCURVE",
"109 381 CURVE SMOOTH",
"70 381 OFFCURVE",
"44 351 OFFCURVE",
"44 315 CURVE SMOOTH",
"44 280 OFFCURVE",
"70 250 OFFCURVE",
"109 250 CURVE SMOOTH",
"150 250 OFFCURVE",
"174 280 OFFCURVE",
"174 315 CURVE SMOOTH"
);
}
);
width = 222;
}
);
unicode = 2219;
},
{
glyphname = estimated;
layers = (
{
hints = (
{
horizontal = 1;
place = "{-16, 63}";
type = Stem;
},
{
horizontal = 1;
place = "{249, 63}";
type = Stem;
},
{
horizontal = 1;
place = "{479, 61}";
type = Stem;
},
{
place = "{37, 138}";
type = Stem;
},
{
place = "{424, 137}";
type = Stem;
}
);
layerId = "8768C18F-5D75-4F12-A5E9-2E25CBCA3CBE";
paths = (
{
closed = 1;
nodes = (
"561 249 LINE",
"561 420 OFFCURVE",
"455 540 OFFCURVE",
"299 540 CURVE SMOOTH",
"141 540 OFFCURVE",
"37 419 OFFCURVE",
"37 263 CURVE SMOOTH",
"37 106 OFFCURVE",
"141 -16 OFFCURVE",
"299 -16 CURVE SMOOTH",
"404 -16 OFFCURVE",
"470 27 OFFCURVE",
"539 133 CURVE",
"478 169 LINE",
"426 80 OFFCURVE",
"372 47 OFFCURVE",
"299 47 CURVE SMOOTH",
"248 47 OFFCURVE",
"208 64 OFFCURVE",
"175 95 CURVE",
"175 249 LINE"
);
},
{
closed = 1;
nodes = (
"175 312 LINE",
"175 430 LINE",
"208 462 OFFCURVE",
"251 479 OFFCURVE",
"298 479 CURVE SMOOTH",
"347 479 OFFCURVE",
"387 463 OFFCURVE",
"424 430 CURVE",
"424 312 LINE"
);
}
);
width = 598;
}
);
unicode = 212E;
},
{
glyphname = exclam;
layers = (
{
hints = (
{
place = "{53, 151}";
type = Stem;
},
{
place = "{61, 134}";
type = Stem;
},
{
horizontal = 1;
place = "{-11, 144}";
type = Stem;
},
{
horizontal = 1;
place = "{703, -20}";
target = down;
type = TopGhost;
}
);
layerId = "8768C18F-5D75-4F12-A5E9-2E25CBCA3CBE";
paths = (
{
closed = 1;
nodes = (
"60 703 LINE",
"62 619 LINE",
"94 211 LINE",
"164 211 LINE",
"194 619 LINE",
"197 703 LINE"
);
},
{
closed = 1;
nodes = (
"53 16 OFFCURVE",
"86 -11 OFFCURVE",
"129 -11 CURVE SMOOTH",
"170 -11 OFFCURVE",
"204 16 OFFCURVE",
"204 61 CURVE SMOOTH",
"204 104 OFFCURVE",
"170 133 OFFCURVE",
"129 133 CURVE SMOOTH",
"88 133 OFFCURVE",
"53 104 OFFCURVE",
"53 61 CURVE SMOOTH"
);
}
);
width = 257;
}
);
unicode = 0021;
},
{
glyphname = Alpha;
layers = (
{
hints = (
{
horizontal = 1;
place = "{0, 21}";
target = up;
type = BottomGhost;
},
{
horizontal = 1;
place = "{173, 100}";
type = Stem;
},
{
horizontal = 1;
place = "{705, -20}";
target = down;
type = TopGhost;
},
{
place = "{22, 719}";
type = Stem;
}
);
layerId = "8768C18F-5D75-4F12-A5E9-2E25CBCA3CBE";
paths = (
{
closed = 1;
nodes = (
"537 173 LINE",
"610 0 LINE",
"741 0 LINE",
"436 705 LINE",
"327 705 LINE",
"22 0 LINE",
"151 0 LINE",
"224 173 LINE"
);
},
{
closed = 1;
nodes = (
"381 562 LINE",
"497 273 LINE",
"265 273 LINE"
);
}
);
width = 766;
}
);
unicode = 0391;
},
{
glyphname = Epsilon;
layers = (
{
hints = (
{
horizontal = 1;
place = "{0, 106}";
type = Stem;
},
{
horizontal = 1;
place = "{306, 102}";
type = Stem;
},
{
horizontal = 1;
place = "{598, 105}";
type = Stem;
},
{
place = "{75, 121}";
type = Stem;
}
);
layerId = "8768C18F-5D75-4F12-A5E9-2E25CBCA3CBE";
paths = (
{
closed = 1;
nodes = (
"196 306 LINE",
"538 306 LINE",
"538 408 LINE",
"196 408 LINE",
"196 598 LINE",
"569 598 LINE",
"569 703 LINE",
"75 703 LINE",
"75 0 LINE",
"578 0 LINE",
"578 106 LINE",
"196 106 LINE"
);
}
);
width = 617;
}
);
unicode = 0395;
},
{
glyphname = Eta;
layers = (
{
hints = (
{
horizontal = 1;
place = "{0, 21}";
target = up;
type = BottomGhost;
},
{
horizontal = 1;
place = "{302, 109}";
type = Stem;
},
{
horizontal = 1;
place = "{704, -20}";
target = down;
type = TopGhost;
},
{
place = "{75, 121}";
type = Stem;
},
{
place = "{533, 121}";
type = Stem;
}
);
layerId = "8768C18F-5D75-4F12-A5E9-2E25CBCA3CBE";
paths = (
{
closed = 1;
nodes = (
"75 0 LINE",
"196 0 LINE",
"196 302 LINE",
"533 302 LINE",
"533 0 LINE",
"654 0 LINE",
"654 704 LINE",
"533 704 LINE",
"533 411 LINE",
"196 411 LINE",
"196 704 LINE",
"75 704 LINE"
);
}
);
width = 728;
}
);
unicode = 0397;
},
{
glyphname = Iota;
layers = (
{
hints = (
{
horizontal = 1;
place = "{0, 21}";
target = up;
type = BottomGhost;
},
{
horizontal = 1;
place = "{703, -20}";
target = down;
type = TopGhost;
},
{
place = "{75, 121}";
type = Stem;
}
);
layerId = "8768C18F-5D75-4F12-A5E9-2E25CBCA3CBE";
paths = (
{
closed = 1;
nodes = (
"196 703 LINE",
"75 703 LINE",
"75 0 LINE",
"196 0 LINE"
);
}
);
width = 270;
}
);
unicode = 0399;
},
{
glyphname = Kappa;
layers = (
{
hints = (
{
horizontal = 1;
place = "{0, 21}";
target = up;
type = BottomGhost;
},
{
horizontal = 1;
place = "{703, -20}";
target = down;
type = TopGhost;
},
{
place = "{75, 121}";
type = Stem;
}
);
layerId = "8768C18F-5D75-4F12-A5E9-2E25CBCA3CBE";
paths = (
{
closed = 1;
nodes = (
"196 703 LINE",
"75 703 LINE",
"75 0 LINE",
"196 0 LINE",
"196 343 LINE",
"475 0 LINE",
"624 0 LINE",
"312 383 LINE",
"603 703 LINE",
"454 703 LINE",
"196 411 LINE"
);
}
);
width = 618;
}
);
unicode = 039A;
},
{
glyphname = Mu;
layers = (
{
hints = (
{
horizontal = 1;
place = "{0, 21}";
target = up;
type = BottomGhost;
},
{
place = "{57, 120}";
type = Stem;
},
{
place = "{661, 120}";
type = Stem;
}
);
layerId = "8768C18F-5D75-4F12-A5E9-2E25CBCA3CBE";
paths = (
{
closed = 1;
nodes = (
"419 145 LINE",
"661 511 LINE",
"661 0 LINE",
"781 0 LINE",
"781 700 LINE",
"658 700 LINE",
"419 329 LINE",
"180 700 LINE",
"57 700 LINE",
"57 0 LINE",
"177 0 LINE",
"177 510 LINE"
);
}
);
width = 839;
}
);
unicode = 039C;
},
{
glyphname = Nu;
layers = (
{
hints = (
{
horizontal = 1;
place = "{0, 21}";
target = up;
type = BottomGhost;
},
{
horizontal = 1;
place = "{703, -20}";
target = down;
type = TopGhost;
},
{
place = "{75, 119}";
type = Stem;
},
{
place = "{567, 119}";
type = Stem;
}
);
layerId = "8768C18F-5D75-4F12-A5E9-2E25CBCA3CBE";
paths = (
{
closed = 1;
nodes = (
"192 700 LINE",
"75 700 LINE",
"75 0 LINE",
"194 0 LINE",
"194 513 LINE",
"573 0 LINE",
"686 0 LINE",
"686 703 LINE",
"567 703 LINE",
"567 194 LINE"
);
}
);
width = 761;
}
);
unicode = 039D;
},
{
glyphname = Omicron;
layers = (
{
hints = (
{
horizontal = 1;
place = "{-14, 110}";
type = Stem;
},
{
horizontal = 1;
place = "{608, 109}";
type = Stem;
},
{
place = "{37, 125}";
type = Stem;
},
{
place = "{652, 124}";
type = Stem;
}
);
layerId = "8768C18F-5D75-4F12-A5E9-2E25CBCA3CBE";
paths = (
{
closed = 1;
nodes = (
"776 553 OFFCURVE",
"621 717 OFFCURVE",
"408 717 CURVE SMOOTH",
"195 717 OFFCURVE",
"37 555 OFFCURVE",
"37 351 CURVE SMOOTH",
"37 148 OFFCURVE",
"192 -14 OFFCURVE",
"407 -14 CURVE SMOOTH",
"619 -14 OFFCURVE",
"776 152 OFFCURVE",
"776 353 CURVE SMOOTH"
);
},
{
closed = 1;
nodes = (
"652 210 OFFCURVE",
"550 96 OFFCURVE",
"408 96 CURVE SMOOTH",
"262 96 OFFCURVE",
"162 211 OFFCURVE",
"162 353 CURVE SMOOTH",
"162 494 OFFCURVE",
"262 608 OFFCURVE",
"407 608 CURVE SMOOTH",
"551 608 OFFCURVE",
"652 491 OFFCURVE",
"652 350 CURVE SMOOTH"
);
}
);
width = 814;
}
);
unicode = 039F;
},
{
glyphname = Chi;
layers = (
{
hints = (
{
horizontal = 1;
place = "{0, 21}";
target = up;
type = BottomGhost;
},
{
horizontal = 1;
place = "{703, -20}";
target = down;
type = TopGhost;
},
{
place = "{22, 641}";
type = Stem;
}
);
layerId = "8768C18F-5D75-4F12-A5E9-2E25CBCA3CBE";
paths = (
{
closed = 1;
nodes = (
"33 703 LINE",
"272 359 LINE",
"22 0 LINE",
"161 0 LINE",
"342 268 LINE",
"524 0 LINE",
"663 0 LINE",
"414 361 LINE",
"651 703 LINE",
"514 703 LINE",
"345 452 LINE",
"174 703 LINE"
);
}
);
width = 684;
}
);
unicode = 03A7;
},
{
glyphname = Tau;
layers = (
{
hints = (
{
horizontal = 1;
place = "{0, 21}";
target = up;
type = BottomGhost;
},
{
horizontal = 1;
place = "{596, 107}";
type = Stem;
},
{
place = "{217, 120}";
type = Stem;
}
);
layerId = "8768C18F-5D75-4F12-A5E9-2E25CBCA3CBE";
paths = (
{
closed = 1;
nodes = (
"337 596 LINE",
"547 596 LINE",
"547 703 LINE",
"7 703 LINE",
"7 596 LINE",
"217 596 LINE",
"217 0 LINE",
"337 0 LINE"
);
}
);
width = 554;
}
);
unicode = 03A4;
},
{
glyphname = Rho;
layers = (
{
hints = (
{
horizontal = 1;
place = "{-1, 21}";
target = up;
type = BottomGhost;
},
{
horizontal = 1;
place = "{253, 101}";
type = Stem;
},
{
horizontal = 1;
place = "{598, 105}";
type = Stem;
},
{
place = "{75, 122}";
type = Stem;
},
{
place = "{469, 122}";
type = Stem;
}
);
layerId = "8768C18F-5D75-4F12-A5E9-2E25CBCA3CBE";
paths = (
{
closed = 1;
nodes = (
"75 -1 LINE",
"197 -1 LINE",
"197 253 LINE",
"318 253 LINE SMOOTH",
"473 253 OFFCURVE",
"591 335 OFFCURVE",
"591 483 CURVE SMOOTH",
"591 623 OFFCURVE",
"486 703 OFFCURVE",
"326 703 CURVE SMOOTH",
"75 703 LINE"
);
},
{
closed = 1;
nodes = (
"197 598 LINE",
"317 598 LINE SMOOTH",
"413 598 OFFCURVE",
"469 557 OFFCURVE",
"469 477 CURVE SMOOTH",
"469 401 OFFCURVE",
"412 354 OFFCURVE",
"316 354 CURVE SMOOTH",
"197 354 LINE"
);
}
);
width = 629;
}
);
unicode = 03A1;
},
{
glyphname = Upsilon;
layers = (
{
hints = (
{
horizontal = 1;
place = "{0, 21}";
target = up;
type = BottomGhost;
},
{
horizontal = 1;
place = "{703, -20}";
target = down;
type = TopGhost;
},
{
place = "{279, 121}";
type = Stem;
}
);
layerId = "8768C18F-5D75-4F12-A5E9-2E25CBCA3CBE";
paths = (
{
closed = 1;
nodes = (
"400 276 LINE",
"668 703 LINE",
"533 703 LINE",
"342 387 LINE",
"150 703 LINE",
"9 703 LINE",
"279 274 LINE",
"279 0 LINE",
"400 0 LINE"
);
}
);
width = 674;
}
);
unicode = 03A5;
},
{
glyphname = uni0394;
layers = (
{
hints = (
{
horizontal = 1;
place = "{0, 100}";
type = Stem;
},
{
horizontal = 1;
place = "{705, -20}";
target = down;
type = TopGhost;
},
{
place = "{19, 733}";
type = Stem;
}
);
layerId = "8768C18F-5D75-4F12-A5E9-2E25CBCA3CBE";
paths = (
{
closed = 1;
nodes = (
"752 0 LINE",
"440 705 LINE",
"331 705 LINE",
"19 0 LINE"
);
},
{
closed = 1;
nodes = (
"189 100 LINE",
"385 566 LINE",
"581 100 LINE"
);
}
);
width = 774;
}
);
unicode = 0394;
},
{
glyphname = uni03A9;
layers = (
{
hints = (
{
horizontal = 1;
place = "{1, 105}";
type = Stem;
},
{
horizontal = 1;
place = "{608, 109}";
type = Stem;
},
{
place = "{33, 125}";
type = Stem;
},
{
place = "{610, 125}";
type = Stem;
}
);
layerId = "8768C18F-5D75-4F12-A5E9-2E25CBCA3CBE";
paths = (
{
closed = 1;
nodes = (
"442 1 LINE",
"755 1 LINE",
"755 106 LINE",
"582 106 LINE",
"678 165 OFFCURVE",
"735 272 OFFCURVE",
"735 384 CURVE SMOOTH",
"735 587 OFFCURVE",
"584 717 OFFCURVE",
"386 717 CURVE SMOOTH",
"191 717 OFFCURVE",
"33 587 OFFCURVE",
"33 386 CURVE SMOOTH",
"33 274 OFFCURVE",
"89 164 OFFCURVE",
"186 106 CURVE",
"13 106 LINE",
"13 1 LINE",
"330 1 LINE",
"330 110 LINE",
"225 164 OFFCURVE",
"158 251 OFFCURVE",
"158 371 CURVE SMOOTH",
"158 510 OFFCURVE",
"243 608 OFFCURVE",
"384 608 CURVE SMOOTH",
"525 608 OFFCURVE",
"610 509 OFFCURVE",
"610 371 CURVE SMOOTH",
"610 250 OFFCURVE",
"544 166 OFFCURVE",
"442 110 CURVE"
);
}
);
width = 808;
}
);
unicode = 03A9;
},
{
glyphname = Lambda;
layers = (
{
hints = (
{
horizontal = 1;
place = "{0, 21}";
target = up;
type = BottomGhost;
},
{
horizontal = 1;
place = "{705, -20}";
target = down;
type = TopGhost;
},
{
place = "{22, 703}";
type = Stem;
}
);
layerId = "8768C18F-5D75-4F12-A5E9-2E25CBCA3CBE";
paths = (
{
closed = 1;
nodes = (
"593 0 LINE",
"725 0 LINE",
"428 705 LINE",
"319 705 LINE",
"22 0 LINE",
"151 0 LINE",
"373 562 LINE"
);
}
);
width = 742;
}
);
unicode = 039B;
},
{
glyphname = Beta;
layers = (
{
hints = (
{
place = "{75, 119}";
type = Stem;
},
{
place = "{451, 120}";
type = Stem;
},
{
place = "{504, 120}";
type = Stem;
},
{
horizontal = 1;
place = "{0, 101}";
type = Stem;
},
{
horizontal = 1;
place = "{310, 94}";
type = Stem;
},
{
horizontal = 1;
place = "{602, 101}";
type = Stem;
}
);
layerId = "8768C18F-5D75-4F12-A5E9-2E25CBCA3CBE";
paths = (
{
closed = 1;
nodes = (
"75 0 LINE",
"347 0 LINE SMOOTH",
"540 0 OFFCURVE",
"624 85 OFFCURVE",
"624 194 CURVE SMOOTH",
"624 283 OFFCURVE",
"574 347 OFFCURVE",
"467 366 CURVE",
"534 391 OFFCURVE",
"571 449 OFFCURVE",
"571 526 CURVE SMOOTH",
"571 651 OFFCURVE",
"460 703 OFFCURVE",
"328 703 CURVE SMOOTH",
"75 703 LINE"
);
},
{
closed = 1;
nodes = (
"194 602 LINE",
"320 602 LINE SMOOTH",
"401 602 OFFCURVE",
"451 570 OFFCURVE",
"451 505 CURVE SMOOTH",
"451 446 OFFCURVE",
"408 404 OFFCURVE",
"319 404 CURVE SMOOTH",
"194 404 LINE"
);
},
{
closed = 1;
nodes = (
"194 310 LINE",
"327 310 LINE SMOOTH",
"454 310 OFFCURVE",
"504 272 OFFCURVE",
"504 206 CURVE SMOOTH",
"504 139 OFFCURVE",
"454 101 OFFCURVE",
"350 101 CURVE SMOOTH",
"194 101 LINE"
);
}
);
width = 666;
}
);
unicode = 0392;
},
{
glyphname = Zeta;
layers = (
{
hints = (
{
horizontal = 1;
place = "{0, 105}";
type = Stem;
},
{
horizontal = 1;
place = "{599, 104}";
type = Stem;
},
{
place = "{28, 608}";
type = Stem;
}
);
layerId = "8768C18F-5D75-4F12-A5E9-2E25CBCA3CBE";
paths = (
{
closed = 1;
nodes = (
"636 608 LINE",
"636 703 LINE",
"51 703 LINE",
"51 599 LINE",
"478 599 LINE",
"28 95 LINE",
"28 0 LINE",
"622 0 LINE",
"622 105 LINE",
"191 105 LINE"
);
}
);
width = 668;
}
);
unicode = 0396;
},
{
glyphname = Pi;
layers = (
{
hints = (
{
horizontal = 1;
place = "{0, 21}";
target = up;
type = BottomGhost;
},
{
horizontal = 1;
place = "{595, 109}";
type = Stem;
},
{
place = "{75, 121}";
type = Stem;
},
{
place = "{517, 120}";
type = Stem;
}
);
layerId = "8768C18F-5D75-4F12-A5E9-2E25CBCA3CBE";
paths = (
{
closed = 1;
nodes = (
"75 0 LINE",
"196 0 LINE",
"196 595 LINE",
"517 595 LINE",
"517 0 LINE",
"637 0 LINE",
"637 704 LINE",
"75 704 LINE"
);
}
);
width = 712;
}
);
unicode = 03A0;
},
{
glyphname = Xi;
layers = (
{
hints = (
{
horizontal = 1;
place = "{0, 116}";
type = Stem;
},
{
horizontal = 1;
place = "{301, 112}";
type = Stem;
},
{
horizontal = 1;
place = "{588, 115}";
type = Stem;
},
{
place = "{45, 504}";
type = Stem;
}
);
layerId = "8768C18F-5D75-4F12-A5E9-2E25CBCA3CBE";
paths = (
{
closed = 1;
nodes = (
"540 588 LINE",
"540 703 LINE",
"54 703 LINE",
"54 588 LINE"
);
},
{
closed = 1;
nodes = (
"509 301 LINE",
"509 413 LINE",
"85 413 LINE",
"85 301 LINE"
);
},
{
closed = 1;
nodes = (
"549 0 LINE",
"549 116 LINE",
"45 116 LINE",
"45 0 LINE"
);
}
);
width = 586;
}
);
unicode = 039E;
},
{
glyphname = Sigma;
layers = (
{
hints = (
{
horizontal = 1;
place = "{0, 105}";
type = Stem;
},
{
horizontal = 1;
place = "{599, 104}";
type = Stem;
},
{
place = "{29, 581}";
type = Stem;
}
);
layerId = "8768C18F-5D75-4F12-A5E9-2E25CBCA3CBE";
paths = (
{
closed = 1;
nodes = (
"264 354 LINE",
"29 95 LINE",
"29 0 LINE",
"610 0 LINE",
"610 105 LINE",
"192 105 LINE",
"415 354 LINE",
"199 599 LINE",
"604 599 LINE",
"604 703 LINE",
"41 703 LINE",
"41 608 LINE"
);
}
);
width = 642;
}
);
unicode = 03A3;
},
{
glyphname = Psi;
layers = (
{
hints = (
{
horizontal = 1;
place = "{0, 21}";
target = up;
type = BottomGhost;
},
{
horizontal = 1;
place = "{132, 111}";
type = Stem;
},
{
horizontal = 1;
place = "{703, -20}";
target = down;
type = TopGhost;
},
{
place = "{47, 121}";
type = Stem;
},
{
place = "{342, 121}";
type = Stem;
},
{
place = "{639, 121}";
type = Stem;
}
);
layerId = "8768C18F-5D75-4F12-A5E9-2E25CBCA3CBE";
paths = (
{
closed = 1;
nodes = (
"639 442 LINE SMOOTH",
"639 323 OFFCURVE",
"582 243 OFFCURVE",
"463 243 CURVE",
"463 703 LINE",
"342 703 LINE",
"342 243 LINE",
"223 243 OFFCURVE",
"168 323 OFFCURVE",
"168 442 CURVE SMOOTH",
"168 703 LINE",
"47 703 LINE",
"47 444 LINE SMOOTH",
"47 242 OFFCURVE",
"163 132 OFFCURVE",
"342 132 CURVE",
"342 0 LINE",
"463 0 LINE",
"463 132 LINE",
"647 132 OFFCURVE",
"760 241 OFFCURVE",
"760 446 CURVE SMOOTH",
"760 703 LINE",
"639 703 LINE"
);
}
);
width = 803;
}
);
unicode = 03A8;
},
{
glyphname = omicron;
layers = (
{
hints = (
{
horizontal = 1;
place = "{-11, 100}";
type = Stem;
},
{
horizontal = 1;
place = "{414, 100}";
type = Stem;
},
{
place = "{37, 117}";
type = Stem;
},
{
place = "{464, 117}";
type = Stem;
}
);
layerId = "8768C18F-5D75-4F12-A5E9-2E25CBCA3CBE";
paths = (
{
closed = 1;
nodes = (
"581 398 OFFCURVE",
"465 514 OFFCURVE",
"309 514 CURVE SMOOTH",
"152 514 OFFCURVE",
"37 397 OFFCURVE",
"37 250 CURVE SMOOTH",
"37 103 OFFCURVE",
"152 -11 OFFCURVE",
"307 -11 CURVE SMOOTH",
"465 -11 OFFCURVE",
"581 107 OFFCURVE",
"581 252 CURVE SMOOTH"
);
},
{
closed = 1;
nodes = (
"464 163 OFFCURVE",
"400 89 OFFCURVE",
"309 89 CURVE SMOOTH",
"221 89 OFFCURVE",
"154 160 OFFCURVE",
"154 252 CURVE SMOOTH",
"154 341 OFFCURVE",
"215 414 OFFCURVE",
"307 414 CURVE SMOOTH",
"399 414 OFFCURVE",
"464 340 OFFCURVE",
"464 251 CURVE SMOOTH"
);
}
);
width = 618;
}
);
unicode = 03BF;
},
{
glyphname = kappa;
layers = (
{
hints = (
{
horizontal = 1;
place = "{0, 21}";
target = up;
type = BottomGhost;
},
{
horizontal = 1;
place = "{502, -20}";
target = down;
type = TopGhost;
},
{
place = "{58, 118}";
type = Stem;
}
);
layerId = "8768C18F-5D75-4F12-A5E9-2E25CBCA3CBE";
paths = (
{
closed = 1;
nodes = (
"176 502 LINE",
"58 502 LINE",
"58 0 LINE",
"176 0 LINE",
"176 238 LINE",
"360 0 LINE",
"497 0 LINE",
"280 277 LINE",
"489 502 LINE",
"347 502 LINE",
"176 307 LINE"
);
}
);
width = 502;
}
);
unicode = 03BA;
},
{
glyphname = nu;
layers = (
{
hints = (
{
horizontal = 1;
place = "{-1, 21}";
target = up;
type = BottomGhost;
},
{
place = "{2, 525}";
type = Stem;
}
);
layerId = "8768C18F-5D75-4F12-A5E9-2E25CBCA3CBE";
paths = (
{
closed = 1;
nodes = (
"527 501 LINE",
"404 501 LINE",
"266 136 LINE",
"128 501 LINE",
"2 501 LINE",
"208 -1 LINE",
"320 -1 LINE"
);
}
);
width = 550;
}
);
unicode = 03BD;
},
{
glyphname = tonos;
layers = (
{
hints = (
{
horizontal = 1;
place = "{571, 161}";
type = Stem;
},
{
place = "{88, 251}";
type = Stem;
}
);
layerId = "8768C18F-5D75-4F12-A5E9-2E25CBCA3CBE";
paths = (
{
closed = 1;
nodes = (
"88 571 LINE",
"172 571 LINE",
"339 732 LINE",
"183 732 LINE"
);
}
);
width = 400;
}
);
unicode = 0384;
},
{
glyphname = Alphatonos;
layers = (
{
hints = (
{
horizontal = 1;
place = "{0, 21}";
target = up;
type = BottomGhost;
},
{
horizontal = 1;
place = "{173, 100}";
type = Stem;
},
{
horizontal = 1;
place = "{544, 161}";
type = Stem;
},
{
place = "{29, 733}";
type = Stem;
}
);
layerId = "8768C18F-5D75-4F12-A5E9-2E25CBCA3CBE";
paths = (
{
closed = 1;
nodes = (
"558 173 LINE",
"631 0 LINE",
"762 0 LINE",
"457 705 LINE",
"348 705 LINE",
"43 0 LINE",
"172 0 LINE",
"245 173 LINE"
);
},
{
closed = 1;
nodes = (
"29 544 LINE",
"113 544 LINE",
"280 705 LINE",
"124 705 LINE"
);
},
{
closed = 1;
nodes = (
"402 562 LINE",
"518 273 LINE",
"286 273 LINE"
);
}
);
width = 787;
}
);
unicode = 0386;
},
{
glyphname = Epsilontonos;
layers = (
{
hints = (
{
horizontal = 1;
place = "{0, 106}";
type = Stem;
},
{
horizontal = 1;
place = "{306, 102}";
type = Stem;
},
{
horizontal = 1;
place = "{598, 105}";
type = Stem;
},
{
place = "{315, 121}";
type = Stem;
}
);
layerId = "8768C18F-5D75-4F12-A5E9-2E25CBCA3CBE";
paths = (
{
closed = 1;
nodes = (
"436 306 LINE",
"778 306 LINE",
"778 408 LINE",
"436 408 LINE",
"436 598 LINE",
"809 598 LINE",
"809 703 LINE",
"315 703 LINE",
"315 0 LINE",
"818 0 LINE",
"818 106 LINE",
"436 106 LINE"
);
},
{
closed = 1;
nodes = (
"0 542 LINE",
"84 542 LINE",
"251 703 LINE",
"95 703 LINE"
);
}
);
width = 857;
}
);
unicode = 0388;
},
{
glyphname = Etatonos;
layers = (
{
hints = (
{
horizontal = 1;
place = "{0, 21}";
target = up;
type = BottomGhost;
},
{
horizontal = 1;
place = "{302, 109}";
type = Stem;
},
{
horizontal = 1;
place = "{542, 161}";
type = Stem;
},
{
place = "{316, 121}";
type = Stem;
},
{
place = "{774, 121}";
type = Stem;
}
);
layerId = "8768C18F-5D75-4F12-A5E9-2E25CBCA3CBE";
paths = (
{
closed = 1;
nodes = (
"316 0 LINE",
"437 0 LINE",
"437 302 LINE",
"774 302 LINE",
"774 0 LINE",
"895 0 LINE",
"895 704 LINE",
"774 704 LINE",
"774 411 LINE",
"437 411 LINE",
"437 704 LINE",
"316 704 LINE"
);
},
{
closed = 1;
nodes = (
"0 542 LINE",
"84 542 LINE",
"251 703 LINE",
"95 703 LINE"
);
}
);
width = 969;
}
);
unicode = 0389;
},
{
glyphname = Iotatonos;
layers = (
{
hints = (
{
horizontal = 1;
place = "{0, 21}";
target = up;
type = BottomGhost;
},
{
horizontal = 1;
place = "{542, 161}";
type = Stem;
},
{
place = "{319, 121}";
type = Stem;
}
);
layerId = "8768C18F-5D75-4F12-A5E9-2E25CBCA3CBE";
paths = (
{
closed = 1;
nodes = (
"440 703 LINE",
"319 703 LINE",
"319 0 LINE",
"440 0 LINE"
);
},
{
closed = 1;
nodes = (
"0 542 LINE",
"84 542 LINE",
"251 703 LINE",
"95 703 LINE"
);
}
);
width = 515;
}
);
unicode = 038A;
},
{
glyphname = Omicrontonos;
layers = (
{
hints = (
{
place = "{184, 125}";
type = Stem;
},
{
place = "{799, 124}";
type = Stem;
},
{
horizontal = 1;
place = "{-14, 110}";
type = Stem;
},
{
horizontal = 1;
place = "{542, 161}";
type = Stem;
},
{
horizontal = 1;
place = "{608, 109}";
type = Stem;
}
);
layerId = "8768C18F-5D75-4F12-A5E9-2E25CBCA3CBE";
paths = (
{
closed = 1;
nodes = (
"923 553 OFFCURVE",
"768 717 OFFCURVE",
"555 717 CURVE SMOOTH",
"342 717 OFFCURVE",
"184 555 OFFCURVE",
"184 351 CURVE SMOOTH",
"184 148 OFFCURVE",
"339 -14 OFFCURVE",
"554 -14 CURVE SMOOTH",
"766 -14 OFFCURVE",
"923 152 OFFCURVE",
"923 353 CURVE SMOOTH"
);
},
{
closed = 1;
nodes = (
"0 542 LINE",
"84 542 LINE",
"251 703 LINE",
"95 703 LINE"
);
},
{
closed = 1;
nodes = (
"799 210 OFFCURVE",
"697 96 OFFCURVE",
"555 96 CURVE SMOOTH",
"409 96 OFFCURVE",
"309 211 OFFCURVE",
"309 353 CURVE SMOOTH",
"309 494 OFFCURVE",
"409 608 OFFCURVE",
"554 608 CURVE SMOOTH",
"698 608 OFFCURVE",
"799 491 OFFCURVE",
"799 350 CURVE SMOOTH"
);
}
);
width = 960;
}
);
unicode = 038C;
},
{
glyphname = Upsilontonos;
layers = (
{
hints = (
{
horizontal = 1;
place = "{0, 21}";
target = up;
type = BottomGhost;
},
{
horizontal = 1;
place = "{542, 161}";
type = Stem;
},
{
place = "{586, 121}";
type = Stem;
}
);
layerId = "8768C18F-5D75-4F12-A5E9-2E25CBCA3CBE";
paths = (
{
closed = 1;
nodes = (
"707 276 LINE",
"975 703 LINE",
"840 703 LINE",
"649 387 LINE",
"457 703 LINE",
"316 703 LINE",
"586 274 LINE",
"586 0 LINE",
"707 0 LINE"
);
},
{
closed = 1;
nodes = (
"0 542 LINE",
"84 542 LINE",
"251 703 LINE",
"95 703 LINE"
);
}
);
width = 983;
}
);
unicode = 038E;
},
{
glyphname = Gamma;
layers = (
{
hints = (
{
horizontal = 1;
place = "{0, 21}";
target = up;
type = BottomGhost;
},
{
horizontal = 1;
place = "{596, 107}";
type = Stem;
},
{
place = "{75, 121}";
type = Stem;
}
);
layerId = "8768C18F-5D75-4F12-A5E9-2E25CBCA3CBE";
paths = (
{
closed = 1;
nodes = (
"196 596 LINE",
"566 596 LINE",
"566 703 LINE",
"75 703 LINE",
"75 0 LINE",
"196 0 LINE"
);
}
);
width = 577;
}
);
unicode = 0393;
},
{
glyphname = Theta;
layers = (
{
hints = (
{
horizontal = 1;
place = "{-14, 110}";
type = Stem;
},
{
horizontal = 1;
place = "{301, 111}";
type = Stem;
},
{
horizontal = 1;
place = "{608, 109}";
type = Stem;
},
{
place = "{37, 125}";
type = Stem;
},
{
place = "{252, 310}";
type = Stem;
},
{
place = "{652, 124}";
type = Stem;
}
);
layerId = "8768C18F-5D75-4F12-A5E9-2E25CBCA3CBE";
paths = (
{
closed = 1;
nodes = (
"776 553 OFFCURVE",
"621 717 OFFCURVE",
"409 717 CURVE SMOOTH",
"194 717 OFFCURVE",
"37 555 OFFCURVE",
"37 351 CURVE SMOOTH",
"37 148 OFFCURVE",
"192 -14 OFFCURVE",
"407 -14 CURVE SMOOTH",
"619 -14 OFFCURVE",
"776 152 OFFCURVE",
"776 353 CURVE SMOOTH"
);
},
{
closed = 1;
nodes = (
"652 210 OFFCURVE",
"550 96 OFFCURVE",
"408 96 CURVE SMOOTH",
"262 96 OFFCURVE",
"162 211 OFFCURVE",
"162 353 CURVE SMOOTH",
"162 494 OFFCURVE",
"262 608 OFFCURVE",
"407 608 CURVE SMOOTH",
"551 608 OFFCURVE",
"652 491 OFFCURVE",
"652 350 CURVE SMOOTH"
);
},
{
closed = 1;
nodes = (
"562 301 LINE",
"562 412 LINE",
"252 412 LINE",
"252 301 LINE"
);
}
);
width = 814;
}
);
unicode = 0398;
},
{
glyphname = Iotadieresis;
layers = (
{
hints = (
{
place = "{-26, 138}";
type = Stem;
},
{
place = "{83, 121}";
type = Stem;
},
{
place = "{177, 136}";
type = Stem;
},
{
horizontal = 1;
place = "{0, 21}";
target = up;
type = BottomGhost;
},
{
horizontal = 1;
place = "{703, -20}";
target = down;
type = TopGhost;
},
{
horizontal = 1;
place = "{714, 136}";
type = Stem;
}
);
layerId = "8768C18F-5D75-4F12-A5E9-2E25CBCA3CBE";
paths = (
{
closed = 1;
nodes = (
"-26 741 OFFCURVE",
"3 714 OFFCURVE",
"42 714 CURVE SMOOTH",
"81 714 OFFCURVE",
"112 741 OFFCURVE",
"112 782 CURVE SMOOTH",
"112 822 OFFCURVE",
"81 850 OFFCURVE",
"42 850 CURVE SMOOTH",
"3 850 OFFCURVE",
"-26 822 OFFCURVE",
"-26 782 CURVE SMOOTH"
);
},
{
closed = 1;
nodes = (
"177 741 OFFCURVE",
"207 714 OFFCURVE",
"244 714 CURVE SMOOTH",
"284 714 OFFCURVE",
"313 741 OFFCURVE",
"313 782 CURVE SMOOTH",
"313 822 OFFCURVE",
"284 850 OFFCURVE",
"244 850 CURVE SMOOTH",
"207 850 OFFCURVE",
"177 822 OFFCURVE",
"177 782 CURVE SMOOTH"
);
},
{
closed = 1;
nodes = (
"204 703 LINE",
"83 703 LINE",
"83 0 LINE",
"204 0 LINE"
);
}
);
width = 288;
}
);
unicode = 03AA;
},
{
glyphname = Upsilondieresis;
layers = (
{
hints = (
{
place = "{170, 138}";
type = Stem;
},
{
place = "{279, 121}";
type = Stem;
},
{
place = "{373, 136}";
type = Stem;
},
{
horizontal = 1;
place = "{0, 21}";
target = up;
type = BottomGhost;
},
{
horizontal = 1;
place = "{703, -20}";
target = down;
type = TopGhost;
},
{
horizontal = 1;
place = "{714, 136}";
type = Stem;
}
);
layerId = "8768C18F-5D75-4F12-A5E9-2E25CBCA3CBE";
paths = (
{
closed = 1;
nodes = (
"170 741 OFFCURVE",
"199 714 OFFCURVE",
"238 714 CURVE SMOOTH",
"277 714 OFFCURVE",
"308 741 OFFCURVE",
"308 782 CURVE SMOOTH",
"308 822 OFFCURVE",
"277 850 OFFCURVE",
"238 850 CURVE SMOOTH",
"199 850 OFFCURVE",
"170 822 OFFCURVE",
"170 782 CURVE SMOOTH"
);
},
{
closed = 1;
nodes = (
"373 741 OFFCURVE",
"403 714 OFFCURVE",
"440 714 CURVE SMOOTH",
"480 714 OFFCURVE",
"509 741 OFFCURVE",
"509 782 CURVE SMOOTH",
"509 822 OFFCURVE",
"480 850 OFFCURVE",
"440 850 CURVE SMOOTH",
"403 850 OFFCURVE",
"373 822 OFFCURVE",
"373 782 CURVE SMOOTH"
);
},
{
closed = 1;
nodes = (
"400 276 LINE",
"668 703 LINE",
"533 703 LINE",
"342 387 LINE",
"150 703 LINE",
"9 703 LINE",
"279 274 LINE",
"279 0 LINE",
"400 0 LINE"
);
}
);
width = 674;
}
);
unicode = 03AB;
},
{
glyphname = dieresistonos;
layers = (
{
hints = (
{
place = "{5, 131}";
type = Stem;
},
{
place = "{325, 128}";
type = Stem;
},
{
horizontal = 1;
place = "{517, 131}";
type = Stem;
},
{
horizontal = 1;
place = "{519, 161}";
type = Stem;
}
);
layerId = "8768C18F-5D75-4F12-A5E9-2E25CBCA3CBE";
paths = (
{
closed = 1;
nodes = (
"137 519 LINE",
"216 519 LINE",
"363 680 LINE",
"217 680 LINE"
);
},
{
closed = 1;
nodes = (
"427 517 OFFCURVE",
"453 547 OFFCURVE",
"453 582 CURVE SMOOTH",
"453 617 OFFCURVE",
"427 648 OFFCURVE",
"388 648 CURVE SMOOTH",
"352 648 OFFCURVE",
"325 617 OFFCURVE",
"325 582 CURVE SMOOTH",
"325 547 OFFCURVE",
"352 517 OFFCURVE",
"388 517 CURVE SMOOTH"
);
},
{
closed = 1;
nodes = (
"5 543 OFFCURVE",
"34 517 OFFCURVE",
"70 517 CURVE SMOOTH",
"103 517 OFFCURVE",
"136 543 OFFCURVE",
"136 582 CURVE SMOOTH",
"136 618 OFFCURVE",
"103 646 OFFCURVE",
"70 646 CURVE SMOOTH",
"34 646 OFFCURVE",
"5 618 OFFCURVE",
"5 582 CURVE SMOOTH"
);
}
);
width = 462;
}
);
unicode = 0385;
},
{
glyphname = alpha;
layers = (
{
hints = (
{
place = "{30, 117}";
type = Stem;
},
{
place = "{445, 118}";
type = Stem;
},
{
horizontal = 1;
place = "{-11, 99}";
type = Stem;
},
{
horizontal = 1;
place = "{0, 21}";
target = up;
type = BottomGhost;
},
{
horizontal = 1;
place = "{414, 88}";
type = Stem;
},
{
horizontal = 1;
place = "{414, 100}";
type = Stem;
}
);
layerId = "8768C18F-5D75-4F12-A5E9-2E25CBCA3CBE";
paths = (
{
closed = 1;
nodes = (
"563 0 LINE",
"563 502 LINE",
"445 502 LINE",
"445 421 LINE",
"400 480 OFFCURVE",
"345 514 OFFCURVE",
"269 514 CURVE SMOOTH",
"121 514 OFFCURVE",
"30 391 OFFCURVE",
"30 251 CURVE SMOOTH",
"30 111 OFFCURVE",
"123 -11 OFFCURVE",
"269 -11 CURVE SMOOTH",
"349 -11 OFFCURVE",
"396 25 OFFCURVE",
"445 82 CURVE"
);
},
{
closed = 1;
nodes = (
"388 414 OFFCURVE",
"449 337 OFFCURVE",
"449 252 CURVE SMOOTH",
"449 166 OFFCURVE",
"386 88 OFFCURVE",
"297 88 CURVE SMOOTH",
"208 88 OFFCURVE",
"147 166 OFFCURVE",
"147 250 CURVE SMOOTH",
"147 340 OFFCURVE",
"204 414 OFFCURVE",
"297 414 CURVE SMOOTH"
);
}
);
width = 594;
}
);
unicode = 03B1;
},
{
glyphname = rho;
layers = (
{
hints = (
{
horizontal = 1;
place = "{-179, 21}";
target = up;
type = BottomGhost;
},
{
horizontal = 1;
place = "{-11, 99}";
type = Stem;
},
{
horizontal = 1;
place = "{413, 101}";
type = Stem;
},
{
place = "{65, 118}";
type = Stem;
},
{
place = "{483, 117}";
type = Stem;
}
);
layerId = "8768C18F-5D75-4F12-A5E9-2E25CBCA3CBE";
paths = (
{
closed = 1;
nodes = (
"65 -179 LINE",
"183 -179 LINE",
"183 78 LINE",
"228 19 OFFCURVE",
"287 -11 OFFCURVE",
"360 -11 CURVE SMOOTH",
"509 -11 OFFCURVE",
"600 113 OFFCURVE",
"600 252 CURVE SMOOTH",
"600 408 OFFCURVE",
"485 514 OFFCURVE",
"333 514 CURVE SMOOTH",
"180 514 OFFCURVE",
"65 408 OFFCURVE",
"65 252 CURVE SMOOTH"
);
},
{
closed = 1;
nodes = (
"483 165 OFFCURVE",
"426 88 OFFCURVE",
"334 88 CURVE SMOOTH",
"244 88 OFFCURVE",
"179 156 OFFCURVE",
"179 247 CURVE SMOOTH",
"179 343 OFFCURVE",
"246 413 OFFCURVE",
"331 413 CURVE SMOOTH",
"422 413 OFFCURVE",
"483 341 OFFCURVE",
"483 252 CURVE SMOOTH"
);
}
);
width = 637;
}
);
unicode = 03C1;
},
{
glyphname = iota;
layers = (
{
hints = (
{
horizontal = 1;
place = "{0, 21}";
target = up;
type = BottomGhost;
},
{
horizontal = 1;
place = "{502, -20}";
target = down;
type = TopGhost;
},
{
place = "{70, 117}";
type = Stem;
}
);
layerId = "8768C18F-5D75-4F12-A5E9-2E25CBCA3CBE";
paths = (
{
closed = 1;
nodes = (
"187 502 LINE",
"70 502 LINE",
"70 0 LINE",
"187 0 LINE"
);
}
);
width = 213;
}
);
unicode = 03B9;
},
{
glyphname = eta;
layers = (
{
hints = (
{
place = "{55, 118}";
type = Stem;
},
{
place = "{392, 118}";
type = Stem;
},
{
horizontal = 1;
place = "{0, 21}";
target = up;
type = BottomGhost;
},
{
horizontal = 1;
place = "{409, 104}";
type = Stem;
},
{
horizontal = 1;
place = "{502, -20}";
target = down;
type = TopGhost;
}
);
layerId = "8768C18F-5D75-4F12-A5E9-2E25CBCA3CBE";
paths = (
{
closed = 1;
nodes = (
"260 513 OFFCURVE",
"210 479 OFFCURVE",
"174 436 CURVE",
"55 502 LINE",
"55 0 LINE",
"173 0 LINE",
"173 284 LINE SMOOTH",
"173 377 OFFCURVE",
"237 409 OFFCURVE",
"288 409 CURVE SMOOTH",
"340 409 OFFCURVE",
"392 375 OFFCURVE",
"392 284 CURVE SMOOTH",
"392 0 LINE",
"510 0 LINE",
"510 320 LINE SMOOTH",
"510 445 OFFCURVE",
"438 513 OFFCURVE",
"332 513 CURVE SMOOTH"
);
}
);
width = 567;
}
);
unicode = 03B7;
},
{
glyphname = gamma;
layers = (
{
hints = (
{
horizontal = 1;
place = "{-179, 21}";
target = up;
type = BottomGhost;
},
{
place = "{194, 118}";
type = Stem;
}
);
layerId = "8768C18F-5D75-4F12-A5E9-2E25CBCA3CBE";
paths = (
{
closed = 1;
nodes = (
"312 8 LINE",
"515 501 LINE",
"392 501 LINE",
"254 136 LINE",
"117 501 LINE",
"-10 501 LINE",
"194 5 LINE",
"194 -179 LINE",
"312 -179 LINE"
);
}
);
width = 536;
}
);
unicode = 03B3;
},
{
glyphname = upsilon;
layers = (
{
hints = (
{
horizontal = 1;
place = "{-11, 102}";
type = Stem;
},
{
horizontal = 1;
place = "{502, -20}";
target = down;
type = TopGhost;
},
{
place = "{42, 118}";
type = Stem;
},
{
place = "{379, 118}";
type = Stem;
}
);
layerId = "8768C18F-5D75-4F12-A5E9-2E25CBCA3CBE";
paths = (
{
closed = 1;
nodes = (
"497 502 LINE",
"379 502 LINE",
"379 210 LINE SMOOTH",
"379 145 OFFCURVE",
"338 91 OFFCURVE",
"269 91 CURVE SMOOTH",
"194 91 OFFCURVE",
"160 144 OFFCURVE",
"160 212 CURVE SMOOTH",
"160 502 LINE",
"42 502 LINE",
"42 224 LINE SMOOTH",
"42 69 OFFCURVE",
"119 -11 OFFCURVE",
"270 -11 CURVE SMOOTH",
"419 -11 OFFCURVE",
"497 72 OFFCURVE",
"497 227 CURVE SMOOTH"
);
}
);
width = 551;
}
);
unicode = 03C5;
},
{
glyphname = beta;
layers = (
{
hints = (
{
place = "{67, 118}";
type = Stem;
},
{
place = "{434, 117}";
type = Stem;
},
{
place = "{474, 118}";
type = Stem;
},
{
horizontal = 1;
place = "{-179, 21}";
target = up;
type = BottomGhost;
},
{
horizontal = 1;
place = "{-11, 101}";
type = Stem;
},
{
horizontal = 1;
place = "{635, 101}";
type = Stem;
}
);
layerId = "8768C18F-5D75-4F12-A5E9-2E25CBCA3CBE";
paths = (
{
closed = 1;
nodes = (
"493 -11 OFFCURVE",
"592 81 OFFCURVE",
"592 203 CURVE SMOOTH",
"592 303 OFFCURVE",
"532 376 OFFCURVE",
"431 389 CURVE",
"503 420 OFFCURVE",
"551 467 OFFCURVE",
"551 547 CURVE SMOOTH",
"551 658 OFFCURVE",
"462 736 OFFCURVE",
"319 736 CURVE SMOOTH",
"152 736 OFFCURVE",
"67 630 OFFCURVE",
"67 494 CURVE SMOOTH",
"67 -179 LINE",
"185 -179 LINE",
"185 79 LINE",
"226 27 OFFCURVE",
"290 -11 OFFCURVE",
"371 -11 CURVE SMOOTH"
);
},
{
closed = 1;
nodes = (
"258 90 OFFCURVE",
"185 158 OFFCURVE",
"185 251 CURVE SMOOTH",
"185 494 LINE SMOOTH",
"185 570 OFFCURVE",
"230 635 OFFCURVE",
"318 635 CURVE SMOOTH",
"382 635 OFFCURVE",
"434 598 OFFCURVE",
"434 531 CURVE SMOOTH",
"434 468 OFFCURVE",
"389 426 OFFCURVE",
"305 415 CURVE",
"305 340 LINE",
"420 336 OFFCURVE",
"474 285 OFFCURVE",
"474 213 CURVE SMOOTH",
"474 142 OFFCURVE",
"420 90 OFFCURVE",
"350 90 CURVE SMOOTH"
);
}
);
width = 629;
}
);
unicode = 03B2;
},
{
glyphname = pi;
layers = (
{
hints = (
{
horizontal = 1;
place = "{0, 21}";
target = up;
type = BottomGhost;
},
{
horizontal = 1;
place = "{406, 96}";
type = Stem;
},
{
place = "{55, 118}";
type = Stem;
},
{
place = "{382, 118}";
type = Stem;
}
);
layerId = "8768C18F-5D75-4F12-A5E9-2E25CBCA3CBE";
paths = (
{
closed = 1;
nodes = (
"55 502 LINE",
"55 0 LINE",
"173 0 LINE",
"173 406 LINE",
"382 406 LINE",
"382 0 LINE",
"500 0 LINE",
"500 502 LINE"
);
}
);
width = 557;
}
);
unicode = 03C0;
},
{
glyphname = uni03BC;
layers = (
{
hints = (
{
place = "{70, 118}";
type = Stem;
},
{
place = "{407, 118}";
type = Stem;
},
{
horizontal = 1;
place = "{-179, 21}";
target = up;
type = BottomGhost;
},
{
horizontal = 1;
place = "{-11, 104}";
type = Stem;
},
{
horizontal = 1;
place = "{0, 21}";
target = up;
type = BottomGhost;
},
{
horizontal = 1;
place = "{502, -20}";
target = down;
type = TopGhost;
}
);
layerId = "8768C18F-5D75-4F12-A5E9-2E25CBCA3CBE";
paths = (
{
closed = 1;
nodes = (
"188 55 LINE",
"209 10 OFFCURVE",
"248 -11 OFFCURVE",
"289 -11 CURVE SMOOTH",
"340 -11 OFFCURVE",
"385 27 OFFCURVE",
"406 66 CURVE",
"525 0 LINE",
"525 502 LINE",
"407 502 LINE",
"407 219 LINE SMOOTH",
"407 138 OFFCURVE",
"357 93 OFFCURVE",
"291 93 CURVE SMOOTH",
"239 93 OFFCURVE",
"188 130 OFFCURVE",
"188 219 CURVE SMOOTH",
"188 502 LINE",
"70 502 LINE",
"70 -179 LINE",
"188 -179 LINE"
);
}
);
width = 549;
}
);
unicode = 03BC;
},
{
glyphname = tau;
layers = (
{
hints = (
{
horizontal = 1;
place = "{-11, 101}";
type = Stem;
},
{
horizontal = 1;
place = "{404, 98}";
type = Stem;
},
{
place = "{119, 117}";
type = Stem;
}
);
layerId = "8768C18F-5D75-4F12-A5E9-2E25CBCA3CBE";
paths = (
{
closed = 1;
nodes = (
"-8 502 LINE",
"-8 404 LINE",
"119 404 LINE",
"119 136 LINE SMOOTH",
"119 39 OFFCURVE",
"173 -11 OFFCURVE",
"256 -11 CURVE SMOOTH",
"287 -11 OFFCURVE",
"312 -4 OFFCURVE",
"333 7 CURVE",
"333 102 LINE",
"318 94 OFFCURVE",
"301 90 OFFCURVE",
"285 90 CURVE SMOOTH",
"250 90 OFFCURVE",
"236 113 OFFCURVE",
"236 150 CURVE SMOOTH",
"236 404 LINE",
"367 404 LINE",
"367 502 LINE"
);
}
);
width = 376;
}
);
unicode = 03C4;
},
{
glyphname = Phi;
layers = (
{
hints = (
{
place = "{37, 124}";
type = Stem;
},
{
place = "{386, 117}";
type = Stem;
},
{
place = "{725, 124}";
type = Stem;
},
{
horizontal = 1;
place = "{-5, 163}";
type = Stem;
},
{
horizontal = 1;
place = "{52, 106}";
type = Stem;
},
{
horizontal = 1;
place = "{547, 107}";
type = Stem;
},
{
horizontal = 1;
place = "{547, 161}";
type = Stem;
}
);
layerId = "8768C18F-5D75-4F12-A5E9-2E25CBCA3CBE";
paths = (
{
closed = 1;
nodes = (
"503 708 LINE",
"386 708 LINE",
"386 654 LINE",
"373 653 OFFCURVE",
"359 651 OFFCURVE",
"346 650 CURVE SMOOTH",
"144 629 OFFCURVE",
"37 507 OFFCURVE",
"37 352 CURVE SMOOTH",
"37 197 OFFCURVE",
"144 75 OFFCURVE",
"346 56 CURVE",
"359 53 OFFCURVE",
"373 52 OFFCURVE",
"386 52 CURVE",
"386 -5 LINE",
"503 -5 LINE",
"503 52 LINE",
"518 52 OFFCURVE",
"530 53 OFFCURVE",
"543 56 CURVE",
"741 77 OFFCURVE",
"849 198 OFFCURVE",
"849 354 CURVE SMOOTH",
"849 504 OFFCURVE",
"741 629 OFFCURVE",
"543 650 CURVE SMOOTH",
"530 651 OFFCURVE",
"518 653 OFFCURVE",
"503 654 CURVE"
);
},
{
closed = 1;
nodes = (
"503 547 LINE",
"649 536 OFFCURVE",
"725 460 OFFCURVE",
"725 350 CURVE SMOOTH",
"725 242 OFFCURVE",
"648 166 OFFCURVE",
"503 158 CURVE"
);
},
{
closed = 1;
nodes = (
"386 158 LINE",
"243 166 OFFCURVE",
"161 240 OFFCURVE",
"161 353 CURVE SMOOTH",
"161 465 OFFCURVE",
"243 539 OFFCURVE",
"386 547 CURVE"
);
}
);
width = 886;
}
);
unicode = 03A6;
},
{
glyphname = chi;
layers = (
{
hints = (
{
horizontal = 1;
place = "{-179, 21}";
target = up;
type = BottomGhost;
},
{
place = "{6, 510}";
type = Stem;
}
);
layerId = "8768C18F-5D75-4F12-A5E9-2E25CBCA3CBE";
paths = (
{
closed = 1;
nodes = (
"262 291 LINE",
"147 501 LINE",
"16 501 LINE",
"198 180 LINE",
"6 -179 LINE",
"133 -179 LINE",
"259 69 LINE",
"385 -179 LINE",
"516 -179 LINE",
"323 184 LINE",
"505 501 LINE",
"378 501 LINE"
);
}
);
width = 518;
}
);
unicode = 03C7;
},
{
glyphname = sigma;
layers = (
{
hints = (
{
horizontal = 1;
place = "{-11, 100}";
type = Stem;
},
{
horizontal = 1;
place = "{404, 98}";
type = Stem;
},
{
place = "{37, 117}";
type = Stem;
},
{
place = "{464, 117}";
type = Stem;
}
);
layerId = "8768C18F-5D75-4F12-A5E9-2E25CBCA3CBE";
paths = (
{
closed = 1;
nodes = (
"635 404 LINE",
"635 502 LINE",
"323 502 LINE SMOOTH",
"145 502 OFFCURVE",
"37 377 OFFCURVE",
"37 244 CURVE SMOOTH",
"37 104 OFFCURVE",
"150 -11 OFFCURVE",
"307 -11 CURVE SMOOTH",
"446 -11 OFFCURVE",
"581 95 OFFCURVE",
"581 240 CURVE SMOOTH",
"581 304 OFFCURVE",
"552 367 OFFCURVE",
"492 404 CURVE"
);
},
{
closed = 1;
nodes = (
"464 157 OFFCURVE",
"398 89 OFFCURVE",
"309 89 CURVE SMOOTH",
"219 89 OFFCURVE",
"154 163 OFFCURVE",
"154 246 CURVE SMOOTH",
"154 333 OFFCURVE",
"216 402 OFFCURVE",
"309 402 CURVE SMOOTH",
"404 402 OFFCURVE",
"464 337 OFFCURVE",
"464 245 CURVE SMOOTH"
);
}
);
width = 646;
}
);
unicode = 03C3;
},
{
glyphname = theta;
layers = (
{
hints = (
{
horizontal = 1;
place = "{-11, 100}";
type = Stem;
},
{
horizontal = 1;
place = "{326, 96}";
type = Stem;
},
{
horizontal = 1;
place = "{637, 99}";
type = Stem;
},
{
place = "{37, 120}";
type = Stem;
},
{
place = "{452, 119}";
type = Stem;
}
);
layerId = "8768C18F-5D75-4F12-A5E9-2E25CBCA3CBE";
paths = (
{
closed = 1;
nodes = (
"111 736 OFFCURVE",
"37 546 OFFCURVE",
"37 358 CURVE SMOOTH",
"37 338 OFFCURVE",
"39 320 OFFCURVE",
"40 301 CURVE",
"59 102 OFFCURVE",
"157 -11 OFFCURVE",
"304 -11 CURVE SMOOTH",
"456 -11 OFFCURVE",
"553 110 OFFCURVE",
"569 303 CURVE",
"572 324 OFFCURVE",
"571 346 OFFCURVE",
"571 367 CURVE SMOOTH",
"571 579 OFFCURVE",
"476 736 OFFCURVE",
"305 736 CURVE SMOOTH"
);
},
{
closed = 1;
nodes = (
"157 422 LINE",
"162 483 OFFCURVE",
"175 532 OFFCURVE",
"198 568 CURVE",
"222 608 OFFCURVE",
"260 637 OFFCURVE",
"304 637 CURVE SMOOTH",
"345 637 OFFCURVE",
"380 614 OFFCURVE",
"408 571 CURVE SMOOTH",
"431 536 OFFCURVE",
"447 486 OFFCURVE",
"451 422 CURVE"
);
},
{
closed = 1;
nodes = (
"452 326 LINE",
"448 266 OFFCURVE",
"438 220 OFFCURVE",
"422 181 CURVE",
"419 176 OFFCURVE",
"417 170 OFFCURVE",
"414 166 CURVE",
"391 123 OFFCURVE",
"355 89 OFFCURVE",
"304 89 CURVE SMOOTH",
"268 89 OFFCURVE",
"233 108 OFFCURVE",
"206 149 CURVE SMOOTH",
"181 188 OFFCURVE",
"162 247 OFFCURVE",
"157 326 CURVE"
);
}
);
width = 608;
}
);
unicode = 03B8;
},
{
glyphname = lambda;
layers = (
{
hints = (
{
horizontal = 1;
place = "{0, 21}";
target = up;
type = BottomGhost;
},
{
horizontal = 1;
place = "{644, 92}";
type = Stem;
},
{
place = "{5, 528}";
type = Stem;
}
);
layerId = "8768C18F-5D75-4F12-A5E9-2E25CBCA3CBE";
paths = (
{
closed = 1;
nodes = (
"206 516 LINE",
"5 0 LINE",
"131 0 LINE",
"266 383 LINE",
"410 0 LINE",
"533 0 LINE",
"296 580 LINE",
"264 655 OFFCURVE",
"233 736 OFFCURVE",
"136 736 CURVE SMOOTH",
"101 736 OFFCURVE",
"68 727 OFFCURVE",
"36 715 CURVE",
"62 623 LINE",
"81 634 OFFCURVE",
"100 644 OFFCURVE",
"123 644 CURVE SMOOTH",
"158 644 OFFCURVE",
"198 541 OFFCURVE",
"206 517 CURVE"
);
}
);
width = 543;
}
);
unicode = 03BB;
},
{
glyphname = psi;
layers = (
{
hints = (
{
horizontal = 1;
place = "{-179, 21}";
target = up;
type = BottomGhost;
},
{
horizontal = 1;
place = "{-11, 102}";
type = Stem;
},
{
horizontal = 1;
place = "{502, -20}";
target = down;
type = TopGhost;
},
{
place = "{57, 118}";
type = Stem;
},
{
place = "{323, 119}";
type = Stem;
},
{
place = "{591, 118}";
type = Stem;
}
);
layerId = "8768C18F-5D75-4F12-A5E9-2E25CBCA3CBE";
paths = (
{
closed = 1;
nodes = (
"324 -179 LINE",
"442 -179 LINE",
"442 -11 LINE",
"586 -11 OFFCURVE",
"709 60 OFFCURVE",
"709 236 CURVE SMOOTH",
"709 502 LINE",
"591 502 LINE",
"591 236 LINE SMOOTH",
"591 127 OFFCURVE",
"513 91 OFFCURVE",
"442 91 CURVE",
"442 731 LINE",
"323 731 LINE",
"323 91 LINE",
"249 91 OFFCURVE",
"175 119 OFFCURVE",
"175 237 CURVE SMOOTH",
"175 502 LINE",
"57 502 LINE",
"57 234 LINE SMOOTH",
"57 71 OFFCURVE",
"169 -11 OFFCURVE",
"324 -11 CURVE"
);
}
);
width = 753;
}
);
unicode = 03C8;
},
{
glyphname = epsilon;
layers = (
{
hints = (
{
place = "{38, 117}";
type = Stem;
},
{
place = "{59, 117}";
type = Stem;
},
{
horizontal = 1;
place = "{-11, 100}";
type = Stem;
},
{
horizontal = 1;
place = "{216, 91}";
type = Stem;
},
{
horizontal = 1;
place = "{414, 100}";
type = Stem;
}
);
layerId = "8768C18F-5D75-4F12-A5E9-2E25CBCA3CBE";
paths = (
{
closed = 1;
nodes = (
"201 89 OFFCURVE",
"155 113 OFFCURVE",
"155 152 CURVE SMOOTH",
"155 185 OFFCURVE",
"190 216 OFFCURVE",
"273 216 CURVE SMOOTH",
"322 216 LINE",
"322 307 LINE",
"281 307 LINE SMOOTH",
"217 307 OFFCURVE",
"176 328 OFFCURVE",
"176 365 CURVE SMOOTH",
"176 396 OFFCURVE",
"211 414 OFFCURVE",
"259 414 CURVE SMOOTH",
"292 414 OFFCURVE",
"335 406 OFFCURVE",
"380 378 CURVE",
"410 475 LINE",
"358 502 OFFCURVE",
"306 514 OFFCURVE",
"251 514 CURVE SMOOTH",
"146 514 OFFCURVE",
"59 465 OFFCURVE",
"59 380 CURVE SMOOTH",
"59 329 OFFCURVE",
"91 285 OFFCURVE",
"152 262 CURVE",
"79 245 OFFCURVE",
"38 199 OFFCURVE",
"38 140 CURVE SMOOTH",
"38 48 OFFCURVE",
"139 -11 OFFCURVE",
"252 -11 CURVE SMOOTH",
"307 -11 OFFCURVE",
"364 2 OFFCURVE",
"420 26 CURVE",
"397 124 LINE",
"341 96 OFFCURVE",
"297 89 OFFCURVE",
"261 89 CURVE SMOOTH"
);
}
);
width = 441;
}
);
unicode = 03B5;
},
{
glyphname = delta;
layers = (
{
hints = (
{
horizontal = 1;
place = "{-11, 100}";
type = Stem;
},
{
horizontal = 1;
place = "{392, 90}";
type = Stem;
},
{
horizontal = 1;
place = "{639, 97}";
type = Stem;
},
{
place = "{37, 117}";
type = Stem;
},
{
place = "{462, 117}";
type = Stem;
}
);
layerId = "8768C18F-5D75-4F12-A5E9-2E25CBCA3CBE";
paths = (
{
closed = 1;
nodes = (
"265 639 LINE",
"504 639 LINE",
"504 736 LINE",
"90 736 LINE",
"90 639 LINE",
"298 481 LINE",
"289 482 OFFCURVE",
"281 482 OFFCURVE",
"273 482 CURVE SMOOTH",
"220 482 OFFCURVE",
"161 464 OFFCURVE",
"114 421 CURVE SMOOTH",
"66 378 OFFCURVE",
"37 316 OFFCURVE",
"37 245 CURVE SMOOTH",
"37 102 OFFCURVE",
"156 -11 OFFCURVE",
"306 -11 CURVE SMOOTH",
"461 -11 OFFCURVE",
"579 102 OFFCURVE",
"579 246 CURVE SMOOTH",
"579 360 OFFCURVE",
"512 436 OFFCURVE",
"427 502 CURVE"
);
},
{
closed = 1;
nodes = (
"462 165 OFFCURVE",
"400 89 OFFCURVE",
"308 89 CURVE SMOOTH",
"215 89 OFFCURVE",
"154 163 OFFCURVE",
"154 245 CURVE SMOOTH",
"154 330 OFFCURVE",
"221 392 OFFCURVE",
"312 392 CURVE SMOOTH",
"408 392 OFFCURVE",
"462 322 OFFCURVE",
"462 245 CURVE SMOOTH"
);
}
);
width = 617;
}
);
unicode = 03B4;
},
{
glyphname = alphatonos;
layers = (
{
hints = (
{
place = "{30, 117}";
type = Stem;
},
{
place = "{445, 118}";
type = Stem;
},
{
horizontal = 1;
place = "{-11, 99}";
type = Stem;
},
{
horizontal = 1;
place = "{0, 21}";
target = up;
type = BottomGhost;
},
{
horizontal = 1;
place = "{414, 88}";
type = Stem;
},
{
horizontal = 1;
place = "{414, 100}";
type = Stem;
},
{
horizontal = 1;
place = "{571, 161}";
type = Stem;
}
);
layerId = "8768C18F-5D75-4F12-A5E9-2E25CBCA3CBE";
paths = (
{
closed = 1;
nodes = (
"254 571 LINE",
"338 571 LINE",
"505 732 LINE",
"349 732 LINE"
);
},
{
closed = 1;
nodes = (
"563 0 LINE",
"563 502 LINE",
"445 502 LINE",
"445 421 LINE",
"400 480 OFFCURVE",
"345 514 OFFCURVE",
"269 514 CURVE SMOOTH",
"121 514 OFFCURVE",
"30 391 OFFCURVE",
"30 251 CURVE SMOOTH",
"30 111 OFFCURVE",
"123 -11 OFFCURVE",
"269 -11 CURVE SMOOTH",
"349 -11 OFFCURVE",
"396 25 OFFCURVE",
"445 82 CURVE"
);
},
{
closed = 1;
nodes = (
"388 414 OFFCURVE",
"449 337 OFFCURVE",
"449 252 CURVE SMOOTH",
"449 166 OFFCURVE",
"386 88 OFFCURVE",
"297 88 CURVE SMOOTH",
"208 88 OFFCURVE",
"147 166 OFFCURVE",
"147 250 CURVE SMOOTH",
"147 340 OFFCURVE",
"204 414 OFFCURVE",
"297 414 CURVE SMOOTH"
);
}
);
width = 595;
}
);
unicode = 03AC;
},
{
glyphname = etatonos;
layers = (
{
hints = (
{
place = "{55, 118}";
type = Stem;
},
{
place = "{392, 118}";
type = Stem;
},
{
horizontal = 1;
place = "{0, 21}";
target = up;
type = BottomGhost;
},
{
horizontal = 1;
place = "{409, 104}";
type = Stem;
},
{
horizontal = 1;
place = "{502, -20}";
target = down;
type = TopGhost;
},
{
horizontal = 1;
place = "{571, 161}";
type = Stem;
}
);
layerId = "8768C18F-5D75-4F12-A5E9-2E25CBCA3CBE";
paths = (
{
closed = 1;
nodes = (
"225 571 LINE",
"309 571 LINE",
"476 732 LINE",
"320 732 LINE"
);
},
{
closed = 1;
nodes = (
"260 513 OFFCURVE",
"210 479 OFFCURVE",
"174 436 CURVE",
"55 502 LINE",
"55 0 LINE",
"173 0 LINE",
"173 284 LINE SMOOTH",
"173 377 OFFCURVE",
"237 409 OFFCURVE",
"288 409 CURVE SMOOTH",
"340 409 OFFCURVE",
"392 375 OFFCURVE",
"392 284 CURVE SMOOTH",
"392 0 LINE",
"510 0 LINE",
"510 320 LINE SMOOTH",
"510 445 OFFCURVE",
"438 513 OFFCURVE",
"332 513 CURVE SMOOTH"
);
}
);
width = 567;
}
);
unicode = 03AE;
},
{
glyphname = iotatonos;
layers = (
{
hints = (
{
horizontal = 1;
place = "{0, 21}";
target = up;
type = BottomGhost;
},
{
horizontal = 1;
place = "{502, -20}";
target = down;
type = TopGhost;
},
{
horizontal = 1;
place = "{571, 161}";
type = Stem;
},
{
place = "{70, 117}";
type = Stem;
}
);
layerId = "8768C18F-5D75-4F12-A5E9-2E25CBCA3CBE";
paths = (
{
closed = 1;
nodes = (
"82 571 LINE",
"166 571 LINE",
"333 732 LINE",
"177 732 LINE"
);
},
{
closed = 1;
nodes = (
"187 502 LINE",
"70 502 LINE",
"70 0 LINE",
"187 0 LINE"
);
}
);
width = 291;
}
);
unicode = 03AF;
},
{
glyphname = omicrontonos;
layers = (
{
hints = (
{
horizontal = 1;
place = "{-11, 100}";
type = Stem;
},
{
horizontal = 1;
place = "{414, 100}";
type = Stem;
},
{
horizontal = 1;
place = "{571, 161}";
type = Stem;
},
{
place = "{37, 117}";
type = Stem;
},
{
place = "{464, 117}";
type = Stem;
}
);
layerId = "8768C18F-5D75-4F12-A5E9-2E25CBCA3CBE";
paths = (
{
closed = 1;
nodes = (
"269 571 LINE",
"353 571 LINE",
"520 732 LINE",
"364 732 LINE"
);
},
{
closed = 1;
nodes = (
"581 398 OFFCURVE",
"465 514 OFFCURVE",
"309 514 CURVE SMOOTH",
"152 514 OFFCURVE",
"37 397 OFFCURVE",
"37 250 CURVE SMOOTH",
"37 103 OFFCURVE",
"152 -11 OFFCURVE",
"307 -11 CURVE SMOOTH",
"465 -11 OFFCURVE",
"581 107 OFFCURVE",
"581 252 CURVE SMOOTH"
);
},
{
closed = 1;
nodes = (
"464 163 OFFCURVE",
"400 89 OFFCURVE",
"309 89 CURVE SMOOTH",
"221 89 OFFCURVE",
"154 160 OFFCURVE",
"154 252 CURVE SMOOTH",
"154 341 OFFCURVE",
"215 414 OFFCURVE",
"307 414 CURVE SMOOTH",
"399 414 OFFCURVE",
"464 340 OFFCURVE",
"464 251 CURVE SMOOTH"
);
}
);
width = 618;
}
);
unicode = 03CC;
},
{
glyphname = upsilontonos;
layers = (
{
hints = (
{
horizontal = 1;
place = "{-11, 102}";
type = Stem;
},
{
horizontal = 1;
place = "{502, -20}";
target = down;
type = TopGhost;
},
{
horizontal = 1;
place = "{571, 161}";
type = Stem;
},
{
place = "{42, 118}";
type = Stem;
},
{
place = "{379, 118}";
type = Stem;
}
);
layerId = "8768C18F-5D75-4F12-A5E9-2E25CBCA3CBE";
paths = (
{
closed = 1;
nodes = (
"232 571 LINE",
"316 571 LINE",
"483 732 LINE",
"327 732 LINE"
);
},
{
closed = 1;
nodes = (
"497 502 LINE",
"379 502 LINE",
"379 210 LINE SMOOTH",
"379 145 OFFCURVE",
"338 91 OFFCURVE",
"269 91 CURVE SMOOTH",
"194 91 OFFCURVE",
"160 144 OFFCURVE",
"160 212 CURVE SMOOTH",
"160 502 LINE",
"42 502 LINE",
"42 224 LINE SMOOTH",
"42 69 OFFCURVE",
"119 -11 OFFCURVE",
"270 -11 CURVE SMOOTH",
"419 -11 OFFCURVE",
"497 72 OFFCURVE",
"497 227 CURVE SMOOTH"
);
}
);
width = 551;
}
);
unicode = 03CD;
},
{
glyphname = iotadieresistonos;
layers = (
{
hints = (
{
place = "{-53, 131}";
type = Stem;
},
{
place = "{109, 117}";
type = Stem;
},
{
place = "{267, 128}";
type = Stem;
},
{
horizontal = 1;
place = "{0, 21}";
target = up;
type = BottomGhost;
},
{
horizontal = 1;
place = "{502, -20}";
target = down;
type = TopGhost;
},
{
horizontal = 1;
place = "{570, 131}";
type = Stem;
},
{
horizontal = 1;
place = "{572, 161}";
type = Stem;
}
);
layerId = "8768C18F-5D75-4F12-A5E9-2E25CBCA3CBE";
paths = (
{
closed = 1;
nodes = (
"79 572 LINE",
"158 572 LINE",
"305 733 LINE",
"159 733 LINE"
);
},
{
closed = 1;
nodes = (
"369 570 OFFCURVE",
"395 600 OFFCURVE",
"395 635 CURVE SMOOTH",
"395 670 OFFCURVE",
"369 701 OFFCURVE",
"330 701 CURVE SMOOTH",
"294 701 OFFCURVE",
"267 670 OFFCURVE",
"267 635 CURVE SMOOTH",
"267 600 OFFCURVE",
"294 570 OFFCURVE",
"330 570 CURVE SMOOTH"
);
},
{
closed = 1;
nodes = (
"-53 596 OFFCURVE",
"-24 570 OFFCURVE",
"12 570 CURVE SMOOTH",
"45 570 OFFCURVE",
"78 596 OFFCURVE",
"78 635 CURVE SMOOTH",
"78 671 OFFCURVE",
"45 699 OFFCURVE",
"12 699 CURVE SMOOTH",
"-24 699 OFFCURVE",
"-53 671 OFFCURVE",
"-53 635 CURVE SMOOTH"
);
},
{
closed = 1;
nodes = (
"226 502 LINE",
"109 502 LINE",
"109 0 LINE",
"226 0 LINE"
);
}
);
width = 327;
}
);
unicode = 0390;
},
{
glyphname = iotadieresis;
layers = (
{
hints = (
{
place = "{-26, 138}";
type = Stem;
},
{
place = "{84, 117}";
type = Stem;
},
{
place = "{177, 136}";
type = Stem;
},
{
horizontal = 1;
place = "{0, 21}";
target = up;
type = BottomGhost;
},
{
horizontal = 1;
place = "{502, -20}";
target = down;
type = TopGhost;
},
{
horizontal = 1;
place = "{535, 136}";
type = Stem;
}
);
layerId = "8768C18F-5D75-4F12-A5E9-2E25CBCA3CBE";
paths = (
{
closed = 1;
nodes = (
"-26 562 OFFCURVE",
"3 535 OFFCURVE",
"42 535 CURVE SMOOTH",
"81 535 OFFCURVE",
"112 562 OFFCURVE",
"112 603 CURVE SMOOTH",
"112 643 OFFCURVE",
"81 671 OFFCURVE",
"42 671 CURVE SMOOTH",
"3 671 OFFCURVE",
"-26 643 OFFCURVE",
"-26 603 CURVE SMOOTH"
);
},
{
closed = 1;
nodes = (
"177 562 OFFCURVE",
"207 535 OFFCURVE",
"244 535 CURVE SMOOTH",
"284 535 OFFCURVE",
"313 562 OFFCURVE",
"313 603 CURVE SMOOTH",
"313 643 OFFCURVE",
"284 671 OFFCURVE",
"244 671 CURVE SMOOTH",
"207 671 OFFCURVE",
"177 643 OFFCURVE",
"177 603 CURVE SMOOTH"
);
},
{
closed = 1;
nodes = (
"201 502 LINE",
"84 502 LINE",
"84 0 LINE",
"201 0 LINE"
);
}
);
width = 283;
}
);
unicode = 03CA;
},
{
glyphname = upsilondieresis;
layers = (
{
hints = (
{
place = "{42, 118}";
type = Stem;
},
{
place = "{101, 138}";
type = Stem;
},
{
place = "{304, 136}";
type = Stem;
},
{
place = "{379, 118}";
type = Stem;
},
{
horizontal = 1;
place = "{-11, 102}";
type = Stem;
},
{
horizontal = 1;
place = "{502, -20}";
target = down;
type = TopGhost;
},
{
horizontal = 1;
place = "{535, 136}";
type = Stem;
}
);
layerId = "8768C18F-5D75-4F12-A5E9-2E25CBCA3CBE";
paths = (
{
closed = 1;
nodes = (
"101 562 OFFCURVE",
"130 535 OFFCURVE",
"169 535 CURVE SMOOTH",
"208 535 OFFCURVE",
"239 562 OFFCURVE",
"239 603 CURVE SMOOTH",
"239 643 OFFCURVE",
"208 671 OFFCURVE",
"169 671 CURVE SMOOTH",
"130 671 OFFCURVE",
"101 643 OFFCURVE",
"101 603 CURVE SMOOTH"
);
},
{
closed = 1;
nodes = (
"304 562 OFFCURVE",
"334 535 OFFCURVE",
"371 535 CURVE SMOOTH",
"411 535 OFFCURVE",
"440 562 OFFCURVE",
"440 603 CURVE SMOOTH",
"440 643 OFFCURVE",
"411 671 OFFCURVE",
"371 671 CURVE SMOOTH",
"334 671 OFFCURVE",
"304 643 OFFCURVE",
"304 603 CURVE SMOOTH"
);
},
{
closed = 1;
nodes = (
"497 502 LINE",
"379 502 LINE",
"379 210 LINE SMOOTH",
"379 145 OFFCURVE",
"338 91 OFFCURVE",
"269 91 CURVE SMOOTH",
"194 91 OFFCURVE",
"160 144 OFFCURVE",
"160 212 CURVE SMOOTH",
"160 502 LINE",
"42 502 LINE",
"42 224 LINE SMOOTH",
"42 69 OFFCURVE",
"119 -11 OFFCURVE",
"270 -11 CURVE SMOOTH",
"419 -11 OFFCURVE",
"497 72 OFFCURVE",
"497 227 CURVE SMOOTH"
);
}
);
width = 551;
}
);
unicode = 03CB;
},
{
glyphname = upsilondieresistonos;
layers = (
{
hints = (
{
place = "{46, 118}";
type = Stem;
},
{
place = "{57, 131}";
type = Stem;
},
{
place = "{377, 128}";
type = Stem;
},
{
place = "{383, 118}";
type = Stem;
},
{
horizontal = 1;
place = "{-11, 102}";
type = Stem;
},
{
horizontal = 1;
place = "{502, -20}";
target = down;
type = TopGhost;
},
{
horizontal = 1;
place = "{570, 131}";
type = Stem;
},
{
horizontal = 1;
place = "{572, 161}";
type = Stem;
}
);
layerId = "8768C18F-5D75-4F12-A5E9-2E25CBCA3CBE";
paths = (
{
closed = 1;
nodes = (
"189 572 LINE",
"268 572 LINE",
"415 733 LINE",
"269 733 LINE"
);
},
{
closed = 1;
nodes = (
"479 570 OFFCURVE",
"505 600 OFFCURVE",
"505 635 CURVE SMOOTH",
"505 670 OFFCURVE",
"479 701 OFFCURVE",
"440 701 CURVE SMOOTH",
"404 701 OFFCURVE",
"377 670 OFFCURVE",
"377 635 CURVE SMOOTH",
"377 600 OFFCURVE",
"404 570 OFFCURVE",
"440 570 CURVE SMOOTH"
);
},
{
closed = 1;
nodes = (
"57 596 OFFCURVE",
"86 570 OFFCURVE",
"122 570 CURVE SMOOTH",
"155 570 OFFCURVE",
"188 596 OFFCURVE",
"188 635 CURVE SMOOTH",
"188 671 OFFCURVE",
"155 699 OFFCURVE",
"122 699 CURVE SMOOTH",
"86 699 OFFCURVE",
"57 671 OFFCURVE",
"57 635 CURVE SMOOTH"
);
},
{
closed = 1;
nodes = (
"501 502 LINE",
"383 502 LINE",
"383 210 LINE SMOOTH",
"383 145 OFFCURVE",
"342 91 OFFCURVE",
"273 91 CURVE SMOOTH",
"198 91 OFFCURVE",
"164 144 OFFCURVE",
"164 212 CURVE SMOOTH",
"164 502 LINE",
"46 502 LINE",
"46 224 LINE SMOOTH",
"46 69 OFFCURVE",
"123 -11 OFFCURVE",
"274 -11 CURVE SMOOTH",
"423 -11 OFFCURVE",
"501 72 OFFCURVE",
"501 227 CURVE SMOOTH"
);
}
);
width = 555;
}
);
unicode = 03B0;
},
{
glyphname = Omegatonos;
layers = (
{
hints = (
{
place = "{170, 125}";
type = Stem;
},
{
place = "{747, 125}";
type = Stem;
},
{
horizontal = 1;
place = "{1, 105}";
type = Stem;
},
{
horizontal = 1;
place = "{542, 161}";
type = Stem;
},
{
horizontal = 1;
place = "{608, 109}";
type = Stem;
}
);
layerId = "8768C18F-5D75-4F12-A5E9-2E25CBCA3CBE";
paths = (
{
closed = 1;
nodes = (
"579 1 LINE",
"892 1 LINE",
"892 106 LINE",
"719 106 LINE",
"815 165 OFFCURVE",
"872 272 OFFCURVE",
"872 384 CURVE SMOOTH",
"872 587 OFFCURVE",
"721 717 OFFCURVE",
"523 717 CURVE SMOOTH",
"328 717 OFFCURVE",
"170 587 OFFCURVE",
"170 386 CURVE SMOOTH",
"170 274 OFFCURVE",
"226 164 OFFCURVE",
"323 106 CURVE",
"150 106 LINE",
"150 1 LINE",
"467 1 LINE",
"467 110 LINE",
"362 164 OFFCURVE",
"295 251 OFFCURVE",
"295 371 CURVE SMOOTH",
"295 510 OFFCURVE",
"380 608 OFFCURVE",
"521 608 CURVE SMOOTH",
"662 608 OFFCURVE",
"747 509 OFFCURVE",
"747 371 CURVE SMOOTH",
"747 250 OFFCURVE",
"681 166 OFFCURVE",
"579 110 CURVE"
);
},
{
closed = 1;
nodes = (
"0 542 LINE",
"84 542 LINE",
"251 703 LINE",
"95 703 LINE"
);
}
);
width = 944;
}
);
unicode = 038F;
},
{
glyphname = omega;
layers = (
{
hints = (
{
horizontal = 1;
place = "{-11, 94}";
type = Stem;
},
{
place = "{37, 117}";
type = Stem;
},
{
place = "{350, 118}";
type = Stem;
},
{
place = "{666, 117}";
type = Stem;
}
);
layerId = "8768C18F-5D75-4F12-A5E9-2E25CBCA3CBE";
paths = (
{
closed = 1;
nodes = (
"468 381 LINE",
"350 381 LINE",
"350 249 LINE SMOOTH",
"350 181 OFFCURVE",
"329 83 OFFCURVE",
"256 83 CURVE SMOOTH",
"194 83 OFFCURVE",
"154 158 OFFCURVE",
"154 256 CURVE SMOOTH",
"154 344 OFFCURVE",
"186 425 OFFCURVE",
"276 518 CURVE",
"151 518 LINE",
"76 443 OFFCURVE",
"37 355 OFFCURVE",
"37 254 CURVE SMOOTH",
"37 105 OFFCURVE",
"116 -11 OFFCURVE",
"252 -11 CURVE SMOOTH",
"329 -11 OFFCURVE",
"380 25 OFFCURVE",
"409 76 CURVE",
"440 25 OFFCURVE",
"489 -11 OFFCURVE",
"566 -11 CURVE SMOOTH",
"701 -11 OFFCURVE",
"783 101 OFFCURVE",
"783 254 CURVE SMOOTH",
"783 359 OFFCURVE",
"742 445 OFFCURVE",
"669 518 CURVE",
"543 518 LINE",
"634 422 OFFCURVE",
"666 344 OFFCURVE",
"666 256 CURVE SMOOTH",
"666 156 OFFCURVE",
"626 83 OFFCURVE",
"562 83 CURVE SMOOTH",
"514 83 OFFCURVE",
"468 125 OFFCURVE",
"468 249 CURVE SMOOTH"
);
}
);
width = 820;
}
);
unicode = 03C9;
},
{
glyphname = omegatonos;
layers = (
{
hints = (
{
horizontal = 1;
place = "{-11, 94}";
type = Stem;
},
{
horizontal = 1;
place = "{571, 161}";
type = Stem;
},
{
place = "{37, 117}";
type = Stem;
},
{
place = "{350, 118}";
type = Stem;
},
{
place = "{666, 117}";
type = Stem;
}
);
layerId = "8768C18F-5D75-4F12-A5E9-2E25CBCA3CBE";
paths = (
{
closed = 1;
nodes = (
"362 571 LINE",
"446 571 LINE",
"613 732 LINE",
"457 732 LINE"
);
},
{
closed = 1;
nodes = (
"468 381 LINE",
"350 381 LINE",
"350 249 LINE SMOOTH",
"350 181 OFFCURVE",
"329 83 OFFCURVE",
"256 83 CURVE SMOOTH",
"194 83 OFFCURVE",
"154 158 OFFCURVE",
"154 256 CURVE SMOOTH",
"154 344 OFFCURVE",
"186 425 OFFCURVE",
"276 518 CURVE",
"151 518 LINE",
"76 443 OFFCURVE",
"37 355 OFFCURVE",
"37 254 CURVE SMOOTH",
"37 105 OFFCURVE",
"116 -11 OFFCURVE",
"252 -11 CURVE SMOOTH",
"329 -11 OFFCURVE",
"380 25 OFFCURVE",
"409 76 CURVE",
"440 25 OFFCURVE",
"489 -11 OFFCURVE",
"566 -11 CURVE SMOOTH",
"701 -11 OFFCURVE",
"783 101 OFFCURVE",
"783 254 CURVE SMOOTH",
"783 359 OFFCURVE",
"742 445 OFFCURVE",
"669 518 CURVE",
"543 518 LINE",
"634 422 OFFCURVE",
"666 344 OFFCURVE",
"666 256 CURVE SMOOTH",
"666 156 OFFCURVE",
"626 83 OFFCURVE",
"562 83 CURVE SMOOTH",
"514 83 OFFCURVE",
"468 125 OFFCURVE",
"468 249 CURVE SMOOTH"
);
}
);
width = 820;
}
);
unicode = 03CE;
},
{
glyphname = epsilontonos;
layers = (
{
hints = (
{
place = "{38, 117}";
type = Stem;
},
{
place = "{59, 117}";
type = Stem;
},
{
horizontal = 1;
place = "{-11, 100}";
type = Stem;
},
{
horizontal = 1;
place = "{216, 91}";
type = Stem;
},
{
horizontal = 1;
place = "{414, 100}";
type = Stem;
},
{
horizontal = 1;
place = "{571, 161}";
type = Stem;
}
);
layerId = "8768C18F-5D75-4F12-A5E9-2E25CBCA3CBE";
paths = (
{
closed = 1;
nodes = (
"184 571 LINE",
"268 571 LINE",
"435 732 LINE",
"279 732 LINE"
);
},
{
closed = 1;
nodes = (
"201 89 OFFCURVE",
"155 113 OFFCURVE",
"155 152 CURVE SMOOTH",
"155 185 OFFCURVE",
"190 216 OFFCURVE",
"273 216 CURVE SMOOTH",
"322 216 LINE",
"322 307 LINE",
"281 307 LINE SMOOTH",
"217 307 OFFCURVE",
"176 328 OFFCURVE",
"176 365 CURVE SMOOTH",
"176 396 OFFCURVE",
"211 414 OFFCURVE",
"259 414 CURVE SMOOTH",
"292 414 OFFCURVE",
"335 406 OFFCURVE",
"380 378 CURVE",
"410 475 LINE",
"358 502 OFFCURVE",
"306 514 OFFCURVE",
"251 514 CURVE SMOOTH",
"146 514 OFFCURVE",
"59 465 OFFCURVE",
"59 380 CURVE SMOOTH",
"59 329 OFFCURVE",
"91 285 OFFCURVE",
"152 262 CURVE",
"79 245 OFFCURVE",
"38 199 OFFCURVE",
"38 140 CURVE SMOOTH",
"38 48 OFFCURVE",
"139 -11 OFFCURVE",
"252 -11 CURVE SMOOTH",
"307 -11 OFFCURVE",
"364 2 OFFCURVE",
"420 26 CURVE",
"397 124 LINE",
"341 96 OFFCURVE",
"297 89 OFFCURVE",
"261 89 CURVE SMOOTH"
);
}
);
width = 457;
}
);
unicode = 03AD;
},
{
glyphname = xi;
layers = (
{
hints = (
{
place = "{37, 117}";
type = Stem;
},
{
place = "{84, 116}";
type = Stem;
},
{
place = "{310, 111}";
type = Stem;
},
{
horizontal = 1;
place = "{330, 96}";
type = Stem;
},
{
horizontal = 1;
place = "{638, 98}";
type = Stem;
}
);
layerId = "8768C18F-5D75-4F12-A5E9-2E25CBCA3CBE";
paths = (
{
closed = 1;
nodes = (
"306 -22 OFFCURVE",
"310 -62 OFFCURVE",
"310 -84 CURVE SMOOTH",
"310 -107 OFFCURVE",
"302 -130 OFFCURVE",
"290 -157 CURVE",
"396 -167 LINE",
"409 -136 OFFCURVE",
"421 -100 OFFCURVE",
"421 -59 CURVE SMOOTH",
"421 -2 OFFCURVE",
"395 62 OFFCURVE",
"280 83 CURVE",
"200 100 OFFCURVE",
"154 139 OFFCURVE",
"154 207 CURVE SMOOTH",
"154 300 OFFCURVE",
"235 330 OFFCURVE",
"359 330 CURVE",
"359 426 LINE",
"244 426 OFFCURVE",
"200 465 OFFCURVE",
"200 522 CURVE SMOOTH",
"200 617 OFFCURVE",
"313 634 OFFCURVE",
"420 634 CURVE",
"420 736 LINE",
"69 736 LINE",
"69 638 LINE",
"186 638 LINE",
"121 617 OFFCURVE",
"84 569 OFFCURVE",
"84 512 CURVE SMOOTH",
"84 451 OFFCURVE",
"126 406 OFFCURVE",
"194 379 CURVE",
"102 361 OFFCURVE",
"37 281 OFFCURVE",
"37 192 CURVE SMOOTH",
"37 99 OFFCURVE",
"101 15 OFFCURVE",
"231 -9 CURVE SMOOTH"
);
}
);
width = 430;
}
);
unicode = 03BE;
},
{
glyphname = zeta;
layers = (
{
hints = (
{
horizontal = 1;
place = "{639, 97}";
type = Stem;
},
{
place = "{39, 116}";
type = Stem;
},
{
place = "{319, 111}";
type = Stem;
}
);
layerId = "8768C18F-5D75-4F12-A5E9-2E25CBCA3CBE";
paths = (
{
closed = 1;
nodes = (
"434 736 LINE",
"85 736 LINE",
"85 639 LINE",
"306 639 LINE",
"133 516 OFFCURVE",
"39 368 OFFCURVE",
"39 224 CURVE SMOOTH",
"39 85 OFFCURVE",
"121 16 OFFCURVE",
"243 -8 CURVE SMOOTH",
"307 -21 OFFCURVE",
"319 -50 OFFCURVE",
"319 -80 CURVE SMOOTH",
"319 -103 OFFCURVE",
"311 -130 OFFCURVE",
"299 -157 CURVE",
"405 -167 LINE",
"418 -136 OFFCURVE",
"430 -100 OFFCURVE",
"430 -60 CURVE SMOOTH",
"430 8 OFFCURVE",
"393 63 OFFCURVE",
"290 84 CURVE SMOOTH",
"191 104 OFFCURVE",
"155 154 OFFCURVE",
"155 230 CURVE SMOOTH",
"155 373 OFFCURVE",
"275 532 OFFCURVE",
"434 632 CURVE"
);
}
);
width = 437;
}
);
unicode = 03B6;
},
{
glyphname = uni03C2;
layers = (
{
hints = (
{
horizontal = 1;
place = "{413, 99}";
type = Stem;
},
{
place = "{44, 116}";
type = Stem;
},
{
place = "{316, 112}";
type = Stem;
}
);
layerId = "8768C18F-5D75-4F12-A5E9-2E25CBCA3CBE";
paths = (
{
closed = 1;
nodes = (
"400 -167 LINE",
"415 -134 OFFCURVE",
"428 -100 OFFCURVE",
"428 -61 CURVE SMOOTH",
"428 11 OFFCURVE",
"375 52 OFFCURVE",
"301 81 CURVE SMOOTH",
"226 110 OFFCURVE",
"160 158 OFFCURVE",
"160 259 CURVE SMOOTH",
"160 336 OFFCURVE",
"207 413 OFFCURVE",
"292 413 CURVE SMOOTH",
"329 413 OFFCURVE",
"375 398 OFFCURVE",
"404 377 CURVE",
"443 464 LINE",
"400 496 OFFCURVE",
"344 512 OFFCURVE",
"288 512 CURVE SMOOTH",
"140 512 OFFCURVE",
"44 398 OFFCURVE",
"44 254 CURVE SMOOTH",
"44 123 OFFCURVE",
"115 36 OFFCURVE",
"225 -4 CURVE",
"282 -26 OFFCURVE",
"316 -41 OFFCURVE",
"316 -80 CURVE SMOOTH",
"316 -108 OFFCURVE",
"305 -134 OFFCURVE",
"292 -157 CURVE"
);
}
);
width = 512;
}
);
unicode = 03C2;
},
{
glyphname = phi;
layers = (
{
hints = (
{
place = "{37, 115}";
type = Stem;
},
{
place = "{327, 116}";
type = Stem;
},
{
place = "{623, 115}";
type = Stem;
},
{
horizontal = 1;
place = "{-8, 96}";
type = Stem;
},
{
horizontal = 1;
place = "{-7, 96}";
type = Stem;
},
{
horizontal = 1;
place = "{420, 100}";
type = Stem;
}
);
layerId = "8768C18F-5D75-4F12-A5E9-2E25CBCA3CBE";
paths = (
{
closed = 1;
nodes = (
"327 -176 LINE",
"443 -176 LINE",
"443 -7 LINE",
"618 4 OFFCURVE",
"738 114 OFFCURVE",
"738 282 CURVE SMOOTH",
"738 422 OFFCURVE",
"661 520 OFFCURVE",
"525 520 CURVE SMOOTH",
"347 520 OFFCURVE",
"327 371 OFFCURVE",
"327 231 CURVE SMOOTH",
"327 88 LINE",
"213 93 OFFCURVE",
"152 173 OFFCURVE",
"152 287 CURVE SMOOTH",
"152 358 OFFCURVE",
"185 433 OFFCURVE",
"270 518 CURVE",
"148 518 LINE",
"77 454 OFFCURVE",
"37 366 OFFCURVE",
"37 277 CURVE SMOOTH",
"37 100 OFFCURVE",
"164 5 OFFCURVE",
"327 -8 CURVE"
);
},
{
closed = 1;
nodes = (
"443 269 LINE",
"446 381 OFFCURVE",
"478 420 OFFCURVE",
"528 420 CURVE SMOOTH",
"604 420 OFFCURVE",
"623 334 OFFCURVE",
"623 274 CURVE",
"619 155 OFFCURVE",
"559 96 OFFCURVE",
"443 89 CURVE"
);
}
);
width = 775;
}
);
unicode = 03C6;
},
{
glyphname = Agrave;
layers = (
{
hints = (
{
horizontal = 1;
place = "{0, 21}";
target = up;
type = BottomGhost;
},
{
horizontal = 1;
place = "{173, 100}";
type = Stem;
},
{
horizontal = 1;
place = "{705, -20}";
target = down;
type = TopGhost;
},
{
place = "{22, 719}";
type = Stem;
}
);
layerId = "8768C18F-5D75-4F12-A5E9-2E25CBCA3CBE";
paths = (
{
closed = 1;
nodes = (
"366 757 LINE",
"453 757 LINE",
"355 918 LINE",
"233 886 LINE"
);
},
{
closed = 1;
nodes = (
"537 173 LINE",
"610 0 LINE",
"741 0 LINE",
"436 705 LINE",
"327 705 LINE",
"22 0 LINE",
"151 0 LINE",
"224 173 LINE"
);
},
{
closed = 1;
nodes = (
"381 562 LINE",
"497 273 LINE",
"265 273 LINE"
);
}
);
width = 766;
}
);
unicode = 00C0;
},
{
glyphname = Aacute;
layers = (
{
hints = (
{
horizontal = 1;
place = "{0, 21}";
target = up;
type = BottomGhost;
},
{
horizontal = 1;
place = "{173, 100}";
type = Stem;
},
{
horizontal = 1;
place = "{705, -20}";
target = down;
type = TopGhost;
},
{
place = "{22, 719}";
type = Stem;
}
);
layerId = "8768C18F-5D75-4F12-A5E9-2E25CBCA3CBE";
paths = (
{
closed = 1;
nodes = (
"538 886 LINE",
"415 918 LINE",
"320 757 LINE",
"404 757 LINE"
);
},
{
closed = 1;
nodes = (
"537 173 LINE",
"610 0 LINE",
"741 0 LINE",
"436 705 LINE",
"327 705 LINE",
"22 0 LINE",
"151 0 LINE",
"224 173 LINE"
);
},
{
closed = 1;
nodes = (
"381 562 LINE",
"497 273 LINE",
"265 273 LINE"
);
}
);
width = 766;
}
);
unicode = 00C1;
},
{
glyphname = Acircumflex;
layers = (
{
hints = (
{
horizontal = 1;
place = "{0, 21}";
target = up;
type = BottomGhost;
},
{
horizontal = 1;
place = "{173, 100}";
type = Stem;
},
{
horizontal = 1;
place = "{705, -20}";
target = down;
type = TopGhost;
},
{
horizontal = 1;
place = "{757, 156}";
type = Stem;
},
{
place = "{22, 719}";
type = Stem;
}
);
layerId = "8768C18F-5D75-4F12-A5E9-2E25CBCA3CBE";
paths = (
{
closed = 1;
nodes = (
"424 913 LINE",
"342 913 LINE",
"224 757 LINE",
"312 757 LINE",
"382 832 LINE",
"454 757 LINE",
"541 757 LINE"
);
},
{
closed = 1;
nodes = (
"537 173 LINE",
"610 0 LINE",
"741 0 LINE",
"436 705 LINE",
"327 705 LINE",
"22 0 LINE",
"151 0 LINE",
"224 173 LINE"
);
},
{
closed = 1;
nodes = (
"381 562 LINE",
"497 273 LINE",
"265 273 LINE"
);
}
);
width = 766;
}
);
unicode = 00C2;
},
{
glyphname = Atilde;
layers = (
{
hints = (
{
place = "{22, 719}";
type = Stem;
},
{
horizontal = 1;
place = "{0, 21}";
target = up;
type = BottomGhost;
},
{
horizontal = 1;
place = "{173, 100}";
type = Stem;
},
{
horizontal = 1;
place = "{705, -20}";
target = down;
type = TopGhost;
},
{
horizontal = 1;
place = "{767, 85}";
type = Stem;
},
{
horizontal = 1;
place = "{803, 85}";
type = Stem;
}
);
layerId = "8768C18F-5D75-4F12-A5E9-2E25CBCA3CBE";
paths = (
{
closed = 1;
nodes = (
"280 757 LINE",
"291 790 OFFCURVE",
"310 803 OFFCURVE",
"331 803 CURVE SMOOTH",
"367 803 OFFCURVE",
"407 767 OFFCURVE",
"451 767 CURVE SMOOTH",
"504 767 OFFCURVE",
"536 812 OFFCURVE",
"556 884 CURVE",
"487 897 LINE",
"476 866 OFFCURVE",
"465 852 OFFCURVE",
"445 852 CURVE SMOOTH",
"412 852 OFFCURVE",
"372 888 OFFCURVE",
"323 888 CURVE SMOOTH",
"268 888 OFFCURVE",
"230 840 OFFCURVE",
"210 769 CURVE"
);
},
{
closed = 1;
nodes = (
"537 173 LINE",
"610 0 LINE",
"741 0 LINE",
"436 705 LINE",
"327 705 LINE",
"22 0 LINE",
"151 0 LINE",
"224 173 LINE"
);
},
{
closed = 1;
nodes = (
"381 562 LINE",
"497 273 LINE",
"265 273 LINE"
);
}
);
width = 766;
}
);
unicode = 00C3;
},
{
glyphname = Adieresis;
layers = (
{
hints = (
{
horizontal = 1;
place = "{0, 21}";
target = up;
type = BottomGhost;
},
{
horizontal = 1;
place = "{173, 100}";
type = Stem;
},
{
horizontal = 1;
place = "{705, -20}";
target = down;
type = TopGhost;
},
{
horizontal = 1;
place = "{765, 136}";
type = Stem;
},
{
place = "{213, 138}";
type = Stem;
},
{
place = "{416, 136}";
type = Stem;
}
);
layerId = "8768C18F-5D75-4F12-A5E9-2E25CBCA3CBE";
paths = (
{
closed = 1;
nodes = (
"213 792 OFFCURVE",
"242 765 OFFCURVE",
"281 765 CURVE SMOOTH",
"320 765 OFFCURVE",
"351 792 OFFCURVE",
"351 833 CURVE SMOOTH",
"351 873 OFFCURVE",
"320 901 OFFCURVE",
"281 901 CURVE SMOOTH",
"242 901 OFFCURVE",
"213 873 OFFCURVE",
"213 833 CURVE SMOOTH"
);
},
{
closed = 1;
nodes = (
"416 792 OFFCURVE",
"446 765 OFFCURVE",
"483 765 CURVE SMOOTH",
"523 765 OFFCURVE",
"552 792 OFFCURVE",
"552 833 CURVE SMOOTH",
"552 873 OFFCURVE",
"523 901 OFFCURVE",
"483 901 CURVE SMOOTH",
"446 901 OFFCURVE",
"416 873 OFFCURVE",
"416 833 CURVE SMOOTH"
);
},
{
closed = 1;
nodes = (
"537 173 LINE",
"610 0 LINE",
"741 0 LINE",
"436 705 LINE",
"327 705 LINE",
"22 0 LINE",
"151 0 LINE",
"224 173 LINE"
);
},
{
closed = 1;
nodes = (
"381 562 LINE",
"497 273 LINE",
"265 273 LINE"
);
}
);
width = 766;
}
);
unicode = 00C4;
},
